<svg xmlns="http://www.w3.org/2000/svg" width="76.731" height="76.731" viewBox="0 0 76.731 76.731"><defs><style>.a{fill:#fa4d68;}</style></defs><path class="a" d="M51.868,36.491l4.871,4.871-6.07,6.07a.843.843,0,0,0,0,1.348l1.274,1.274a.843.843,0,0,0,1.348,0l6.07-6.07,9.366,9.366-6.07,6.07a.77.77,0,0,0,0,1.274l1.274,1.348a.843.843,0,0,0,1.348,0l6.07-6.07,4.721,4.721a2.243,2.243,0,0,1,.674,1.649,2.5,2.5,0,0,1-.674,1.724L64.08,76.056a2.5,2.5,0,0,1-1.724.674,2.243,2.243,0,0,1-1.649-.674l-24.2-24.2L22.418,65.941a4.162,4.162,0,0,1-5.846,0l-5.694-5.769a4.069,4.069,0,0,1,0-5.769L24.966,40.317.687,16.038a2.354,2.354,0,0,1,0-3.3L12.677.675A2.5,2.5,0,0,1,14.4,0,2.243,2.243,0,0,1,16.05.675L20.771,5.4l-6.07,6.07a.843.843,0,0,0,0,1.348l1.274,1.274a.843.843,0,0,0,1.348,0l6.07-6.07,9.366,9.366-6.07,6.07a.843.843,0,0,0,0,1.348l1.274,1.274a.843.843,0,0,0,1.348,0l6.07-6.07,4.871,4.945L64.005,1.2a4.069,4.069,0,0,1,5.769,0l5.769,5.769a3.932,3.932,0,0,1,1.2,2.884,3.932,3.932,0,0,1-1.2,2.884ZM4.963,60.544a2.043,2.043,0,0,0,.525.975l9.741,9.741a2.043,2.043,0,0,0,.975.525,2.644,2.644,0,0,1-.6.9L2.417,76.73a3.991,3.991,0,0,1-2.1-.3,3.991,3.991,0,0,1-.3-2.1L4.069,61.148a6.4,6.4,0,0,1,.9-.6Z" transform="translate(-0.013 0.001)"/></svg>