<?xml version="1.0" encoding="UTF-8" standalone="no"?>
<svg
   xmlns:dc="http://purl.org/dc/elements/1.1/"
   xmlns:cc="http://creativecommons.org/ns#"
   xmlns:rdf="http://www.w3.org/1999/02/22-rdf-syntax-ns#"
   xmlns:svg="http://www.w3.org/2000/svg"
   xmlns="http://www.w3.org/2000/svg"
   xmlns:sodipodi="http://sodipodi.sourceforge.net/DTD/sodipodi-0.dtd"
   xmlns:inkscape="http://www.inkscape.org/namespaces/inkscape"
   width="210mm"
   height="297mm"
   viewBox="0 0 210 297"
   version="1.1"
   id="svg8"
   inkscape:version="1.0.2 (e86c870879, 2021-01-15)"
   sodipodi:docname="drawing.svg">
  <defs
     id="defs2">
    <clipPath
       clipPathUnits="userSpaceOnUse"
       id="clipPath1923">
      <path
         id="path1925"
         style="fill:#ff0000;fill-opacity:1;fill-rule:nonzero;stroke:none;stroke-width:0.264583"
         d="M 44.334007,-12.728123 V 143.99667 H 224.25688 V -12.728123 h -8.52765 c 0.43955,0.350662 0.34591,1.266108 -0.97825,3.3274446 0.0612,0.6392095 0.10896,1.2814168 0.21601,1.8763694 0.0701,0.3898715 -1.54652,-0.4015131 -1.18028,0.140044 -0.20066,-0.00783 -0.3293,-0.010186 -0.46249,-0.013441 -0.58179,0.5824485 -1.64611,0.255577 -2.61329,0.1266085 -0.31144,1.1014128 -1.54641,2.0947988 -3.75068,2.2039976 -1.29905,0.064357 -2.60044,0.095856 -3.89743,0.1932702 -7.55187,0.5672058 -9.69613,0.8842719 -17.46095,1.7544151 -6.32339,0.6587807 -4.65336,0.612259 -9.41183,0.7890986 -1.86365,0.06926 -1.20543,-0.029834 -2.5337,0.136943 -0.39265,0.049303 -0.982,0.5021528 -1.17667,0.157615 -0.86096,-1.5238227 -1.04382,-3.3410155 -1.56579,-5.0115814 0.3395,-0.1623536 0.663,-0.3638815 1.01854,-0.4873096 1.55346,-0.5393055 3.59498,-0.8755777 5.13457,-1.1337793 2.16274,-0.3627173 4.33132,-0.6870171 6.50296,-0.9901211 0.14071,-0.5330746 0.51747,-1.4687976 1.06919,-3.0695796 z m 169.334883,0 c 0.007,0.0079 0.0145,0.0154 0.0217,0.02326 0.0265,-0.0066 0.0536,-0.01238 0.0796,-0.02326 z m -40.16344,10.2143609 c -0.42214,0.1010126 -0.35494,0.1125908 0.0243,0.1281589 -0.008,-0.042751 -0.0165,-0.085413 -0.0243,-0.1281589 z m -10.69496,0.6619769 c 3.68887,0.056036 7.00296,3.7862219 6.01721,10.4019482 0.65657,0.548939 1.28567,1.259967 1.86293,2.146639 h 0.57258 10.2743 5.80172 1.91564 c 0.86786,0 1.7361,0.02958 2.60346,0 2.84252,-0.09693 5.66669,-0.451673 8.51421,-0.472321 -0.73588,-0.191471 -0.94884,-0.2646285 -0.86403,-0.268719 0.16614,-0.00802 1.46668,0.246864 2.22777,0.396359 2.7e-4,-5.29e-4 2e-4,-5.29e-4 5.3e-4,-0.0011 0.003,-0.0042 1.64935,-0.02442 2.12545,-0.03152 1.51824,-0.01394 3.03701,5.29e-4 4.55527,5.29e-4 1.00899,-0.0011 0.50406,-5.29e-4 1.51413,-0.0016 13.84454,-0.01349 13.85785,13.971712 0.0135,13.985195 -1.01471,0.0011 -0.50499,5.29e-4 -1.52757,0.0016 -1.44852,-10e-5 -2.89749,-0.01291 -4.34598,-0.0021 -1.00533,0.01503 -2.02694,0.07105 -3.03083,0.0155 -0.29511,-0.01632 -0.90544,-0.07146 -1.26917,-0.110588 -1.49929,0.01659 -3.01379,0.176986 -4.49998,0.270786 -4.03524,0.254672 -2.4593,0.203086 -6.01669,0.203086 h -1.91565 -5.80171 -7.35614 c 0.0393,0.295942 0.0794,0.592587 0.11886,0.886251 0.19867,1.313918 -0.0342,2.607278 -0.12661,3.911391 -0.0402,0.566502 0.009,1.156557 0.0222,1.722892 0.0781,0.912175 -0.0364,1.8311 0.0274,2.743502 0.0184,0.263118 0.10162,0.518173 0.13901,0.77928 0.0695,0.485799 0.1334,0.972547 0.18191,1.460892 0.15632,1.574892 0.12477,1.547913 0.14107,3.052011 -0.1559,1.737243 -0.11675,3.479548 -0.093,5.220869 0.016,2.837154 -7.9e-4,5.674442 -5.3e-4,8.511625 0.0505,-0.106553 0.1129,-0.430969 0.1509,-0.31936 0.28097,0.825751 0.43089,1.691129 0.60616,2.545582 0.55202,2.691093 0.85718,4.522865 1.01131,7.278109 0.104,1.858951 0.0367,3.723687 0.0739,5.585184 0.60566,4.542182 1.61281,9.013989 2.48253,13.50822 0.63353,3.273711 1.1978,6.540069 1.92805,9.793719 0.38598,2.674816 0.81044,5.496806 0.2744,8.193297 -0.15082,0.758727 -0.43542,1.484457 -0.65319,2.226737 -3.89753,13.28463 -9.75614,-18.94583 -12.87673,-5.457549 -0.0807,0.348772 -0.16146,0.697609 -0.24184,1.046449 0.1066,-1.246974 7.9e-4,-1.500812 -0.1509,-2.959508 -0.74332,-3.339981 -1.33236,-6.690913 -1.98231,-10.049518 -0.0229,-0.118422 -0.0477,-0.236619 -0.0708,-0.355015 v 5.327841 5.147487 c 0,13.844553 -13.9852,13.844553 -13.9852,0 V 89.334895 82.603522 75.435483 69.292189 63.53285 58.308366 54.59283 48.394759 41.657703 36.916907 31.525505 25.366707 24.681994 h -2.6448 c -13.84456,0 -13.84456,-13.985192 0,-13.985192 h 2.72128 c 0.43747,-4.8294346 2.73457,-7.6441515 5.34128,-8.4434127 1.63493,-2.82854668 4.00318,-4.1390756 6.23476,-4.1051745 z m 4.53616,99.2290822 c -0.004,0.03922 -0.005,0.0714 -0.009,0.11317 -0.0109,0.118541 -0.12242,0.46001 -0.0971,0.343649 0.033,-0.152781 0.0708,-0.304517 0.10594,-0.456819 z" />
    </clipPath>
    <clipPath
       clipPathUnits="userSpaceOnUse"
       id="clipPath2417">
      <path
         id="path2419"
         style="fill:#ff0000;fill-opacity:1;fill-rule:nonzero;stroke:none"
         d="M 170.81641,4.2519531 V 600.70898 h 791.48047 v -293.375 c -8.75427,22.11774 -30.40701,24.683 -41.81641,8.64063 -8.69839,36.3018 -50.43809,31.85313 -51.27344,-14.44922 -2.32051,-3.01405 -4.501,-6.53043 -6.46484,-10.60937 -2.24716,-4.6674 -4.96736,-9.13532 -6.74219,-14.00196 -3.42009,-9.37792 -6.18893,-18.98922 -8.80273,-28.62304 -3.53799,-13.04001 -6.76121,-26.16884 -9.68946,-39.35938 -9.85391,-4.73813 -17.60198,-17.57317 -16.59179,-38.24609 0.81721,-16.72364 -0.4129,-33.48995 -1.23633,-50.21094 -0.35429,-2.96428 -0.47289,-5.76286 -0.36719,-8.38086 -0.008,-0.22192 -0.0194,-0.44411 -0.0273,-0.66602 -0.93205,-26.146335 11.58007,-39.208425 24.67578,-39.203121 1.75366,7.11e-4 3.51798,0.24356 5.26172,0.712891 0.087,-3.082312 0.16163,-6.163918 0.15429,-9.244141 -0.12283,-6.980715 -0.13348,-13.961876 -0.0879,-20.943359 0.007,-1.299239 0.005,-0.578661 0.004,-2.162109 -0.008,-19.049956 7.00076,-31.1568554 15.91406,-36.3359379 z m 715.41797,0 c 5.45416,3.1691475 10.19447,8.9301349 13.05078,17.2929689 V 4.2519531 Z" />
    </clipPath>
    <clipPath
       clipPathUnits="userSpaceOnUse"
       id="clipPath2429">
      <path
         id="path2431"
         style="fill:#ff0000;fill-opacity:1;fill-rule:nonzero;stroke:none"
         d="m 296.55489,-48.106022 10e-6,492.433582 551.03124,-1e-5 0,-190.85936 c -0.90831,-3.14798 -1.79687,-6.30263 -2.65429,-9.46289 -3.53799,-13.04001 -6.76121,-26.16884 -9.68946,-39.35938 -9.85391,-4.73813 -17.60198,-17.57317 -16.59179,-38.24609 0.81785,-16.73666 -0.41486,-33.51607 -1.2383,-50.25 -0.34425,-2.91124 -0.46107,-5.66285 -0.36132,-8.24024 -0.01,-0.25576 -0.0222,-0.51184 -0.0312,-0.76758 -0.0198,-0.55508 -0.0254,-1.09538 -0.0332,-1.63867 -0.0217,0.006 -0.0452,0.0154 -0.0664,0.0195 -0.0877,0.84313 0.0836,0.11043 -0.71875,2.69532 -0.86063,1.3723 -0.65928,1.46688 -2.22657,2.19726 -0.36431,0.16977 -0.79032,0.16388 -1.16601,0.30664 -0.74524,0.2831 -1.48612,0.77392 -2.00195,1.37891 0.0196,0.006 0.0699,0.003 0.0586,0.0195 -0.56927,0.77752 -0.3294,0.37613 -1.06836,0.92187 -0.065,0.0482 -0.0943,0.1336 -0.1582,0.1836 -0.48438,0.37889 -1.00072,0.71695 -1.49414,1.08398 -1.21134,0.8214 -2.58968,1.3208 -3.79297,2.15625 -0.37954,0.2635 -0.6976,0.51503 -0.75391,0.97461 -0.009,0.0166 -0.008,0.0214 -0.0156,0.0371 0.004,0.8555 0.009,1.71105 0.008,2.56641 -0.0794,2.42961 -0.23015,4.86005 0.10547,7.2832 1.93928,14.00855 -12.21818,15.77775 -14.17383,1.77149 -0.44107,-3.15832 -0.30115,-6.33176 -0.20899,-9.50196 -0.0151,-2.37418 -0.0369,-4.74685 -0.0293,-7.12109 0.006,-2.69526 0.002,-5.39067 0.002,-8.08594 -1.9e-4,-3.02199 1.5e-4,-6.044398 0,-9.066404 -1.5e-4,-2.723891 -4e-5,-5.447985 0,-8.171875 l 0,-5.947266 0,-3.90039 0,-5.058594 0,-10.429688 0,-8.609374 0,-6.595704 0,-5.294922 0,-5.566406 0,-4.833983 0,-5.597656 0,-3.970704 0,-6.347656 0,-2.873047 c -0.28504,-0.03527 -0.1224,-0.595794 -0.1875,-0.888671 -0.49588,-1.9132719 -0.12198,-3.8531129 -0.14844,-5.7812505 -0.0265,-1.3471467 -0.0328,-2.6936832 -0.0215,-4.0410156 -0.0424,-0.4876069 -0.003,-1.0477581 0.0215,-1.59375 l -0.35156,10e-9 -4.82226,6e-8 -3.34766,5e-8 -5.9707,8e-8 -5.07227,7e-8 -3.57031,5e-8 -3.17578,4e-8 -4.82032,7e-8 -5.20507,7e-8 -4.01563,5e-8 -6.16406,9e-8 -4.43945,6e-8 -3.4043,5e-8 -5.17188,7e-8 -5.97656,8e-8 -6.85351,9e-8 -8.58399,1.2e-7 c -1.05615,-8e-8 -2.11178,-1.67e-6 -3.16797,4e-8 -1.17623,1.32e-6 -2.35302,5.34e-6 -3.52929,5e-8 -1.33342,2.982e-5 -2.66658,1.1014e-4 -4,6e-8 -1.2661,-2.1229e-4 -2.53269,1.1263e-4 -3.79883,5e-8 -1.09973,-8.2379e-4 -2.1991,-0.00549 -3.29883,0.00195 -1.60811,0.00917 -3.21622,-0.0120919 -4.82422,-0.0273439 -3.62703,0.11320465 -7.26901,0.2631442 -10.87891,-0.22460905 -0.97293,-0.13145809 -1.83101,-0.34517228 -2.58984,-0.61718747 -0.0632,-0.00279 -0.1262,-4.819e-4 -0.18945,-0.00391 -0.46702,-0.00603 -0.93508,-0.0149 -1.40235,-0.023437 l -7.10937,10e-8 c -0.46606,0 -0.9015,-0.028902 -1.32031,-0.074219 -1.63192,0.025132 -3.26282,0.076825 -4.89063,0.21875011 -9.10975,0.79425882 -10.28309,-8.22378851 -1.28906,-9.19726601 0.48076,-1.792158 2.37654,-3.236334 5.70703,-3.335937 0.55746,-0.01667 1.15528,0.0051 1.79297,0.06836 4.83478,0.479417 9.58279,1.562813 14.45117,1.707031 1.64281,0.04867 3.38673,7.75e-4 5.10742,-0.05859 -1.90111,-0.590628 -3.16771,-1.653417 -3.77734,-2.88086 -3.20844,-2.36604 -2.06705,-6.944208 3.40039,-7.742187 -2.02556,-1.595576 -2.72882,-3.731004 -2.25195,-5.490235 l -5.625,0 -2.63282,0 c -2.52708,1.129885 -5.02083,2.340682 -7.46875,3.662111 -25.91199,13.98774 -45.45644,5.732584 -49.43945,-8.681641 -7.48895,-3.764328 -12.19145,-9.272258 -14.0918,-15.228514 z m 551.02929,19.941397 c -2.10678,0.197074 -4.3102,0.30664 -6.62109,0.30664 l -6.68164,0 -19.16211,1e-6 -10.59961,0 c -0.24597,0.627783 -0.55916,1.281859 -0.90235,1.949219 0.79575,1.287905 1.32463,2.481318 1.08594,3.408203 l 14.29687,0 8.38868,0 2.72851,0 c 3.00214,0 5.01739,0.992335 6.0586,2.326171 2.82918,1.919379 2.91678,5.31405 0.25,7.31836 0.23439,7.24e-4 0.46872,0.0023 0.70312,0.0019 l 0.57617,-0.0019 c 1.96045,-0.0083 3.49992,0.410559 4.62696,1.070312 l 0.77929,0 3.48243,0 c 0.34467,0 0.67136,0.01783 0.99023,0.04297 z m -151.41602,0.306642 c 0.30631,0.144515 0.43939,0.206119 0.80664,0.378907 1.62093,0.762613 3.15568,1.705174 4.80665,2.40039 1.57604,0.663701 3.19683,1.243714 4.85351,1.667969 2.1399,0.547998 3.69322,0.781208 5.26758,0.910156 l 2.00391,0 11.83789,0 c 0.0392,-0.0025 0.0362,-0.0013 0.0762,-0.0039 0.24016,-0.01551 0.44943,-0.03165 0.68164,-0.04883 -3.75229,-0.718417 -5.56013,-3.056112 -5.42578,-5.304688 z m 151.41602,25.3144518 c -0.31825,0.025137 -0.64556,0.042969 -0.99023,0.042969 l -3.48243,1e-7 -4.75781,0 c -1.39461,1.083432 -3.44358,1.69403387 -6.11328,1.3027345 -0.44428,-0.06512 -0.89221,-0.1151828 -1.33398,-0.1953125 -0.2651,-0.048071 -0.57993,-0.014931 -0.78516,-0.1894531 -0.0129,-0.010968 -0.0152,-0.018012 -0.0176,-0.025391 l -5.88476,1e-7 -3.8125,10e-8 c -1.27575,0.86295989 -3.10064,1.42968681 -5.49024,1.42968745 l -4.14062,5e-8 -2.94141,4e-8 -2.45508,4e-8 c -0.0162,0.067375 -0.0235,0.1267863 -0.0449,0.1992187 0.01,0.2166949 0.0204,0.4084684 0.0293,0.7148438 -0.006,1.92393892 -0.004,3.84753382 -0.008,5.77148472 0.74504,0.385541 0.69441,1.059158 0.78125,2.332031 0.0448,0.65903 0.0687,1.3192472 0.10938,1.9785162 0.14616,-0.02843 0.29399,-0.05684 0.43555,-0.08594 0.0131,-1.2369312 0.0258,-2.4742612 0.0547,-3.7109372 0.006,-0.286362 -0.22346,-0.913147 0.0566,-0.857422 1.0302,0.2043189 1.76359,0.3560239 2.29493,0.5117189 0.40529,-0.08288 0.69626,-0.147537 1.26757,-0.263672 0.21657,-0.04404 -0.045,0.441109 -0.0488,0.662109 -0.003,0.13413 -0.003,0.268209 -0.006,0.402344 0.18299,0.456937 0.0731,1.13878 0.0684,2.330078 0.0965,1.7415693 0.30458,3.4656463 0.57812,5.1796873 0.97535,-0.137257 1.46688,-0.04835 1.67578,0.294922 0.031,0.003 0.0505,0.0028 0.082,0.0059 0.0503,0.0049 0.0857,0.02329 0.11133,0.05078 0.1279,0.0018 0.26062,-0.0099 0.38477,0 0.43537,0.03472 0.0605,0.819365 0.0176,1.296875 0.0765,0.524156 0.0574,1.183885 0.15234,2.001953 0.0427,0.368165 0.10107,0.734228 0.15039,1.101563 0.31976,-0.155007 0.68298,-0.223715 1.06445,-0.222657 0.79847,-0.14341 1.63619,-0.05426 2.21094,0.40625 0.11302,0.09055 0.18451,0.201371 0.23828,0.320313 0.35532,0.07607 0.70278,0.167881 1.02149,0.3125 0.30152,-0.07203 0.60275,-0.13637 0.88671,-0.207032 0.22337,-0.05554 -0.0857,0.455661 -0.0781,0.685547 4.9e-4,0.01483 2.2e-4,0.02816 0.002,0.04297 0.013,0.0117 0.0244,0.02515 0.0371,0.03711 0.003,-0.05794 0.005,-0.115899 0.008,-0.173829 0.0211,0.08132 0.0414,0.162818 0.0625,0.244141 0.0518,0.05247 0.109,0.09896 0.15625,0.15625 0.0592,0.07179 0.0976,0.152303 0.14063,0.230469 0.54075,-0.700868 1.32422,-1.365818 2.48047,-2.019531 0.50502,-0.285412 0.49224,1.049101 0.73828,1.574218 -0.0485,0.925763 -0.086,1.853148 -0.12891,2.779297 1.29883,0.21485 2.68667,0.798869 3.49414,1.83789 0.55049,0.708123 0.0251,1.794611 0.0176,2.691406 -0.0147,1.452944 -0.0577,2.904711 -0.0879,4.357422 -0.0124,0.899322 -0.0187,1.805494 -0.0254,2.710936 0.0981,-0.01672 0.20495,-0.01933 0.29883,-0.04297 -0.0115,0.08008 -0.003,0.07358 -0.01,0.125 0.23272,0.06114 0.46588,0.120925 0.69727,0.193359 0.4775,-0.118451 0.95678,-0.216614 1.44726,-0.230469 0.21902,-0.0062 -0.003,0.410312 -0.0273,0.648438 0.0177,0.0043 0.035,0.0114 0.0527,0.01563 0.003,0.660079 -0.003,1.320376 -0.002,1.980468 0.55398,0.446859 0.0183,1.423917 -0.0117,2.158204 -3.8e-4,0.463503 -1.3e-4,0.927069 0,1.390625 0.12644,-1.016943 0.21666,-2.087284 0.6211,-2.878907 -0.10906,-0.53425 -0.17488,-1.018532 0.23047,-1.015625 0.29269,0.0021 0.55719,0.01799 0.80078,0.04492 0.34372,-0.142123 0.75958,-0.217414 1.28906,-0.183593 0.4231,0.02703 0.91292,0.116337 1.48047,0.28125 0.70511,0.204935 -0.0389,1.468632 -0.0918,2.201171 -0.006,0.08859 -0.0149,0.177041 -0.0215,0.265625 1.18258,-0.233958 1.60624,0.02029 1.71679,0.63086 0.31695,0.08038 0.17175,0.505945 0.0547,0.914062 -2.1e-4,0.213502 0.006,0.39247 0.0117,0.634766 4.5e-4,0.387389 -0.006,0.77472 -0.006,1.162109 0.17782,0.03342 0.32236,0.09254 0.45117,0.164063 0.19604,0.05105 0.39391,0.101594 0.61524,0.171875 0.43315,0.137573 0.1992,0.764092 0.0723,1.3125 0.0289,0.658997 -0.0538,1.430937 -0.0742,2.1875 -5.1e-4,0.469396 -0.002,0.938799 -0.004,1.408203 0.50525,0.131439 0.99583,0.352476 1.40234,0.648437 0.1511,-0.679762 0.27816,-1.241825 0.54102,-2.433593 0.2632,-0.384446 0.39194,-1.397909 0.78906,-1.154297 1.55784,0.955659 2.26705,1.60268 2.55273,2.238281 0.0522,-0.119912 0.0231,-0.04117 0.14454,-0.3125 -0.046,0.207128 -0.0522,0.233846 -0.0938,0.421875 0.26688,0.713273 0.0258,1.453063 -0.15039,2.607422 0.31703,0.03403 0.64424,0.09458 0.96875,0.150391 0.46178,-1.855876 0.31016,-1.761679 1.05274,-3.976563 0.12808,-0.381842 0.32299,-0.738427 0.48437,-1.107422 0.48264,-1.132373 0.44399,-0.693816 0.46289,-1.521484 0.004,-0.185691 0.01,-0.37283 0.01,-0.558594 0,-0.06346 -0.0737,-0.20306 -0.0117,-0.189453 0.13232,0.02863 0.31069,0.108827 0.49414,0.197266 -0.005,-0.01684 -0.0102,-0.03289 -0.0156,-0.04883 -0.0437,-0.0064 -0.0897,-0.0096 -0.13282,-0.01563 -0.0918,-0.01285 -0.14517,-0.313033 -0.0625,-0.269531 0.0952,0.05048 0.15394,0.157676 0.19727,0.285156 0.32287,0.04753 0.65524,0.0962 0.98047,0.08984 -0.40965,-0.323128 -1.12055,-0.365665 -1.61328,-0.611328 0.0688,-0.316415 -0.0715,-0.784054 0.20703,-0.949219 0.22474,-0.133278 0.43058,-0.233534 0.6289,-0.318359 -0.0201,-0.02612 -0.0444,-0.04793 -0.0625,-0.07617 -0.0449,-0.07003 -0.0589,-0.11145 -0.0508,-0.130859 0.0151,-0.03631 0.1515,0.04261 0.29688,0.130859 -0.0583,0.0212 -0.11905,0.05024 -0.17969,0.07617 0.38913,0.504966 1.1288,0.646839 1.65625,1.029297 0.004,-0.03336 -0.001,-0.07341 0.008,-0.103516 -0.36916,-0.213821 -1.08386,-0.760005 -1.48242,-1.001953 0.83451,-0.301315 1.42834,-0.105954 1.82031,0.796875 0.27895,0.642628 0.37126,1.301502 0.35352,1.966797 0.15365,-0.379647 0.31103,-0.757861 0.4668,-1.136719 0.003,-1.76616 -0.002,-3.532625 0.01,-5.298828 0.007,-1.299239 0.005,-0.578661 0.004,-2.162109 -10e-4,-3.164325 0.1943,-6.132456 0.55664,-8.914062 z m -0.5625,53.1347642 c -0.88016,2.334449 -1.73114,4.704836 -2.76563,7.658203 0.73721,0.129606 1.01082,0.734657 0.72657,1.828125 -0.10378,0.28626 -0.0578,0.585098 -0.0176,0.884766 0.11738,-0.138539 0.2431,-0.269395 0.36719,-0.402344 0.77267,-2.727073 1.01092,-3.516468 1.73046,-5.890625 -0.0146,-1.359458 -0.0335,-2.718636 -0.041,-4.078125 z m -2.19531,9.199219 c -0.0464,0.196736 -0.0569,0.211488 -0.0879,0.326172 0.0912,-0.106191 0.11417,-0.437388 0.0879,-0.326172 z m -13.13086,6.162109 c -0.23791,0.166915 -0.4805,0.325402 -0.72461,0.482422 0.0424,1.528673 0.0824,3.057368 0.12695,4.585938 0.28034,-0.174704 0.56468,-0.336256 0.84961,-0.496094 0.0754,-0.129143 0.26909,-0.451673 0.33789,-0.568359 0.0244,-0.504241 0.0379,-0.876774 0.0742,-1.521485 0.0179,-0.318001 0.0466,-0.635358 0.0684,-0.953125 -0.22485,-0.19335 -0.37966,-0.403994 -0.48047,-0.638672 -0.0116,-0.0033 -0.019,0.0039 -0.0312,-0.002 -0.31682,-0.146415 -0.33947,-0.473118 -0.2207,-0.888672 z M 810.85176,104.1967 c -0.0109,0.0165 -0.0215,0.0324 -0.0391,0.0586 -0.0208,0.0309 -0.17701,0.0474 -0.40039,0.0566 -0.35987,0.64749 -0.71699,1.29978 -1.08593,1.92968 -0.27919,1.0027 -0.68456,1.7327 -1.23242,2.03516 -0.49683,0.79267 -0.98985,1.55944 -1.47266,2.25781 -0.18547,0.26829 -0.36231,0.56407 -0.54297,0.86133 0.63828,-0.47326 1.27928,-0.94576 1.92578,-1.4082 0.0899,-0.13432 0.17823,-0.26963 0.26758,-0.4043 0.2736,-0.25925 0.5221,-0.54698 0.82031,-0.77734 0.91597,-0.70729 1.78729,-1.13632 2.875,-1.55469 0.19351,-0.0744 0.42078,-0.20881 0.60938,-0.12305 0.11074,0.0504 -0.2428,0.34979 -0.1211,0.34375 0.16516,-0.008 0.23044,-0.23668 0.34571,-0.35547 0.14545,-0.42468 0.32187,-0.84071 0.44531,-1.27148 -0.68528,0.29496 -1.43029,0.51225 -2.08789,0.84375 -0.0639,-0.27156 -0.17252,-0.53601 -0.19141,-0.81445 -0.0266,-0.41736 -0.0273,-0.83543 -0.0215,-1.25391 -0.0757,-0.11957 -0.0953,-0.26682 -0.0937,-0.42383 z" />
    </clipPath>
    <clipPath
       clipPathUnits="userSpaceOnUse"
       id="clipPath2439">
      <path
         id="path2441"
         style="fill:#ff0000;fill-opacity:1;fill-rule:nonzero;stroke:none"
         d="m 296.55376,-48.106293 10e-6,492.433583 551.03129,-1e-5 -10e-6,-347.808577 c -0.5811,3.22407 -1.276,6.427317 -2.25,9.548817 -1.2989,4.16288 -6.1795,13.81487 -8.5391,18.60352 -0.2697,1.03776 -0.744,2.04301 -0.8086,3.11328 -0.022,0.3568 0.5157,-1.15837 0.6699,-0.83594 0.316,0.66211 0.1175,1.48127 -0.017,2.20117 -0.7435,3.76055 -1.3719,7.57461 -2.63089,11.19532 -1.0787,3.10221 -4.1906,8.39772 -6.1406,11.81054 0.024,0.26456 0.05,0.52841 0.072,0.79297 1.3372,14.55386 -3.5082,23.29803 -10.7441,27.29883 -3.4268,9.76823 -9.5222,15.89248 -16.3047,18.33984 -5.611,21.67198 -22.90202,28.43341 -35.80859,20.29688 -1.25261,0.79975 -2.54066,1.4551 -3.84765,1.98828 -2.52105,5.5838 -7.1723,9.92534 -12.97852,12.24219 -0.20374,2.11175 -0.61952,3.72341 -1.49219,4.82031 -0.15734,3.05093 -0.34444,6.10111 -0.49218,9.15234 -0.87432,15.96338 -0.54375,8.76041 -1.0586,21.60547 -1.56514,39.04883 -31.4337,47.73296 -45.57031,27.84962 -8.69643,36.30583 -50.43807,31.85862 -51.27344,-14.44531 -2.32051,-3.01405 -4.501,-6.53043 -6.46484,-10.60937 -2.24716,-4.6674 -4.96736,-9.13532 -6.74219,-14.00196 -3.42009,-9.37792 -6.18893,-18.98922 -8.80273,-28.62304 -3.53799,-13.04001 -6.76121,-26.16884 -9.68946,-39.35938 -9.85391,-4.73813 -17.60198,-17.57317 -16.59179,-38.24609 0.81721,-16.72364 -0.41291,-33.48995 -1.23634,-50.21094 -0.35429,-2.964283 -0.47289,-5.762863 -0.36719,-8.380863 -0.008,-0.22192 -0.0194,-0.44411 -0.0273,-0.66602 -0.93205,-26.146332 11.58007,-39.208425 24.67578,-39.203123 1.75306,7.11e-4 3.51662,0.243884 5.25976,0.712891 0.087,-3.082044 0.16163,-6.164193 0.1543,-9.244141 -0.12283,-6.980715 -0.13344,-13.961876 -0.0879,-20.943359 0.007,-1.299239 0.005,-0.578661 0.004,-2.162109 -0.0109,-26.1629287 13.20837,-39.24414 26.42773,-39.24414 9.48452,0 18.9656,6.737412 23.56445,20.2050776 l 0,-26.5488276 c 0,-2.715308 0.15015,-5.281349 0.41992,-7.714844 -1.34649,-1.062834 -1.36341,-1.94384 0.40235,-2.96875 0.80385,-4.982838 2.16657,-9.315659 3.94726,-12.99414 l -36.47265,0 c -6.18975,3.151259 -14.30235,5.105468 -24.35352,5.105468 l -6.68164,0 -19.16211,10e-7 -22.07422,0 -29.30273,0 -38.74805,1e-6 -33.21875,0 -17.25586,10e-7 -2.63086,0 c -2.52708,1.129885 -5.02083,2.340682 -7.46875,3.66211 -25.91663,13.990245 -45.46326,5.729558 -49.4414,-8.689453 -0.0547,-0.02749 -0.11556,-0.05045 -0.16992,-0.07813 z m 429.98438,-6e-6 c 0.15376,0.317675 0.30369,0.641346 0.45117,0.96875 0.1567,-0.324919 0.30512,-0.656492 0.47656,-0.96875 z m 54.91021,-10e-7 c 0.8248,0.730211 1.6619,1.479116 2.4648,2.177734 1.0311,0.02476 2.942,0.05944 3.2793,0.07617 3.4885,0.17304 6.9505,0.699089 10.4258,1.048828 7.9178,8.63931 18.7088,15.339889 23.7519,25.917968 2.6733,5.607264 -1.4553,12.3373437 -2.5547,18.45898469 4.366,-0.0529301 8.7324,-0.0805301 13.0997,-0.0664102 5.223,0.0168899 10.4465,0.0751299 15.6699,0.14062479 l 0,-47.7539063 z m 64.2109,100.582029 c 0.8066,2.403312 1.4556,5.020275 1.9258,7.847656 l 0,-7.828125 c -0.6419,-0.0084 -1.2839,-0.01157 -1.9258,-0.01953 z" />
    </clipPath>
  </defs>
  <sodipodi:namedview
     id="base"
     pagecolor="#ffffff"
     bordercolor="#666666"
     borderopacity="1.0"
     inkscape:pageopacity="0.0"
     inkscape:pageshadow="2"
     inkscape:zoom="0.7"
     inkscape:cx="371.29643"
     inkscape:cy="342.64322"
     inkscape:document-units="mm"
     inkscape:current-layer="layer1"
     inkscape:document-rotation="0"
     showgrid="false"
     inkscape:snap-bbox="true"
     inkscape:snap-global="false"
     inkscape:window-width="1366"
     inkscape:window-height="745"
     inkscape:window-x="-8"
     inkscape:window-y="-8"
     inkscape:window-maximized="1" />
  <metadata
     id="metadata5">
    <rdf:RDF>
      <cc:Work
         rdf:about="">
        <dc:format>image/svg+xml</dc:format>
        <dc:type
           rdf:resource="http://purl.org/dc/dcmitype/StillImage" />
        <dc:title></dc:title>
      </cc:Work>
    </rdf:RDF>
  </metadata>
  <g
     inkscape:label="Layer 1"
     inkscape:groupmode="layer"
     id="layer1">
    <g
       id="g2452">
      <g
         id="g65"
         clip-path="url(#clipPath586)"
         transform="translate(0.59938951,1.1339286)"
         style="fill:#0098e1;fill-opacity:1">
        <g
           id="g20"
           transform="matrix(0.47184899,-0.38639682,0.38639682,0.47184899,91.360085,-34.9056)"
           style="fill:#0098e1;fill-opacity:1">
          <rect
             style="fill:#0098e1;fill-rule:evenodd;stroke-width:0.264583;fill-opacity:1"
             id="rect14"
             width="175.38094"
             height="65.767853"
             x="-232.07738"
             y="140.60715"
             ry="32.883926" />
          <path
             id="rect16"
             style="fill:#0098e1;fill-rule:evenodd;stroke-width:0.510377;fill-opacity:1"
             transform="matrix(0.33565103,0.27486441,-0.27486441,0.33565103,-152.16156,-50.628793)"
             d="M 754.92383,-48.105469 296.55469,327.25195 392.42773,444.32812 830.10547,85.914062 c 0.003,-1.216157 0.006,-2.432281 0.01,-3.648437 -0.1818,0.06492 -0.36795,0.113324 -0.56054,0.121094 -0.7265,0.02938 -0.98877,-1.295117 -0.91016,-1.753907 0.0503,-0.396969 -0.15922,-1.231652 -0.20117,-1.560546 -0.24616,-1.923527 -0.38109,-3.861201 -0.58594,-5.789063 -0.0752,-0.878483 -0.16117,-1.755505 -0.22656,-2.634765 -0.028,-0.381734 0.0879,-0.770361 -0.0508,-1.148438 -0.17575,-1.635133 -0.16698,-0.399692 -0.26563,-2.578125 -0.008,-0.183547 -10e-4,-0.367222 0,-0.550781 -0.16657,0.333086 -0.32599,0.67053 -0.4707,1.013672 -0.30954,0.733753 -0.54957,1.49577 -0.81641,2.246093 -1.92075,5.399951 -2.22142,6.323867 -4.17578,11.994141 -0.96873,2.873208 -2.88493,7.531955 -3.12304,11.056641 -0.0189,0.251966 0,0.505264 0,0.757812 h 0.004 c 0,2.500003 -2.54429,2.499927 -2.52539,0 0.0335,-4.354594 1.90911,-8.611008 3.25391,-12.619141 1.95915,-5.684412 2.26374,-6.615297 4.18945,-12.029296 0.26967,-0.7582 0.51165,-1.526063 0.82422,-2.267578 0.30905,-0.732976 0.6664,-1.447724 1.03906,-2.150391 0.18992,-0.357925 0.50217,-0.649505 0.64844,-1.027344 0.47675,-1.230554 0.80548,-2.513057 1.20898,-3.769531 0.49117,-1.674562 0.93464,-3.184959 1.39453,-4.779297 -0.0551,-0.04801 -0.0932,-0.08788 -0.15429,-0.138672 0.37291,-1.499414 0.57235,-1.661374 2.05859,-0.994141 10e-4,2.87e-4 0.003,0.0017 0.004,0.002 0.32308,0.06635 0.63902,0.151191 0.93555,0.291015 0.23205,0.109501 0.35025,0.395901 0.42773,0.640625 0.18784,0.591731 0.23679,1.218763 0.35547,1.828125 0.0291,0.420386 0.0765,0.840453 0.0879,1.261719 0.13682,0.862987 -0.0778,1.715499 -0.0742,2.574219 0.0136,3.179437 0.12552,4.712074 0.1875,7.839843 0.009,0.463478 0.0129,0.927083 0.0195,1.390626 0.55447,-1.631873 1.2132,-3.633406 1.43555,-4.480469 0.29004,-1.104941 0.49658,-2.230505 0.74414,-3.345703 0.35191,-2.198884 0.28725,-1.931167 0.75976,-4.28125 0.0347,-0.172313 0.0718,-0.34431 0.11133,-0.515625 10e-4,-0.09615 -0.001,-0.07717 0,-0.207032 -1.5e-4,-0.378039 -0.0123,-0.585197 0.006,-0.701171 -0.0199,-0.0116 -0.0366,-0.01724 -0.0566,-0.0293 -0.15345,-0.09227 -0.1577,-0.511409 0.0195,-0.53711 0.82513,-0.119125 1.67797,0.0029 2.4961,0.166016 -0.0112,-0.01531 -0.0122,-0.04477 -0.0274,-0.05078 -2.03391,-0.812315 -2.73548,-0.05568 -1.8457,-0.833985 1.19645,-0.391071 1.15498,-0.65665 2.13476,1.107422 0.13115,0.236081 -0.0359,0.538609 -0.082,0.804688 -0.0308,0.178366 -0.0749,0.354735 -0.11523,0.53125 -0.003,0.580844 0.01,0.609303 0.11133,2.880859 0.0385,0.862239 0.0372,1.726925 0.12109,2.585938 0.0652,0.667709 0.16499,1.332384 0.26758,1.996093 0.26922,-0.843803 0.42852,-1.360422 0.96484,-3.035156 0.53979,-1.40283 1.04815,-2.818124 1.60742,-4.212891 z m 74.97265,108.025391 c -0.0442,0.150417 -0.0886,0.300739 -0.13281,0.451172 -0.38861,1.13804 -0.75422,2.284699 -1.15625,3.417968 0.62199,0.018 1.23438,0.639364 1.23438,1.871094 0,0.4209 -0.0189,0.841262 0,1.261719 0.0885,1.939769 0.0885,0.815936 0.23828,2.199219 -0.005,-0.315751 -0.007,-0.631493 -0.0137,-0.947266 -0.0767,-3.880872 -0.16848,-4.01324 -0.1836,-8.068359 -2.5e-4,-0.06198 0.0115,-0.12363 0.0137,-0.185547 z m 14.36914,1.076172 c -0.27191,0.555109 -0.56081,1.1529 -0.88867,1.892578 -1.57913,3.562694 -2.53285,5.844776 -3.39648,7.976562 0.13845,0.596778 0.27484,1.198055 0.4082,1.792969 0.0331,0.129136 0.0615,0.259362 0.0937,0.388672 0.56904,-1.201576 1.13388,-2.406878 1.69727,-3.609375 1.09046,-2.327472 2.20516,-4.644237 3.28515,-6.976562 z m 2.97266,3.628906 c -0.78741,1.674294 -1.64831,3.485533 -2.77148,5.882812 -0.92357,1.971272 -1.84643,3.942723 -2.76953,5.914063 l 3.02929,-2.478516 c 0.91351,-2.920171 1.8717,-5.860898 2.85938,-8.892578 z m -10.87109,1.445312 c -0.45027,1.595987 -1.71217,5.315884 -2.11133,6.367188 -1.21168,3.191361 -0.24238,-0.582053 -1.59961,3.933594 -5.9e-4,0.002 -10e-4,0.0039 -0.002,0.0059 -0.004,2.104167 -0.006,4.208336 -0.0137,6.3125 0.52775,-1.37333 1.05855,-2.744774 1.57813,-4.121094 1.0414,-2.653133 1.53473,-3.911458 2.14844,-5.478515 0.0389,-0.153653 0.0766,-0.307264 0.11523,-0.460938 0.30797,-1.224363 0.49471,-1.965157 0.69336,-2.746094 -0.14369,-0.639878 -0.29025,-1.279126 -0.42969,-1.919921 -0.13671,-0.629118 -0.27415,-1.257339 -0.3789,-1.892579 z m 2.05078,9.240235 c -0.17791,0.733584 -0.34751,1.468654 -0.48438,2.210937 -0.0878,0.475947 -0.15548,0.955434 -0.23047,1.433594 0.33775,-0.732624 0.68692,-1.458909 1.0293,-2.189453 -0.10079,-0.485878 -0.20576,-0.970902 -0.31445,-1.455078 z"
             clip-path="url(#clipPath2429)" />
        </g>
      </g>
      <g
         id="g596"
         clip-path="url(#clipPath1923)"
         transform="translate(58.429747,5.1404738)"
         style="fill:#fa4d68;fill-opacity:1">
        <g
           id="g594"
           transform="matrix(0.47184899,-0.38639682,0.38639682,0.47184899,91.360085,-34.9056)"
           style="fill:#fa4d68;fill-opacity:1">
          <rect
             style="fill:#fa4d68;fill-opacity:1;fill-rule:evenodd;stroke-width:0.264583"
             id="rect590"
             width="175.38094"
             height="65.767853"
             x="-232.07738"
             y="140.60715"
             ry="32.883926" />
          <path
             id="path592"
             style="fill:#fa4d68;fill-opacity:1;fill-rule:evenodd;stroke-width:0.510377"
             transform="matrix(0.33565103,0.27486441,-0.27486441,0.33565103,-152.16156,-50.628793)"
             d="M 754.92383,-48.105469 296.55469,327.25195 392.42773,444.32812 830.10547,85.914062 c 0.003,-1.216157 0.006,-2.432281 0.01,-3.648437 -0.1818,0.06492 -0.36795,0.113324 -0.56054,0.121094 -0.7265,0.02938 -0.98877,-1.295117 -0.91016,-1.753907 0.0503,-0.396969 -0.15922,-1.231652 -0.20117,-1.560546 -0.24616,-1.923527 -0.38109,-3.861201 -0.58594,-5.789063 -0.0752,-0.878483 -0.16117,-1.755505 -0.22656,-2.634765 -0.028,-0.381734 0.0879,-0.770361 -0.0508,-1.148438 -0.17575,-1.635133 -0.16698,-0.399692 -0.26563,-2.578125 -0.008,-0.183547 -10e-4,-0.367222 0,-0.550781 -0.16657,0.333086 -0.32599,0.67053 -0.4707,1.013672 -0.30954,0.733753 -0.54957,1.49577 -0.81641,2.246093 -1.92075,5.399951 -2.22142,6.323867 -4.17578,11.994141 -0.96873,2.873208 -2.88493,7.531955 -3.12304,11.056641 -0.0189,0.251966 0,0.505264 0,0.757812 h 0.004 c 0,2.500003 -2.54429,2.499927 -2.52539,0 0.0335,-4.354594 1.90911,-8.611008 3.25391,-12.619141 1.95915,-5.684412 2.26374,-6.615297 4.18945,-12.029296 0.26967,-0.7582 0.51165,-1.526063 0.82422,-2.267578 0.30905,-0.732976 0.6664,-1.447724 1.03906,-2.150391 0.18992,-0.357925 0.50217,-0.649505 0.64844,-1.027344 0.47675,-1.230554 0.80548,-2.513057 1.20898,-3.769531 0.49117,-1.674562 0.93464,-3.184959 1.39453,-4.779297 -0.0551,-0.04801 -0.0932,-0.08788 -0.15429,-0.138672 0.37291,-1.499414 0.57235,-1.661374 2.05859,-0.994141 10e-4,2.87e-4 0.003,0.0017 0.004,0.002 0.32308,0.06635 0.63902,0.151191 0.93555,0.291015 0.23205,0.109501 0.35025,0.395901 0.42773,0.640625 0.18784,0.591731 0.23679,1.218763 0.35547,1.828125 0.0291,0.420386 0.0765,0.840453 0.0879,1.261719 0.13682,0.862987 -0.0778,1.715499 -0.0742,2.574219 0.0136,3.179437 0.12552,4.712074 0.1875,7.839843 0.009,0.463478 0.0129,0.927083 0.0195,1.390626 0.55447,-1.631873 1.2132,-3.633406 1.43555,-4.480469 0.29004,-1.104941 0.49658,-2.230505 0.74414,-3.345703 0.35191,-2.198884 0.28725,-1.931167 0.75976,-4.28125 0.0347,-0.172313 0.0718,-0.34431 0.11133,-0.515625 10e-4,-0.09615 -0.001,-0.07717 0,-0.207032 -1.5e-4,-0.378039 -0.0123,-0.585197 0.006,-0.701171 -0.0199,-0.0116 -0.0366,-0.01724 -0.0566,-0.0293 -0.15345,-0.09227 -0.1577,-0.511409 0.0195,-0.53711 0.82513,-0.119125 1.67797,0.0029 2.4961,0.166016 -0.0112,-0.01531 -0.0122,-0.04477 -0.0274,-0.05078 -2.03391,-0.812315 -2.73548,-0.05568 -1.8457,-0.833985 1.19645,-0.391071 1.15498,-0.65665 2.13476,1.107422 0.13115,0.236081 -0.0359,0.538609 -0.082,0.804688 -0.0308,0.178366 -0.0749,0.354735 -0.11523,0.53125 -0.003,0.580844 0.01,0.609303 0.11133,2.880859 0.0385,0.862239 0.0372,1.726925 0.12109,2.585938 0.0652,0.667709 0.16499,1.332384 0.26758,1.996093 0.26922,-0.843803 0.42852,-1.360422 0.96484,-3.035156 0.53979,-1.40283 1.04815,-2.818124 1.60742,-4.212891 z m 74.97265,108.025391 c -0.0442,0.150417 -0.0886,0.300739 -0.13281,0.451172 -0.38861,1.13804 -0.75422,2.284699 -1.15625,3.417968 0.62199,0.018 1.23438,0.639364 1.23438,1.871094 0,0.4209 -0.0189,0.841262 0,1.261719 0.0885,1.939769 0.0885,0.815936 0.23828,2.199219 -0.005,-0.315751 -0.007,-0.631493 -0.0137,-0.947266 -0.0767,-3.880872 -0.16848,-4.01324 -0.1836,-8.068359 -2.5e-4,-0.06198 0.0115,-0.12363 0.0137,-0.185547 z m 14.36914,1.076172 c -0.27191,0.555109 -0.56081,1.1529 -0.88867,1.892578 -1.57913,3.562694 -2.53285,5.844776 -3.39648,7.976562 0.13845,0.596778 0.27484,1.198055 0.4082,1.792969 0.0331,0.129136 0.0615,0.259362 0.0937,0.388672 0.56904,-1.201576 1.13388,-2.406878 1.69727,-3.609375 1.09046,-2.327472 2.20516,-4.644237 3.28515,-6.976562 z m 2.97266,3.628906 c -0.78741,1.674294 -1.64831,3.485533 -2.77148,5.882812 -0.92357,1.971272 -1.84643,3.942723 -2.76953,5.914063 l 3.02929,-2.478516 c 0.91351,-2.920171 1.8717,-5.860898 2.85938,-8.892578 z m -10.87109,1.445312 c -0.45027,1.595987 -1.71217,5.315884 -2.11133,6.367188 -1.21168,3.191361 -0.24238,-0.582053 -1.59961,3.933594 -5.9e-4,0.002 -10e-4,0.0039 -0.002,0.0059 -0.004,2.104167 -0.006,4.208336 -0.0137,6.3125 0.52775,-1.37333 1.05855,-2.744774 1.57813,-4.121094 1.0414,-2.653133 1.53473,-3.911458 2.14844,-5.478515 0.0389,-0.153653 0.0766,-0.307264 0.11523,-0.460938 0.30797,-1.224363 0.49471,-1.965157 0.69336,-2.746094 -0.14369,-0.639878 -0.29025,-1.279126 -0.42969,-1.919921 -0.13671,-0.629118 -0.27415,-1.257339 -0.3789,-1.892579 z m 2.05078,9.240235 c -0.17791,0.733584 -0.34751,1.468654 -0.48438,2.210937 -0.0878,0.475947 -0.15548,0.955434 -0.23047,1.433594 0.33775,-0.732624 0.68692,-1.458909 1.0293,-2.189453 -0.10079,-0.485878 -0.20576,-0.970902 -0.31445,-1.455078 z"
             clip-path="url(#clipPath2439)" />
        </g>
      </g>
      <path
         style="fill-rule:evenodd;stroke-width:1.42857;fill:none"
         d="m 402.48357,599.27977 c -15.60265,-3.53446 -26.56394,-9.64026 -37.88015,-21.1005 -10.87309,-11.01147 -16.4671,-20.67946 -20.15268,-34.8293 -5.52627,-21.21676 -0.10985,-46.01935 13.96426,-63.9453 4.92706,-6.27547 3.35322,-5.05693 -47.4355,36.72678 -31.0961,25.58266 -42.61231,30.97717 -66.13008,30.97717 -62.93732,0 -97.56768,-76.46028 -55.71426,-123.01137 3.69006,-4.10423 30.82167,-27.22188 60.29247,-51.37255 29.47081,-24.15069 73.83557,-60.52626 98.58837,-80.83463 24.75279,-20.30837 47.8931,-39.1743 51.4229,-41.9243 3.5298,-2.75 72.5578,-59.16072 153.39557,-125.35715 L 699.81225,4.251481 h 45.51222 45.51225 l 0.37281,59.236191 0.37282,59.236188 39.12471,-32.09333 39.1247,-32.093335 h 46.23244 46.23243 l -0.0296,58.928575 -0.0296,58.92857 -150.3275,123.13168 C 729.22986,367.24845 640.94787,439.56988 615.72782,460.24031 512.3251,544.98945 463.2599,584.7579 456.43517,589.35061 c -14.30077,9.6237 -36.92188,13.78687 -53.95147,9.92916 z"
         id="path598"
         transform="scale(0.26458333)"
         clip-path="url(#clipPath2417)" />
    </g>
  </g>
</svg>
