<svg xmlns="http://www.w3.org/2000/svg" width="746.35" height="699.069" viewBox="0 0 746.35 699.069"><defs><style>.a{fill:#ec615b;}.b{fill:#0098ff;}.c{fill:#fa4d68;}.d{fill:#5222d0;}.e{fill:#e8e8e8;}.f{fill:#fff;}.f,.h,.i,.t{stroke:#161616;stroke-miterlimit:10;}.f,.i{stroke-width:2px;}.g,.i,.t{fill:#161616;}.h{fill:none;stroke-width:6px;}.j,.k,.l,.m,.n,.o,.p,.q,.r,.s,.u{fill:#6d6c6c;}.j{opacity:0.26;}.k{opacity:0.23;}.l{opacity:0.29;}.n{opacity:0.24;}.o{opacity:0.14;}.p{opacity:0.17;}.q{opacity:0.13;}.r{opacity:0.16;}.s{opacity:0.12;}.u{opacity:0.19;}.v,.w{fill:#341999;}.v{opacity:0.54;}.w{opacity:0.35;}</style></defs><g transform="translate(-230.1 -40.675)"><g transform="translate(362.784 90.612)"><path class="a" d="M919.431,125.813c-15.674,9.276-20.152,25.27-22.007,31.86-.448,1.6-5.694,21.24,3.391,41.712,2.687,6.078,5.566,12.347,12.091,15.354,3.775,1.791,7.165,1.663,20.472.512,6.206-.512,12.923-1.152,20.088-1.919a79.193,79.193,0,0,0,16.314-37.553c.448-3.391,5.694-43.823-16.314-54.571C939.072,114.106,921.734,124.406,919.431,125.813Z" transform="translate(-602.498 -118.733)"/><ellipse class="a" cx="14.458" cy="15.994" rx="14.458" ry="15.994" transform="translate(13.051 70.48)"/><ellipse class="a" cx="10.748" cy="10.364" rx="10.748" ry="10.364" transform="translate(344.634 338.024)"/><circle class="a" cx="7.997" cy="7.997" r="7.997" transform="translate(19.64 280.19)"/><ellipse class="b" cx="12.731" cy="13.371" rx="12.731" ry="13.371" transform="translate(0 70.416)"/><ellipse class="b" cx="7.869" cy="8.189" rx="7.869" ry="8.189" transform="translate(344.57 325.996)"/><ellipse class="c" cx="8.637" cy="9.212" rx="8.637" ry="9.212" transform="translate(448.978 98.117)"/><g transform="translate(262.941 172.505)"><path class="a" d="M855.6,389.351c-1.407-2.239-3.711-.128-4.67,1.407-1.983,3.2-3.263,7.165-1.791,10.812,1.088,2.751,3.775,5.054,6.909,4.606a5.614,5.614,0,0,0,4.99-5.63,1,1,0,0,0-1.663-.7c-3.391,4.286-7.549,10.364-4.158,15.866,2.367,3.775,8.189,4.286,10.492.192a16.082,16.082,0,0,1-1.727-.256c.32,1.791.64,3.583.9,5.374.192,1.216,2.047.7,1.855-.512-.32-1.791-.64-3.583-.9-5.374a.963.963,0,0,0-1.727-.256,3.989,3.989,0,0,1-5.182,1.535,6,6,0,0,1-2.943-5.566c0-3.711,2.623-6.973,4.8-9.724-.576-.256-1.088-.448-1.663-.7a3.823,3.823,0,0,1-4.67,3.711,5.3,5.3,0,0,1-3.583-3.583,7.991,7.991,0,0,1-.064-5.182c.064-.128,2.687-5.822,3.071-5.182.7,1.152,2.367.192,1.727-.832Z" transform="translate(-848.505 -388.376)"/></g><g transform="translate(6.857 175.162)"><path class="a" d="M450.19,396.605c1.407-3.839,6.078-2.175,7.549.512a7.874,7.874,0,0,1,.9,2.943c.256,1.919.064,2.687-1.6,3.839-1.791,1.791-2.239,1.088-1.28-2.111.448-.192.96-.384,1.407-.576a7.122,7.122,0,0,1,3.839.128,6.574,6.574,0,0,1,4.158,7.293.982.982,0,0,0,1.407,1.088,7.359,7.359,0,0,1,10.62,4.926c.256,1.216,2.111.7,1.855-.512a9.261,9.261,0,0,0-13.435-6.014c.448.384.96.7,1.407,1.088.832-5.63-3.455-10.876-9.4-9.98-2.047.32-5.118,1.6-5.374,4.03-.192,1.983,1.663,3.455,3.519,3.647,5.5.512,5.374-7.485,3.583-10.684-2.431-4.35-9.148-5.438-11.068-.064-.384,1.088,1.471,1.6,1.919.448Z" transform="translate(-448.219 -392.53)"/></g><g transform="translate(345.222 418.242)"><path class="d" d="M977.555,774.288a45.361,45.361,0,0,1,12.411,12.283c.7,1.024,2.367.064,1.663-.96a48.24,48.24,0,0,0-13.051-12.923c-1.088-.768-2.047.9-1.024,1.6Z" transform="translate(-977.119 -772.49)"/></g><g transform="translate(357.904 421.893)"><path class="d" d="M997.171,779.862c1.024,1.216,1.983,2.495,3.007,3.71.768.96,2.111-.384,1.344-1.344-1.024-1.216-1.983-2.495-3.007-3.711-.768-.96-2.111.448-1.344,1.344Z" transform="translate(-996.942 -778.197)"/></g><g transform="translate(351.952 404.014)"><path class="d" d="M987.934,751.882a52.874,52.874,0,0,1,10.876,14.075c.576,1.088,2.239.128,1.663-.96a53.508,53.508,0,0,0-11.2-14.458c-.9-.9-2.239.512-1.344,1.343Z" transform="translate(-987.638 -750.25)"/></g></g><g transform="translate(230.1 96.859)"><g transform="translate(42.601 470.523)"><path class="e" d="M296.7,864.887a289.868,289.868,0,0,0,7.229,41.136.962.962,0,0,0,1.855-.512,291.9,291.9,0,0,1-7.165-40.624c-.128-1.215-2.047-1.215-1.919,0Z" transform="translate(-296.69 -863.975)"/></g><g transform="translate(49.571 511.319)"><path class="e" d="M308.235,929.634a76.237,76.237,0,0,0,38.321,0,.963.963,0,0,0-.512-1.855,73.681,73.681,0,0,1-37.3,0,.965.965,0,0,0-.512,1.855Z" transform="translate(-307.585 -927.742)"/></g><g transform="translate(88.092 469.5)"><path class="e" d="M369.718,904.167q1.247-20.44,3.2-40.88c.128-1.216-1.791-1.216-1.919,0q-1.919,20.44-3.2,40.88c-.064,1.216,1.855,1.216,1.919,0Z" transform="translate(-367.798 -862.375)"/></g><g transform="translate(43 470.131)"><path class="e" d="M298.009,865.69a114.6,114.6,0,0,0,48.237-.448c1.216-.256.7-2.111-.512-1.855a112.93,112.93,0,0,1-47.214.448c-1.216-.256-1.727,1.6-.512,1.855Z" transform="translate(-297.314 -863.362)"/></g><g transform="translate(43.489 474.323)"><path class="e" d="M298.092,872.656c.512,2.623,3.839,2.5,5.886,2.687a141.342,141.342,0,0,0,15.61.448c4.99-.128,9.98-.512,14.97-1.088,3.966-.512,7.8-1.024,11.324-3.007,1.088-.576.128-2.239-.96-1.663-6.334,3.519-15.1,3.391-22.2,3.711-3.519.128-7.1.192-10.62.128-1.855-.064-11.771.384-12.155-1.727-.256-1.216-2.047-.7-1.855.512Z" transform="translate(-298.078 -869.913)"/></g><g transform="translate(47.03 497.826)"><path class="e" d="M303.733,908.09a56.166,56.166,0,0,0,11.643,14.394c.9.832,2.3-.512,1.344-1.343A51.955,51.955,0,0,1,305.4,907.131c-.576-1.088-2.239-.128-1.663.96Z" transform="translate(-303.613 -906.652)"/></g><g transform="translate(44.511 483.089)"><path class="e" d="M299.819,885.013a153.4,153.4,0,0,0,23.543,30.2c.9.9,2.239-.512,1.344-1.343a151.817,151.817,0,0,1-23.223-29.812c-.64-1.024-2.3-.064-1.663.96Z" transform="translate(-299.675 -883.616)"/></g><g transform="translate(55.219 478.442)"><path class="e" d="M316.533,877.79a227.221,227.221,0,0,0,23.543,34.227c.768.96,2.111-.384,1.344-1.344A221.811,221.811,0,0,1,318.2,876.831c-.576-1.088-2.239-.128-1.663.96Z" transform="translate(-316.413 -876.352)"/></g><g transform="translate(67.388 478.93)"><path class="e" d="M335.6,878.513q9.884,14.778,19.96,29.428c.7,1.024,2.367.064,1.663-.96q-10.076-14.682-19.96-29.429c-.7-1.024-2.367-.064-1.663.96Z" transform="translate(-335.434 -877.116)"/></g><g transform="translate(77.65 478.355)"><path class="e" d="M351.619,877.613c3.327,5.374,6.909,10.62,10.62,15.738.7.96,2.367,0,1.663-.96-3.711-5.118-7.293-10.364-10.62-15.738-.64-1.024-2.3-.064-1.663.96Z" transform="translate(-351.475 -876.216)"/></g><g transform="translate(22.431 413.944)"><path class="e" d="M265.186,776.728c.768,4.414,1.535,8.893,2.367,13.307.256,1.216.448,2.5,1.471,3.263.7.576,3.007.512,3.455,1.152a7.048,7.048,0,0,0,.128-1.152c-.96.96-1.919,1.919-2.943,2.815a1.071,1.071,0,0,0-.256.96c.576,1.727.96,4.286,2.111,5.758.576.768,1.6.64,2.047,1.088.384.384.256.128.064,1.279a11.821,11.821,0,0,0,0,3.007,17.372,17.372,0,0,0,1.216,4.414c3.327,8.061,9.788,14.586,15.994,20.6.9.832,2.239-.512,1.343-1.343a97,97,0,0,1-11.2-12.283c-3.2-4.414-6.973-10.364-4.99-15.994a.89.89,0,0,0-.256-.96c-1.216-.96-2.431-.576-3.263-2.111-1.6-2.879-.7-3.839,1.343-5.822a.881.881,0,0,0,.128-1.152,2.671,2.671,0,0,0-1.727-1.279c-.512-.192-1.28,0-1.791-.256-1.088-.576-1.088-1.983-1.28-3.007-.768-4.222-1.535-8.509-2.239-12.731-.128-1.28-1.983-.768-1.727.448Z" transform="translate(-265.162 -775.535)"/></g><g transform="translate(23.214 412.974)"><path class="e" d="M267.034,775.926a62.423,62.423,0,0,1,42.543,57.961.961.961,0,0,0,1.919,0,64.462,64.462,0,0,0-43.951-59.817c-1.152-.384-1.663,1.471-.512,1.855Z" transform="translate(-266.385 -774.019)"/></g><g transform="translate(60.277 399.585)"><path class="e" d="M326.226,800.118c6.206-17.209,15.354-33.843,30-45.166.96-.768,0-2.431-.96-1.663-15.1,11.707-24.5,28.6-30.9,46.318-.384,1.151,1.471,1.663,1.855.512Z" transform="translate(-324.319 -753.091)"/></g><g transform="translate(90.523 400.151)"><path class="e" d="M371.6,754.887c.448,5.886.96,11.771,1.407,17.721.128,1.216,2.047,1.216,1.919,0-.448-5.886-.96-11.771-1.407-17.721-.064-1.216-1.983-1.216-1.919,0Z" transform="translate(-371.598 -753.975)"/></g><g transform="translate(89.638 418.119)"><path class="e" d="M373.34,782.086c-.832.192-1.663.384-2.431.64a.962.962,0,0,0,.512,1.855c.832-.192,1.663-.384,2.431-.64a.963.963,0,0,0-.512-1.855Z" transform="translate(-370.214 -782.061)"/></g><g transform="translate(89.341 419.303)"><path class="e" d="M369.782,785.12a2.717,2.717,0,0,0,2.431,2.111.942.942,0,0,0,.96-.96.984.984,0,0,0-.96-.96h-.064c-.064,0-.192-.064-.064,0-.064-.064-.128-.064-.192-.128-.128-.064.128.128-.064-.064l-.128-.128c.128.128,0,0,0-.064-.064-.064-.064-.192-.064-.064,0-.064-.064-.192-.064-.256a.894.894,0,0,0-1.151-.64.915.915,0,0,0-.64,1.151Z" transform="translate(-369.749 -783.912)"/></g><g transform="translate(87.892 420.998)"><path class="e" d="M370.437,787.482a86.805,86.805,0,0,1-.448,10.812c-.128,1.152.064,3.839-.7,4.734a11.756,11.756,0,0,0-1.471.448c-.96.768.384,2.111,1.344,1.344.32-.256,1.088,0,1.6-.576.768-.768.64-2.559.768-3.455a93.2,93.2,0,0,0,.768-13.371c.064-1.151-1.855-1.151-1.855.064Z" transform="translate(-367.484 -786.562)"/></g><g transform="translate(78.748 437.937)"><path class="e" d="M361.9,814.677c2.047,2.431,1.471,6.461,1.279,9.4a21.939,21.939,0,0,1-2.495,9.468c-2.367,4.35-5.694,8-7.421,12.731-.448,1.152,1.407,1.663,1.855.512,2.3-6.206,7.613-10.812,9.212-17.337,1.151-4.67,2.239-12.155-1.088-16.122-.768-.9-2.111.448-1.344,1.344Z" transform="translate(-353.192 -813.038)"/></g><g transform="translate(70.43 418.213)"><path class="e" d="M342.116,836.07a161.864,161.864,0,0,1,14.266-52.4c.512-1.088-1.152-2.111-1.663-.96A164.889,164.889,0,0,0,340.2,836.134c-.128,1.216,1.791,1.152,1.919-.064Z" transform="translate(-340.19 -782.208)"/></g><g transform="translate(34.381 423.891)"><path class="e" d="M284.071,792.758a133.893,133.893,0,0,1,24.183,47.533.962.962,0,0,0,1.855-.512,136.623,136.623,0,0,0-24.694-48.365c-.768-.96-2.111.384-1.343,1.344Z" transform="translate(-283.842 -791.084)"/></g><g transform="translate(34.866 447.208)"><path class="e" d="M285.56,829.494a24.911,24.911,0,0,1,14.906,3.775c1.024.64,2.047-1.024.96-1.663a27.159,27.159,0,0,0-15.866-4.03c-1.28.064-1.28,1.983,0,1.919Z" transform="translate(-284.6 -827.53)"/></g><g transform="translate(45.483 429.202)"><path class="e" d="M303.245,810.782a20.809,20.809,0,0,1,1.407-10.236c.448-1.151-1.407-1.663-1.855-.512a22.018,22.018,0,0,0-1.471,10.748c.128,1.215,2.047,1.215,1.919,0Z" transform="translate(-301.195 -799.385)"/></g><g transform="translate(68.192 428.818)"><path class="e" d="M336.761,799.946c2.111,5.182,5.182,10.684,5.95,16.186.192,1.216,2.047.7,1.855-.512-.832-5.566-3.9-11.068-5.95-16.186-.448-1.152-2.3-.64-1.855.512Z" transform="translate(-336.692 -798.785)"/></g><g transform="translate(78.428 424.083)"><path class="e" d="M354.3,803.358c1.855-2.111,3.647-4.606,6.014-6.206,1.983-1.344,4.158-2.239,5.694-4.094.768-.96-.576-2.3-1.343-1.344-1.663,1.983-4.094,2.815-6.078,4.35a41.315,41.315,0,0,0-5.63,5.95c-.832.96.512,2.3,1.343,1.344Z" transform="translate(-352.691 -791.384)"/></g><g transform="translate(79.493 468.503)"><path class="e" d="M355.536,863.749a29.078,29.078,0,0,1,9.4-.96c1.216.064,1.216-1.855,0-1.919a30.458,30.458,0,0,0-9.916,1.024.963.963,0,0,0,.512,1.855Z" transform="translate(-354.357 -860.816)"/></g><g transform="translate(79.505 469.08)"><path class="e" d="M355.287,864.841a26.584,26.584,0,0,0,10.492-1.216c1.152-.384.64-2.239-.512-1.855a26.41,26.41,0,0,1-9.98,1.152c-1.216-.064-1.216,1.855,0,1.919Z" transform="translate(-354.375 -861.719)"/></g><g transform="translate(43.615 469.964)"><path class="e" d="M299.187,865.019h2.431a.961.961,0,0,0,0-1.919h-2.431a.961.961,0,0,0,0,1.919Z" transform="translate(-298.275 -863.1)"/></g><g transform="translate(90.509 485.446)"><path class="e" d="M372.487,889.219h60.9a.961.961,0,0,0,0-1.919h-60.9a.961.961,0,0,0,0,1.919Z" transform="translate(-371.575 -887.3)"/></g><g transform="translate(433.799 472.779)"><path class="e" d="M909.087,869.419H945.3a.961.961,0,0,0,0-1.919h-36.21a.961.961,0,0,0,0,1.919Z" transform="translate(-908.175 -867.5)"/></g><g transform="translate(543.581 473.93)"><path class="e" d="M1080.687,871.219h200.946a.961.961,0,0,0,0-1.919H1080.687a.961.961,0,0,0,0,1.919Z" transform="translate(-1079.775 -869.3)"/></g><g transform="translate(451.491 265.312)"><path class="e" d="M951.612,543.715q-7.293,15.066-15.674,29.557c-.256.512-.064,1.343.576,1.407,27.445,4.158,52.012,17.785,75.683,31.54a.96.96,0,0,0,.96-1.663c-23.863-13.819-48.557-27.509-76.194-31.732.192.448.384.96.576,1.407,5.63-9.66,10.812-19.512,15.674-29.557.576-1.088-1.024-2.111-1.6-.96Z" transform="translate(-935.829 -543.208)"/></g><g transform="translate(469.59 271.793)"><path class="e" d="M966.026,582.23c1.919-5.5,3.839-11.068,5.758-16.57a71.946,71.946,0,0,1,2.495-7.1,4.634,4.634,0,0,1,2.367-3.135l2.3.576c1.151.32,2.3.576,3.391.9,2.623.64,6.845.64,6.4,4.158-.32,2.5-1.791,5.182-2.623,7.613-1.919,5.438-3.775,10.876-5.694,16.314-.384,1.152,1.471,1.663,1.855.512,2.495-7.165,4.99-14.394,7.485-21.56.576-1.663,2.175-4.478.9-6.27-1.407-1.919-5.63-2.047-7.8-2.623-2.111-.512-5.822-2.431-8-1.407-1.855.832-2.239,4.03-2.815,5.63-2.623,7.485-5.246,15.034-7.869,22.519-.384,1.088,1.471,1.6,1.855.448Z" transform="translate(-964.119 -553.337)"/></g><g transform="translate(494.388 258.452)"><path class="e" d="M1004.685,581.563c4.094-8.637,8.253-17.337,12.347-25.974,2.047-4.35,4.094-8.637,6.206-12.987a55.016,55.016,0,0,1,2.943-6.206c1.024-1.6,1.279-1.983,3.071-1.279a17.881,17.881,0,0,1,2.943,1.919c1.087.768,2.815,1.6,3.583,2.623.96,1.216.576,2.5,0,4.03-.768,2.047-1.919,4.03-2.879,6.014-2.111,4.35-4.222,8.7-6.461,13.051-4.222,8.253-8.637,16.442-13.179,24.566a.96.96,0,0,0,1.663.96q8.349-14.778,15.866-29.94c2.495-4.99,5.246-10.108,7.357-15.29,1.472-3.775-1.727-5.31-4.542-7.293-2.239-1.535-5.758-5.054-8.189-2.175-1.535,1.791-2.367,4.8-3.391,6.973-1.28,2.623-2.5,5.246-3.775,7.933q-7.677,16.122-15.29,32.244c-.448.96,1.216,1.983,1.727.832Z" transform="translate(-1002.882 -532.484)"/></g><g transform="translate(515.661 294.724)"><path class="e" d="M1037.9,615.3a181.356,181.356,0,0,1,18.553-24.375,7.042,7.042,0,0,1-1.151.128c2.431,1.663,4.8,3.263,7.229,4.926a10.23,10.23,0,0,1-.32-1.343c-5.438,8.509-10.876,16.953-16.314,25.462-.64,1.024.96,1.983,1.663.96,5.438-8.509,10.876-16.953,16.314-25.462a1.024,1.024,0,0,0-.32-1.343c-2.431-1.663-4.8-3.263-7.229-4.926a.965.965,0,0,0-1.152.128,186.02,186.02,0,0,0-18.873,24.758.968.968,0,1,0,1.6,1.087Z" transform="translate(-1036.134 -589.182)"/></g><g transform="translate(582.307 231.99)"><path class="e" d="M1151.755,519.129a14.284,14.284,0,0,1-9.276-15.674c1.152-6.973,8-13.179,15.034-9.021a12.855,12.855,0,0,1,5.5,14.714c-1.919,5.694-8.189,9.084-14.011,8.189-1.216-.192-1.727,1.663-.512,1.855,6.845,1.024,14.075-2.751,16.378-9.532a14.705,14.705,0,0,0-8.061-17.721c-7.8-3.2-14.906,3.519-16.25,11-1.407,7.933,3.263,15.226,10.62,18.041,1.216.448,1.727-1.407.576-1.855Z" transform="translate(-1140.309 -491.122)"/></g><g transform="translate(597.181 236.778)"><path class="e" d="M1173.245,520.61c-12.731-.384-7.933-20.792,3.327-20.024,11.26.832,6.653,23.8-5.694,19.576-1.151-.384-1.663,1.471-.512,1.855,14.267,4.862,20.664-21.112,7.037-23.287-6.653-1.088-12.667,5.182-13.691,11.388-1.024,6.142,3.135,12.155,9.532,12.347,1.215.128,1.215-1.791,0-1.855Z" transform="translate(-1163.558 -498.607)"/></g><g transform="translate(594.196 193.05)"><path class="e" d="M1162.032,438.088a3.821,3.821,0,0,1-.768-4.414,2.973,2.973,0,0,1,4.158-.96,2.557,2.557,0,0,1,.32,3.775c-1.28,1.152-3.327.576-4.542-.384-.96-.768-2.3.576-1.343,1.343,1.983,1.535,5.054,2.3,7.165.448a4.493,4.493,0,0,0-.192-6.589,4.919,4.919,0,0,0-6.781.7c-1.855,2.175-1.344,5.438.576,7.421a.974.974,0,0,0,1.407-1.343Z" transform="translate(-1158.892 -430.254)"/></g><g transform="translate(409.603 141.73)"><path class="e" d="M872.43,457.363c-1.791-10.876,4.542-23.991,16.826-23.863,6.27.064,12.347,2.623,18.681,1.727a16.976,16.976,0,0,0,11-6.717,22.681,22.681,0,0,0,4.478-12.347c.32-6.525-2.175-13.179-.384-19.64.9-3.263,2.815-6.27,6.078-7.485,3.135-1.088,6.526-.448,9.788-.576a12.255,12.255,0,0,0,10.812-6.4c3.327-5.822,2.559-12.8,4.862-18.937,2.751-7.421,10.492-13.755,18.681-10.108,1.088.512,2.111-1.152.96-1.663-11.132-4.99-20.408,5.054-22.583,15.162-1.408,6.589-1.152,16.825-9.021,19.448-5.5,1.855-11.707-1.024-16.761,2.751-4.158,3.071-5.374,8.7-5.31,13.627.192,7.229,2.431,14.266-.768,21.176-2.943,6.525-8.765,10.428-15.994,9.98-6.4-.384-12.731-3.007-19.193-1.344-10.94,2.751-15.61,15.674-13.883,25.782.128,1.088,1.983.576,1.727-.576Z" transform="translate(-870.353 -350.035)"/></g><g transform="translate(489.92 145.721)"><path class="e" d="M998.522,414c-2.367-5.374.9-10.492,6.078-12.219,3.774-1.279,7.933-1.344,11.2-3.9,2.559-1.983,3.391-4.478,3.071-7.677-.32-3.007-.32-5.374,2.047-7.421a11.608,11.608,0,0,1,7.165-2.5c7.037-.256,16.7,3.327,21.816-3.519,2.367-3.2,1.663-7.165,2.751-10.748a11.142,11.142,0,0,1,11.388-7.8c1.216.064,1.216-1.855,0-1.919a13.371,13.371,0,0,0-10.364,4.094c-3.327,3.519-2.879,7.485-3.9,11.9-2.751,12.091-19.576,3.583-27.509,7.357-2.943,1.407-5.31,3.9-5.566,7.229-.32,3.9,1.471,7.1-2.5,9.788-2.111,1.407-4.542,1.855-6.973,2.431-4.03.96-8,2.175-10.044,6.078a10.845,10.845,0,0,0-.256,9.724c.448,1.216,2.047.192,1.6-.9Z" transform="translate(-995.897 -356.274)"/></g><g transform="translate(603.977 91.507)"><path class="e" d="M1176.752,298.253a15.921,15.921,0,0,1-.7-1.855c.832-.96,1.6-1.919,2.431-2.879.256-.064,1.407.7,1.791.7a3.355,3.355,0,0,0,2.559-.7c2.367-1.855,1.535-4.8,2.239-7.293,1.152-4.286,6.206-1.344,8.509-4.542,2.3-3.135,1.471-9.788,7.613-8a.963.963,0,0,0,.512-1.855,6.329,6.329,0,0,0-8,4.03c-.384.96-.512,2.047-.9,3.007-.832,2.239-1.727,2.559-4.158,2.687-1.791.128-3.2,0-4.414,1.535-1.024,1.343-1.024,3.071-1.216,4.67-.192,2.367,0,4.35-3.519,4.094-.7-.064-1.279-.7-2.047-.7-4.222-.064-3.519,5.118-2.495,7.613.384,1.152,2.3.64,1.791-.512Z" transform="translate(-1174.18 -271.532)"/></g><g transform="translate(615.208 97.189)"><g transform="translate(0 0)"><path class="e" d="M1195.1,306.763c-1.024-1.343-2.751-5.246.256-6.27,1.088-.384,2.495.064,3.647.064a3.822,3.822,0,0,0,2.751-.7c2.559-2.047.7-5.694,2.047-8.253,2.175-4.158,6.525-.9,9.6-3.071,2.175-1.535,2.751-4.478,3.135-6.909.192-1.216-1.663-1.727-1.855-.512-.448,2.879-.96,6.078-4.542,6.4-1.855.192-3.263-.448-4.99.384-2.815,1.343-3.711,3.839-3.775,6.717-.064,2.431.512,3.647-3.583,3.839-.512,0-1.024-.128-1.535-.128a4.8,4.8,0,0,0-3.583,2.111c-1.791,2.559-.768,5.5,1.024,7.741.832.96,2.175-.448,1.408-1.408Z" transform="translate(-1191.737 -280.414)"/></g></g><g transform="translate(72.99 145.455)"><path class="e" d="M345.86,368.616c5.31-6.4,12.859-11.643,21.56-10.748,9.468.96,14.138,8.509,15.034,17.337,1.535,14.65-2.047,32.179,7.869,44.655,3.9,4.926,9.724,7.549,15.994,6.014,7.549-1.791,13.435-7.741,20.152-11.26,7.933-4.158,18.873-6.4,26.038.576,5.246,5.118,6.4,12.923,8.125,19.7,1.6,6.142,4.35,12.923,9.852,16.57,3.327,2.175,6.973,2.367,10.812,2.111,4.286-.32,13.051-.576,12.155,6.142-.128,1.216,1.791,1.216,1.919,0a6.552,6.552,0,0,0-3.007-6.27c-3.327-2.431-7.165-2.047-11.068-1.791-4.414.32-8.189-.064-11.579-3.2-3.071-2.815-4.926-6.781-6.27-10.684-2.239-6.717-2.879-14.075-6.717-20.216-3.775-6.078-10.3-9.02-17.337-8.765-8.893.32-16.378,5.438-23.479,10.172-3.391,2.239-7.037,4.606-11.2,5.31-4.99.832-9.4-1.343-12.6-5.054-6.014-7.037-6.973-17.081-7.293-25.91-.32-8.253.768-17.209-1.983-25.206A17.88,17.88,0,0,0,366.4,355.885c-8.829-.448-16.57,4.862-22.007,11.388-.7.96.64,2.3,1.471,1.344Z" transform="translate(-344.192 -355.859)"/></g><g transform="translate(42.208 255.488)"><path class="e" d="M296.219,529.29a474.01,474.01,0,0,1,26.742,51.564c.512,1.151,2.175.128,1.663-.96a485.621,485.621,0,0,0-26.742-51.564.96.96,0,0,0-1.663.96Z" transform="translate(-296.075 -527.852)"/></g><g transform="translate(42.129 227.506)"><path class="e" d="M297.39,512.766c15.546-9.66,31.54-18.681,47.981-26.87,1.088-.576.128-2.239-.96-1.663-16.378,8.189-32.371,17.209-47.981,26.87-1.088.7-.128,2.367.96,1.663Z" transform="translate(-295.952 -484.113)"/></g><g transform="translate(90.297 226.978)"><path class="e" d="M371.344,484.767q12.187,25.622,25.782,50.476c.576,1.088,2.239.128,1.663-.96-9.084-16.57-17.721-33.4-25.782-50.476-.576-1.152-2.175-.192-1.663.96Z" transform="translate(-371.244 -483.287)"/></g><g transform="translate(69.871 278.662)"><path class="e" d="M340.713,594.287q22.935-13.819,45.358-28.405c1.024-.64.064-2.3-.96-1.663q-22.455,14.586-45.358,28.405c-1.024.64-.064,2.3.96,1.663Z" transform="translate(-339.316 -564.075)"/></g><g transform="translate(69.951 249.617)"><path class="e" d="M339.543,519.587a206.67,206.67,0,0,0,2.111,36.658c.192,1.215,2.047.7,1.855-.512a200.93,200.93,0,0,1-2.047-36.146c.064-1.215-1.855-1.215-1.919,0Z" transform="translate(-339.441 -518.675)"/></g><g transform="translate(69.787 248.316)"><path class="e" d="M339.514,518.214c8.893,6.973,17.785,13.819,26.806,20.6.96.768,1.919-.9.96-1.663q-13.339-9.98-26.422-20.28c-.96-.768-2.3.576-1.344,1.343Z" transform="translate(-339.184 -516.642)"/></g><g transform="translate(72.482 268.722)"><path class="e" d="M345.062,567.386c7.357-6.589,16.953-10.108,23.927-17.209.9-.9-.512-2.239-1.343-1.344-6.973,7.037-16.506,10.62-23.927,17.209-.96.768.448,2.111,1.343,1.344Z" transform="translate(-343.397 -548.538)"/></g><g transform="translate(43.472 262.204)"><path class="e" d="M299.49,543.116c2.047-1.024,4.094-1.983,6.142-3.007,1.088-.512.128-2.175-.96-1.663-2.047,1.024-4.094,1.983-6.142,3.007-1.088.576-.128,2.175.96,1.663Z" transform="translate(-298.052 -538.349)"/></g><g transform="translate(50.08 272.979)"><path class="e" d="M309.8,560.059a34.9,34.9,0,0,1,5.5-2.943c1.152-.448.64-2.3-.512-1.855a41.243,41.243,0,0,0-6.014,3.135c-.96.7,0,2.367,1.024,1.663Z" transform="translate(-308.381 -555.192)"/></g><g transform="translate(57.291 286)"><path class="e" d="M321.09,579.93c1.791-.9,3.583-1.791,5.374-2.623,1.088-.576.128-2.175-.96-1.663-1.791.9-3.583,1.791-5.374,2.623-1.088.512-.128,2.175.96,1.663Z" transform="translate(-319.652 -575.544)"/></g><g transform="translate(60.766 296.66)"><path class="e" d="M326.758,598.472a36.549,36.549,0,0,1,6.334-4.478.96.96,0,0,0-.96-1.663,40.288,40.288,0,0,0-6.717,4.8c-.96.832.384,2.175,1.344,1.343Z" transform="translate(-325.084 -592.208)"/></g><g transform="translate(92.624 237.005)"><path class="e" d="M376.3,503.016a14.481,14.481,0,0,1,4.734-2.175.963.963,0,0,0-.512-1.855,14.926,14.926,0,0,0-5.246,2.367c-.96.7,0,2.367,1.024,1.663Z" transform="translate(-374.881 -498.961)"/></g><g transform="translate(98.299 246.291)"><path class="e" d="M385.19,519.185c2.047-1.28,4.094-2.559,6.078-3.9,1.024-.64.064-2.3-.96-1.663-2.047,1.279-4.094,2.559-6.078,3.9-1.088.7-.128,2.367.96,1.663Z" transform="translate(-383.752 -513.475)"/></g><g transform="translate(104.796 260.476)"><path class="e" d="M395.374,540.288c2.175-.96,4.414-1.919,6.589-2.879,1.152-.512.128-2.175-.96-1.663-2.175.96-4.414,1.919-6.589,2.879-1.152.512-.128,2.175.96,1.663Z" transform="translate(-393.908 -535.649)"/></g><g transform="translate(109.294 267.619)"><path class="e" d="M402.577,552.882a29.3,29.3,0,0,1,5.758-4.286c1.088-.576.128-2.239-.96-1.663a30.525,30.525,0,0,0-6.142,4.542.974.974,0,0,0,1.343,1.407Z" transform="translate(-400.938 -546.813)"/></g><g transform="translate(76.536 299.01)"><path class="e" d="M349.9,597.3a38.174,38.174,0,0,1,3.966,7.485c.448,1.152,2.3.64,1.855-.512a38,38,0,0,0-4.158-8c-.7-.96-2.367,0-1.663,1.024Z" transform="translate(-349.734 -595.881)"/></g><g transform="translate(86.375 293.682)"><path class="e" d="M365.233,588.99c1.216,2.175,2.367,4.286,3.583,6.462.576,1.088,2.239.128,1.663-.96-1.216-2.175-2.367-4.286-3.583-6.461-.576-1.088-2.239-.128-1.663.96Z" transform="translate(-365.113 -587.552)"/></g><g transform="translate(97.699 285.557)"><path class="e" d="M382.933,576.29l3.839,6.909c.576,1.088,2.239.128,1.663-.96l-3.839-6.909c-.576-1.088-2.239-.128-1.663.96Z" transform="translate(-382.813 -574.852)"/></g><g transform="translate(107.893 279.479)"><path class="e" d="M398.846,566.79c1.024,2.431,2.047,4.862,3.135,7.229.512,1.151,2.111.128,1.663-.96-1.024-2.431-2.047-4.862-3.135-7.229-.512-1.088-2.175-.128-1.663.96Z" transform="translate(-398.749 -565.352)"/></g><g transform="translate(49.821 244.909)"><path class="e" d="M308.119,512.713c1.216,1.983,2.367,3.966,3.583,5.886.64,1.088,2.3.064,1.663-.96-1.216-1.983-2.367-3.967-3.583-5.886-.64-1.024-2.3-.064-1.663.96Z" transform="translate(-307.975 -511.316)"/></g><g transform="translate(60.869 238.43)"><path class="e" d="M325.344,502.667l3.455,7.677c.512,1.152,2.175.128,1.663-.96l-3.455-7.677c-.576-1.152-2.175-.192-1.663.96Z" transform="translate(-325.244 -501.187)"/></g><g transform="translate(70.714 232.398)"><path class="e" d="M340.8,493.129a26.326,26.326,0,0,1,3.966,7.485c.384,1.152,2.239.64,1.855-.512a26.134,26.134,0,0,0-4.158-7.933c-.7-.96-2.367-.064-1.663.96Z" transform="translate(-340.634 -491.76)"/></g><g transform="translate(81.398 227.444)"><path class="e" d="M357.5,485.413c1.344,2.047,2.623,4.03,3.966,6.078.64,1.024,2.3.064,1.663-.96-1.343-2.047-2.623-4.03-3.966-6.078-.7-1.024-2.367-.064-1.663.96Z" transform="translate(-357.334 -484.016)"/></g><g transform="translate(173.78 82.085)"><path class="e" d="M509.006,276.7c-6.206-1.919-6.525-8.509-3.583-13.435,2.879-4.8,8.445-6.078,12.8-2.111a9.046,9.046,0,0,1,.576,12.667c-3.327,3.711-8.765,3.647-12.6.832-.96-.768-1.919.9-.96,1.663,4.862,3.583,11.963,3.007,15.61-2.047a10.97,10.97,0,0,0-2.879-15.738c-12.795-8.253-23.8,15.546-9.468,20.024a.962.962,0,0,0,.512-1.855Z" transform="translate(-501.737 -256.804)"/></g><g transform="translate(184.447 90.976)"><path class="e" d="M525.313,283.368c-4.8,1.471-5.95-4.286-3.839-7.357a7.817,7.817,0,0,1,8.189-3.135,5.763,5.763,0,0,1,4.286,6.781c-.96,3.775-4.926,5.118-8.445,4.542-1.216-.192-1.727,1.663-.512,1.855,4.734.832,9.852-1.216,10.876-6.334.9-4.414-2.559-8.445-6.845-8.957-4.734-.576-9.916,2.879-10.556,7.741-.576,4.222,3.263,8,7.485,6.653,1.088-.32.576-2.175-.64-1.791Z" transform="translate(-518.41 -270.702)"/></g><g transform="translate(150.03 144.811)"><path class="e" d="M465.116,355.331c-1.535,3.135.64,6.27,3.839,7.1,2.431.64,4.99.064,7.485.192a21.8,21.8,0,0,1,7.8,1.855c5.374,2.431,8.829,6.845,9.021,12.8.192,4.99-1.28,10.172.9,14.906,4.606,9.98,17.273,2.367,23.8,8.829,5.438,5.438,3.2,15.354,10.492,19.512a.96.96,0,0,0,.96-1.663c-6.525-3.711-4.99-13.371-9.6-18.745-2.431-2.815-5.95-3.583-9.532-3.839-4.35-.256-9.98.64-13.179-3.071-3.711-4.35-1.727-10.876-1.919-15.994a15.351,15.351,0,0,0-4.286-10.556,20.326,20.326,0,0,0-9.148-5.118,24.817,24.817,0,0,0-5.31-.832c-2.3-.128-12.283,1.024-9.6-4.414.512-1.088-1.152-2.047-1.727-.96Z" transform="translate(-464.613 -354.852)"/></g><g transform="translate(0 488.708)"><path class="e" d="M231.06,894.319h34.675a.961.961,0,0,0,0-1.919H231.06a.96.96,0,1,0,0,1.919Z" transform="translate(-230.1 -892.4)"/></g><g transform="translate(18.681 532.083)"><path class="e" d="M260.26,962.119h66.726a.961.961,0,0,0,0-1.919H260.26a.96.96,0,1,0,0,1.919Z" transform="translate(-259.3 -960.2)"/></g><g transform="translate(82.72 520.056)"><path class="e" d="M360.36,943.319h62.056a.961.961,0,0,0,0-1.919H360.36a.96.96,0,1,0,0,1.919Z" transform="translate(-359.4 -941.4)"/></g><g transform="translate(426.626 511.814)"><path class="e" d="M898.138,935.351a79.349,79.349,0,0,1,31.54-1.151c4.478.7,9.02,1.407,13.563,1.024,4.414-.384,8.7-1.727,12.987-2.879,4.862-1.343,9.724-2.367,14.842-1.983,5.246.384,10.3,1.855,15.418,3.007a55.993,55.993,0,0,0,13.435,1.663,116.276,116.276,0,0,0,14.2-1.663c12.795-2.047,24.822-.768,37.489,1.344,1.216.192,1.727-1.663.512-1.855-10.236-1.663-20.536-3.391-30.964-2.367-10.876,1.088-20.984,3.774-31.988,1.535-9.212-1.855-17.977-4.734-27.445-2.943-5.054.96-9.852,2.751-14.906,3.711-5.63,1.088-11.068.448-16.7-.448a82.133,82.133,0,0,0-32.563,1.152c-1.088.32-.576,2.175.576,1.855Z" transform="translate(-896.963 -928.517)"/></g><g transform="translate(525.148 493.751)"><path class="e" d="M1051.882,905.731q30.133-1.631,60.265-3.2a155.367,155.367,0,0,1,29.365,1.024,52.422,52.422,0,0,0,13.051.192c4.926-.576,10.044-1.343,14.65,1.024,1.088.576,2.047-1.088.96-1.663-7.8-3.966-16.826-.256-25.206-1.024-4.99-.448-9.852-1.408-14.842-1.663-5.182-.256-10.364-.128-15.546.128-20.92.96-41.84,2.239-62.76,3.327a.929.929,0,0,0,.064,1.855Z" transform="translate(-1050.962 -900.282)"/></g><g transform="translate(131.749 548.543)"><path class="e" d="M436.973,991.54c9.468.9,19,1.791,28.469.7a74.987,74.987,0,0,0,12.923-2.751,33.584,33.584,0,0,1,16.314-1.088c4.414.768,8.765,1.855,13.179,2.239a78.9,78.9,0,0,0,14.011-.32c9.788-.96,19.576-2.623,29.3-.448,1.216.256,1.727-1.6.512-1.855-9.34-2.047-18.681-.7-28.085.256a93.4,93.4,0,0,1-14.011.64c-5.31-.256-10.428-1.663-15.61-2.5a31.918,31.918,0,0,0-12.8.32c-4.606,1.151-8.957,2.687-13.691,3.391-10.108,1.471-20.408.448-30.516-.448-1.279-.192-1.215,1.727,0,1.855Z" transform="translate(-436.037 -985.929)"/></g><g transform="translate(226.97)"><g transform="translate(0)"><path class="e" d="M591.8,166.436c-2.495-1.727-5.886-4.478-4.862-7.933,1.088-3.583,3.774-1.855,6.27-2.687,3.327-1.088,3.135-5.118,2.175-7.741-.96-2.559-3.007-8.765,2.3-6.653,1.216.512,2.111,1.343,3.519.9a3.542,3.542,0,0,0,2.239-2.751,12.038,12.038,0,0,0,0-3.391,14.76,14.76,0,0,1-.192-2.367c-.256-1.855.9-2.623,3.327-2.3.064,1.216,1.983,1.216,1.919,0a3.14,3.14,0,0,0-3.391-3.007c-2.239.064-3.455,2.239-3.711,4.286-.192,1.407.96,4.67.32,5.822-.768.512-1.535,1.088-2.367,1.6l-.96-.576a17.4,17.4,0,0,0-1.6-.7,3.705,3.705,0,0,0-4.286,2.559c-1.216,3.071.96,5.63,1.6,8.509.832,3.966-2.175,3.519-4.8,3.966a4.989,4.989,0,0,0-2.879,1.6c-4.03,4.67.64,9.852,4.478,12.539.96.7,1.919-.96.9-1.663Z" transform="translate(-584.878 -128.496)"/></g></g><g transform="translate(242.249 10.632)"><path class="e" d="M613.008,170.632c-2.111-2.431-3.711-5.758.384-7.037,1.024-.32,2.175-.192,3.135-.832,2.111-1.471,1.216-3.455.832-5.5-.192-1.152-.64-2.687.064-3.839.512-.832,2.367-1.152,3.327-1.343a11.673,11.673,0,0,0,3.9-1.28,3.831,3.831,0,0,0,1.216-5.246c-.64-1.024-2.3-.064-1.663.96,1.919,3.071-7.037,3.9-8.573,6.142-1.791,2.623,1.983,7.229-1.152,8.893-1.216.64-2.751.192-3.9,1.024A4.309,4.309,0,0,0,608.914,165c-.7,2.751,1.152,5.118,2.815,7.037.768.9,2.111-.448,1.279-1.407Z" transform="translate(-608.76 -145.116)"/></g><g transform="translate(167.444 9.214)"><path class="e" d="M495.33,154.671c-1.663-1.152-1.855-3.2-1.344-4.99.32-1.216,1.855-4.542,3.327-4.67,2.431-.256,3.647,2.815,4.286,4.606a18.338,18.338,0,0,1,.832,5.246.961.961,0,0,0,1.919,0c-.064-3.583-2.431-14.586-8.317-11.388-2.239,1.216-3.9,4.734-4.158,7.165a5.99,5.99,0,0,0,2.5,5.694c.96.7,1.919-.96.96-1.663Z" transform="translate(-491.833 -142.9)"/></g><g transform="translate(157.058 21.986)"><path class="e" d="M488.714,162.886c-2.3.576-4.606,1.152-6.973,1.727-1.343.32-3.647.448-4.734,1.471-1.855,1.727-1.344,7.037-1.344,9.276a.941.941,0,0,0,1.216.9c.32-.064.64-.192,1.024-.256,1.663-.9,2.5-.32,2.559,1.6,1.28,1.28,1.28,2.047,0,2.175a5.992,5.992,0,0,1-2.367.448.984.984,0,0,0-.96.96c.128,4.094.448,8.125.9,12.219.128,1.216,2.047,1.216,1.919,0-.448-4.094-.768-8.125-.9-12.219l-.96.96c2.687-.32,6.973-1.407,6.4-5.054-.64-3.9-5.374-3.455-8.061-2.687a14.744,14.744,0,0,0,1.216.9c0-1.471,0-2.879.128-4.35.192-2.3.064-3.135,2.175-3.966,2.879-1.152,6.27-1.535,9.276-2.3,1.215-.192.7-2.047-.512-1.791Z" transform="translate(-475.599 -162.862)"/></g><g transform="translate(178.475 20.618)"><path class="e" d="M509.987,162.692a49.261,49.261,0,0,1,8.125.192c2.559.32,2.431.7,2.815,2.943.256,1.407.32,2.879.448,4.286.512,5.5.9,11,1.216,16.506.064,1.216,1.983,1.216,1.919,0-.384-7.485-.64-15.162-1.855-22.583-.32-1.855-.64-2.431-2.559-2.751a41.226,41.226,0,0,0-10.108-.448c-1.216,0-1.216,1.919,0,1.855Z" transform="translate(-509.075 -160.725)"/></g><g transform="translate(159.691 45.897)"><path class="e" d="M480.92,208.211c3.775-.64,7.549-1.279,11.26-1.919,4.286-.7,8.381-.384,12.667-.7,1.983-.192,11.388-1.152,7.933-5.054-.832-.9-2.175.448-1.343,1.343.512.576-8.189,1.855-8.381,1.855-2.687.064-5.374-.064-8.061.256-4.862.576-9.724,1.6-14.586,2.431-1.216.128-.7,1.983.512,1.791Z" transform="translate(-479.714 -200.238)"/></g></g><g transform="translate(712.099 519.161)"><path class="f" d="M1012.476,788.6c-.192,6.717-.384,13.435-.576,20.216,8.509.576,16.953,1.088,25.462,1.663V789.752C1029.045,789.368,1020.793,788.984,1012.476,788.6Z" transform="translate(-993.742 -788.6)"/><path class="f" d="M1025.867,904.507c1.151,7.421,1.663,13.563,1.919,17.977.832,14.65.192,18.041-1.088,20.728-3.135,6.589-8.828,9.34-8.317,10.236.384.576,3.2-.064,15.738-6.653-.768-14.586-1.471-29.109-2.239-43.7C1029.9,903.612,1027.914,904.06,1025.867,904.507Z" transform="translate(-996.065 -829.848)"/><path class="f" d="M1004.2,831.8c10.876.064,21.752.192,32.627.256-1.216,14.586-2.367,29.109-3.583,43.7-9.468-.768-19-1.471-28.469-2.239Q1004.392,852.688,1004.2,831.8Z" transform="translate(-990.968 -804.163)"/><path class="f" d="M1005.332,904.32a67.753,67.753,0,0,1,4.99,20.472c.576,7.165.96,12.667-2.5,16.314-1.28,1.408-3.391,2.751-7.485,5.5-3.647,2.431-5.374,3.327-5.246,3.583.192.384,3.711-.384,19.065-5.822a89.851,89.851,0,0,0,1.663-19.64A88.5,88.5,0,0,0,1012.753,904C1010.322,904.128,1007.827,904.192,1005.332,904.32Z" transform="translate(-987.686 -830.173)"/><g transform="translate(21.566 113.3)"><path class="g" d="M1018.873,976.576a59.269,59.269,0,0,0,5.438-5.182c1.983-2.175,4.926-5.5,8-2.623l.192-1.535c-4.542,2.239-9.021,4.478-13.563,6.653a.964.964,0,0,0,.512,1.791c4.286.064,6.973-7.421,11.388-6.014,1.152.384,1.663-1.471.512-1.855a5.281,5.281,0,0,0-4.99,1.088c-1.855,1.343-4.478,4.862-6.845,4.862.192.576.32,1.216.512,1.791,4.542-2.239,9.02-4.478,13.563-6.654a.962.962,0,0,0,.192-1.535,6.757,6.757,0,0,0-6.973-1.152c-1.6.7-2.623,2.559-3.775,3.775a69.352,69.352,0,0,1-5.438,5.182c-1.024.832.32,2.239,1.279,1.408Z" transform="translate(-1017.226 -965.699)"/></g><g transform="translate(30.17 112.212)"><path class="g" d="M1031.587,965.983a15.267,15.267,0,0,1,5.566,1.216c1.088.512,2.111-1.151.96-1.663a16.528,16.528,0,0,0-6.525-1.535c-1.216.064-1.216,1.983,0,1.983Z" transform="translate(-1030.675 -964)"/></g><g transform="translate(19.936 110.113)"><path class="g" d="M1015.332,962.562a7.5,7.5,0,0,1,3.775,2.3c.832.9,2.175-.448,1.343-1.343a9.688,9.688,0,0,0-4.67-2.751c-1.088-.384-1.6,1.471-.448,1.791Z" transform="translate(-1014.679 -960.719)"/></g><g transform="translate(8.87 111.568)"><path class="g" d="M998.737,971.122c1.983-1.471,4.03-2.815,6.142-4.094a15.489,15.489,0,0,1,3.007-1.663c1.6-.576,2.559-.192,4.03.448v-1.663c-2.047.9-4.35.832-6.462,1.727-2.047.832-3.966,2.879-6.078,3.263l.768,1.727c3.774-1.855,8-2.175,11.771-4.03,1.088-.576.128-2.175-.96-1.663-3.774,1.855-8,2.175-11.771,4.03-1.024.512-.256,1.919.768,1.727,2.3-.384,4.158-2.5,6.334-3.327s4.542-.9,6.654-1.791a.961.961,0,0,0,0-1.663c-2.431-1.088-3.519-1.727-5.95-.448a70.294,70.294,0,0,0-9.084,5.758c-1.152.7-.192,2.367.832,1.663Z" transform="translate(-997.381 -962.993)"/></g><g transform="translate(20.004 81.611)"><path class="g" d="M1015.946,918.491a5.66,5.66,0,0,1,4.67.256c1.088.576,2.047-1.088.96-1.663a7.375,7.375,0,0,0-6.142-.448c-1.152.448-.64,2.3.512,1.855Z" transform="translate(-1014.785 -916.167)"/></g><g transform="translate(21.853 88.398)"><path class="g" d="M1018.587,928.71a4.7,4.7,0,0,1,3.647,1.088c.96.768,2.3-.576,1.344-1.344a7.058,7.058,0,0,0-4.99-1.663c-1.216.064-1.216,1.983,0,1.919Z" transform="translate(-1017.675 -926.775)"/></g><g transform="translate(22.566 96.369)"><path class="g" d="M1019.692,941.2a3.208,3.208,0,0,1,3.071,1.344c.64,1.023,2.3.064,1.663-.96a4.774,4.774,0,0,0-4.67-2.3.984.984,0,0,0-.96.96.89.89,0,0,0,.9.96Z" transform="translate(-1018.79 -939.236)"/></g><g transform="translate(30.283 81.174)"><path class="g" d="M1032.29,917.8a3.3,3.3,0,0,1,3.711.32c.96.768,2.3-.576,1.343-1.343a5.331,5.331,0,0,0-6.014-.64.96.96,0,0,0,.959,1.663Z" transform="translate(-1030.852 -915.484)"/></g><g transform="translate(31.321 93.474)"><path class="g" d="M1033.962,936.815a2.751,2.751,0,0,1,3.007.512c.9.832,2.3-.512,1.343-1.343a4.751,4.751,0,0,0-5.374-.768c-1.087.448-.064,2.111,1.024,1.6Z" transform="translate(-1032.474 -934.711)"/></g><g transform="translate(31.667 103.459)"><path class="g" d="M1034.413,952.674a2.787,2.787,0,0,1,3.263.128c.96.768,2.3-.576,1.344-1.344a4.622,4.622,0,0,0-5.566-.384c-1.024.64-.064,2.3.96,1.6Z" transform="translate(-1033.016 -950.318)"/></g><path class="h" d="M1055.439,832.1q-1.919,22.071-3.839,44.143" transform="translate(-1008.044 -804.271)"/><path class="h" d="M1004.8,897.9c10.684.768,21.368,1.471,32.051,2.239" transform="translate(-991.184 -827.975)"/><path class="h" d="M1054.532,789.5c-.256,7.293-.576,14.522-.832,21.816" transform="translate(-1008.8 -788.924)"/><g transform="translate(44.717 34.406)"><path class="g" d="M1055.772,844.44c5.95-1.088,12.283,3.583,12.731,9.724.64,7.677-8.125,9.021-13.883,8.189-1.216-.192-1.727,1.663-.512,1.855,7.037,1.024,16.953-.96,16.314-10.044-.512-7.485-8-12.923-15.162-11.579-1.216.192-.7,2.047.512,1.855Z" transform="translate(-1053.414 -842.38)"/></g><g transform="translate(44.977 55.9)"><path class="g" d="M1054.511,877.847a6.748,6.748,0,0,1,5.182,4.734.962.962,0,0,0,1.855-.512,8.362,8.362,0,0,0-6.461-6.078c-1.28-.192-1.791,1.6-.576,1.855Z" transform="translate(-1053.82 -875.978)"/></g><g transform="translate(44.538 55.733)"><path class="g" d="M1053.3,877.113a11.08,11.08,0,0,1,1.983,7.485c-.064,1.216,1.855,1.216,1.919,0a13.232,13.232,0,0,0-2.3-8.445c-.64-1.024-2.3-.064-1.6.96Z" transform="translate(-1053.134 -875.716)"/></g><g transform="translate(0 35.015)"><path class="g" d="M996.685,843.887c-4.222-2.687-11.963,5.054-12.923,8.829-1.919,7.677,7.933,6.781,12.027,9.34,1.024.64,1.983-1.024.96-1.663-2.943-1.855-7.293-1.152-9.852-3.455-3.135-2.815-.256-6.206,1.919-8.189,1.152-1.024,5.054-4.414,6.909-3.263,1.024.768,2.047-.9.96-1.6Z" transform="translate(-983.517 -843.332)"/></g><g transform="translate(6.101 52.774)"><path class="g" d="M999.1,871.161a12.13,12.13,0,0,0-4.478,2.943c-.96,1.024-2.175,2.623-1.216,4.03.7,1.024,2.367.064,1.663-.96-.448-.64,1.216-2.047,1.663-2.431a8.239,8.239,0,0,1,2.879-1.727c1.152-.448.7-2.3-.512-1.855Z" transform="translate(-993.053 -871.092)"/></g><g transform="translate(10.044 53.749)"><path class="g" d="M1000.55,873.054a8.366,8.366,0,0,0-1.152,6.27c.256,1.216,2.111.7,1.855-.512a6.092,6.092,0,0,1,.96-4.8c.7-1.024-.96-1.983-1.663-.96Z" transform="translate(-999.217 -872.616)"/></g><g transform="translate(17.244 33.443)"><path class="g" d="M1010.682,841.787a103.352,103.352,0,0,0,.064,14.074c.128,1.216,2.047,1.216,1.919,0a93.947,93.947,0,0,1-.064-14.074c.128-1.216-1.791-1.216-1.919,0Z" transform="translate(-1010.471 -840.875)"/></g><g transform="translate(17.95 32.946)"><path class="g" d="M1012.487,842.018c6.781.384,13.5.64,20.28.768l-.96-.96c-.192,4.8-.384,9.66-.64,14.458-.064,1.216,1.855,1.216,1.919,0,.192-4.8.384-9.66.64-14.458a.984.984,0,0,0-.96-.96c-6.781-.128-13.5-.384-20.28-.768-1.215-.064-1.215,1.855,0,1.919Z" transform="translate(-1011.575 -840.097)"/></g><g transform="translate(17.441 47.369)"><path class="g" d="M1011.432,864.534c2.815.768,5.95.576,8.765.768,3.455.192,6.973.448,10.428.64,1.216.064,1.216-1.855,0-1.919l-9.212-.576c-3.071-.192-6.526,0-9.532-.768-1.088-.32-1.6,1.535-.448,1.855Z" transform="translate(-1010.779 -862.642)"/></g><g transform="translate(20.173 57.717)"><path class="g" d="M1015.146,880.278c1.152,2.5,3.647.32,5.566,1.216.9.384.7.96,1.919,1.024,1.407.064,4.862-2.751,5.566-.128a.993.993,0,0,0,1.6.448c.64-.192,1.344-.384,1.983-.512.768.96,2.175-.448,1.343-1.343-1.471-1.727-3.327-.768-4.734.512a14.933,14.933,0,0,1,1.6.448,3.788,3.788,0,0,0-5.182-2.687c-1.088.512-1.216,1.471-2.879.832-.32-.128-.448-.64-.768-.768-.7-.256-4.414.128-4.414.064-.448-1.215-2.111-.256-1.6.9Z" transform="translate(-1015.049 -878.818)"/></g><g transform="translate(21.832 6.129)"><path class="g" d="M1019.47,800.88a1.07,1.07,0,0,1,1.535-.64c.832.32,1.279,1.279,1.663,1.983.512,1.088,2.175.128,1.663-.96-.7-1.408-1.791-2.879-3.519-3.071a2.843,2.843,0,0,0-3.135,2.111c-.32,1.28,1.536,1.791,1.791.576Z" transform="translate(-1017.642 -798.18)"/></g><g transform="translate(33.562 6.948)"><path class="g" d="M1037.847,802.236a.967.967,0,0,1,1.344-.768c.768.256,1.088,1.216,1.216,1.919.192,1.216,2.047.7,1.855-.512a3.89,3.89,0,0,0-2.943-3.391,2.934,2.934,0,0,0-3.327,2.239c-.192,1.216,1.663,1.727,1.855.512Z" transform="translate(-1035.978 -799.46)"/></g><g transform="translate(24.5 11.421)"><path class="g" d="M1021.933,807.89a6.126,6.126,0,0,0,10.172.96c.768-.96-.576-2.3-1.344-1.343a4.205,4.205,0,0,1-7.165-.576c-.576-1.088-2.239-.128-1.663.96Z" transform="translate(-1021.814 -806.452)"/></g></g><g transform="translate(600.756 40.675)"><g transform="translate(47.014 45.706)"><path class="g" d="M904.8,210.117c-8.061-3.263-12.923-11.068-15.866-18.873a62.631,62.631,0,0,1-4.03-25.654c.768-16.058,7.613-32.307,20.28-42.543,11.963-9.724,29.684-12.475,42.991-3.647,13.883,9.212,16.378,28.213,16.506,43.5.128,17.017-3.839,34.866-16.442,47.086-.9.832.448,2.239,1.343,1.343,11.963-11.643,16.506-28.277,16.953-44.527.448-15.93-1.471-36.082-14.586-47.022-12.283-10.236-30.516-9.724-43.631-1.407-14.522,9.212-23.1,25.91-24.95,42.735a66.141,66.141,0,0,0,3.966,31.092c3.263,8.317,8.445,16.25,17.017,19.7,1.088.512,1.535-1.343.448-1.791Z" transform="translate(-882.963 -112.119)"/></g><g transform="translate(66.614 143.929)"><g transform="translate(0 0)"><path class="g" d="M914.943,266.642a7.189,7.189,0,0,0,1.471,9.916c2.431,1.727,6.014,1.983,8.893,2.367a71.674,71.674,0,0,0,10.492.7c6.27-.064,13.435-.512,19.257-2.943,4.222-1.791,7.421-6.014,5.182-10.556-.512-1.088-2.175-.128-1.663.96,4.8,9.788-17.913,10.62-22.839,10.62a73.071,73.071,0,0,1-13.5-1.215c-2.111-.384-4.478-.768-5.822-2.623a5.385,5.385,0,0,1,.192-6.206c.7-1.088-.96-2.047-1.663-1.024Z" transform="translate(-913.599 -265.652)"/></g></g><g transform="translate(70.005 153.821)"><path class="g" d="M918.9,282.576a81.385,81.385,0,0,0,.448,9.66,4.851,4.851,0,0,0,1.727,3.647c1.727,1.28,4.606,1.216,6.653,1.407a94.532,94.532,0,0,0,10.428.128c3.263-.128,6.525-.384,9.788-.7,1.919-.192,4.094-.128,5.566-1.6,3.263-3.2,3.327-9.276,2.5-13.307-.256-1.216-2.111-.7-1.855.512a16.315,16.315,0,0,1,.128,6.589c-.64,3.135-1.535,5.182-5.054,5.822a78.489,78.489,0,0,1-12.859.832c-4.094.064-8.7.256-12.731-.7-3.711-.9-2.751-9.212-2.751-12.283-.064-1.216-1.983-1.216-1.983,0Z" transform="translate(-918.9 -281.114)"/></g><g transform="translate(70.209 84.549)"><path class="g" d="M919.655,174.668a41.373,41.373,0,0,1,16.761,20.28c.448,1.152,2.3.64,1.855-.512A43.588,43.588,0,0,0,920.678,173c-1.088-.7-2.047.96-1.024,1.663Z" transform="translate(-919.219 -172.834)"/></g><g transform="translate(87.181 84.846)"><path class="g" d="M947.509,195.115a53.2,53.2,0,0,1,16.314-19.96c.96-.7,0-2.431-.96-1.663a56.142,56.142,0,0,0-17.017,20.664c-.512,1.088,1.152,2.047,1.663.96Z" transform="translate(-945.749 -173.299)"/></g><g transform="translate(87.4 103.464)"><path class="g" d="M946.1,203.36c.96,13.179,1.407,26.358,1.216,39.537a.961.961,0,0,0,1.919,0c.192-13.179-.256-26.422-1.216-39.537-.128-1.279-2.047-1.279-1.919,0Z" transform="translate(-946.09 -202.4)"/></g><g transform="translate(11.284 126.123)"><g transform="translate(0 0)"><path class="g" d="M828.32,248.363c8.509-2.879,16.953-5.758,25.462-8.637,1.152-.384.64-2.239-.512-1.855-8.509,2.879-16.953,5.758-25.462,8.637a.962.962,0,0,0,.512,1.855Z" transform="translate(-827.114 -237.819)"/></g></g><g transform="translate(21.036 119.421)"><g transform="translate(0 0)"><path class="g" d="M843.536,231.793c2.943-.832,5.886-1.727,8.829-2.559a.963.963,0,0,0-.512-1.855c-2.943.832-5.886,1.727-8.829,2.559-1.152.384-.7,2.239.512,1.855Z" transform="translate(-842.357 -227.342)"/></g></g><g transform="translate(0 100.639)"><path class="g" d="M810.387,199.914c11.26-.128,22.455.192,33.651.9,1.215.064,1.215-1.855,0-1.919-11.2-.7-22.455-.96-33.651-.9a.961.961,0,0,0,0,1.919Z" transform="translate(-809.475 -197.985)"/></g><g transform="translate(24.015 91.975)"><path class="g" d="M847.709,186.334a35.516,35.516,0,0,0,8.189,1.088.961.961,0,0,0,0-1.919,34.136,34.136,0,0,1-7.677-1.024.962.962,0,0,0-.512,1.855Z" transform="translate(-847.014 -184.442)"/></g><g transform="translate(20.23 32.701)"><path class="g" d="M841.419,93.4a209.94,209.94,0,0,1,27.445,28.469c.768.96,2.111-.384,1.343-1.343a206.265,206.265,0,0,0-27.445-28.469c-.9-.832-2.3.512-1.343,1.343Z" transform="translate(-841.097 -91.791)"/></g><g transform="translate(48.375 50.837)"><path class="g" d="M885.353,121.777c1.727,1.791,3.391,3.583,5.118,5.438.832.9,2.175-.448,1.343-1.343-1.727-1.791-3.391-3.583-5.118-5.438-.832-.9-2.175.448-1.343,1.343Z" transform="translate(-885.091 -120.138)"/></g><g transform="translate(9.198 54.251)"><path class="g" d="M824.331,127.282q4.7,2.783,9.6,5.182c1.088.576,2.047-1.088.96-1.663q-4.894-2.5-9.6-5.182a.96.96,0,0,0-.96,1.663Z" transform="translate(-823.852 -125.475)"/></g><g transform="translate(119.354 11.428)"><path class="g" d="M997.677,88.582l28.4-28.4c.9-.9-.512-2.239-1.343-1.343l-28.405,28.4a.95.95,0,0,0,1.343,1.343Z" transform="translate(-996.038 -58.538)"/></g><g transform="translate(129.128 38.743)"><path class="g" d="M1012.713,108.378c2.431-1.791,4.862-3.519,7.293-5.31.96-.7.064-2.367-.96-1.663-2.431,1.791-4.862,3.519-7.293,5.31-1.024.7-.064,2.367.96,1.663Z" transform="translate(-1011.316 -101.234)"/></g><g transform="translate(89.557)"><path class="g" d="M951.342,69.608a259.926,259.926,0,0,0,4.286-28.021c.128-1.216-1.791-1.216-1.919,0A250.656,250.656,0,0,1,949.487,69.1c-.256,1.216,1.6,1.727,1.855.512Z" transform="translate(-949.462 -40.675)"/></g><g transform="translate(144.304 81.066)"><path class="g" d="M1035.973,174.114c17.4-1.6,34.739-3.2,52.14-4.8,1.216-.128,1.216-2.047,0-1.919-17.4,1.6-34.739,3.2-52.14,4.8-1.215.064-1.28,1.983,0,1.919Z" transform="translate(-1035.037 -167.39)"/></g><g transform="translate(71.421 145.215)"><path class="g" d="M921.809,269.67a74.563,74.563,0,0,0,32.563-.128c1.216-.256.7-2.111-.512-1.855a71.878,71.878,0,0,1-31.54.128c-1.216-.256-1.727,1.6-.512,1.855Z" transform="translate(-921.114 -267.662)"/></g><g transform="translate(72.804 161.547)"><path class="g" d="M924.187,295.116a123.817,123.817,0,0,0,24.822.768c1.216-.064,1.216-1.983,0-1.919a123.813,123.813,0,0,1-24.822-.768c-1.216-.128-1.216,1.791,0,1.919Z" transform="translate(-923.275 -293.19)"/></g><g transform="translate(132.711 138.928)"><path class="g" d="M1017.354,259.668q19.481,13.723,39.665,26.486c1.024.64,1.983-1.024.96-1.663q-20.152-12.763-39.664-26.486c-1.024-.7-1.983.96-.96,1.663Z" transform="translate(-1016.916 -257.834)"/></g></g><g transform="translate(513.142 494.53)"><path class="i" d="M741.6,964.1q-18.233,22.359-36.4,44.655c14.266,50.156,22.327,63.335,27.125,62.632,3.455-.512,5.118-8,6.973-16.377a109.233,109.233,0,0,0-.96-50.093c7.677-8.573,15.29-17.209,22.967-25.782C754.717,974.144,748.191,969.154,741.6,964.1Z" transform="translate(-684.296 -827.192)"/><path class="a" d="M684.984,810.236c7.613,5.886,14.906,3.775,30,6.334a116.487,116.487,0,0,1,42.671,16.57q-24.566,28.789-49,60.84c-3.9,5.182-7.8,10.364-11.579,15.546a119.408,119.408,0,0,1,22.007,7.485,117.749,117.749,0,0,1,19.7,11.26c24.375-21.24,46.126-41.776,65.51-61.16,8.956-8.957,21.624-22.647,23.607-42.032a24.668,24.668,0,0,0,.128-3.007c-.448-32.18-40.944-55.466-65.574-64.039-26.934-9.34-73.252-14.394-86.175,7.933C668.671,779.144,673.149,801.088,684.984,810.236Z" transform="translate(-672.525 -750.099)"/><path class="j" d="M745.87,793.8a109.7,109.7,0,0,1-9.213,36.338c-2.111.832-4.158,1.663-6.269,2.5,13.755,5.438,27.573,10.876,41.328,16.314q-15.354,17.561-30.9,36.786Q724.79,905.5,710.3,924.565c6.845,2.239,13.627,4.478,20.472,6.653q36.754-40.5,73.507-81.057c2.559-7.357,2.431-13.115,1.663-17.145C802.424,813.312,778.306,797.255,745.87,793.8Z" transform="translate(-686.134 -765.842)"/><path class="k" d="M771.876,879.8c2.239,3.391,4.414,6.845,6.653,10.236q-28.6,34.451-57.194,68.837c-3.391-.9-6.845-1.855-10.236-2.751,12.219-16.762,25.4-33.971,39.665-51.308Q761.417,891.859,771.876,879.8Z" transform="translate(-686.422 -796.823)"/></g><g transform="translate(391.844 493.203)"><path class="i" d="M703.718,926.1c18.873,3.455,37.809,6.845,56.682,10.3,21.815,47.6,24.247,62.952,20.152,65.575-2.943,1.855-9.084-2.751-15.93-7.933a109.635,109.635,0,0,1-31.86-38.9c-11.388-1.535-22.775-3.135-34.163-4.67C700.263,942.35,701.991,934.225,703.718,926.1Z" transform="translate(-560.62 -812.177)"/><path class="a" d="M587.124,755.942c-34.419,10.108-55.4,31.092-68.9,44.911C499.99,819.6,477.6,842.564,484.06,859.518c3.327,8.637,13.435,13.947,60.521,22.135,35.57,6.206,66.406,9.532,90.461,11.388,3.007-11,6.014-21.944,8.957-32.947q-36.274-11.707-72.484-23.351c14.842-3.135,30.452-6.845,46.7-11.388q18.521-5.182,35.314-10.812c10.364-20.92,12.6-43.5,1.791-56.3C640.223,740.332,606.38,750.248,587.124,755.942Z" transform="translate(-482.923 -748.025)"/><path class="l" d="M691.533,795a89.612,89.612,0,0,1-4.35,23.415A93.408,93.408,0,0,1,681.3,832.49c-1.727.128-3.455.32-5.182.448q-21.879,7.2-46.574,13.563c-10.62,2.751-20.984,5.118-31.028,7.293q36.37,11.419,72.74,22.775-.768,3.934-1.919,8.253c-.9,3.327-1.919,6.4-2.879,9.212L566.077,869.275c-1.535-1.855-6.589-8.573-5.822-17.465.832-9.66,10.044-16.506,21.816-22.775C616.106,810.994,673.172,798.775,691.533,795Z" transform="translate(-510.754 -764.948)"/><path class="m" d="M530.7,993.8" transform="translate(-500.135 -836.565)"/><path class="n" d="M593.2,888.207c6.078-.448,12.219-.9,18.3-1.407q35.794,11.9,71.588,23.863c-1.024,3.775-2.047,7.613-3.071,11.388Q636.639,905.065,593.2,888.207Z" transform="translate(-522.65 -798.019)"/></g><g transform="translate(487.024 339.716)"><path class="f" d="M631.7,524.545a119.024,119.024,0,0,1,47.789-15.8c33.523-3.519,59.241,8.509,69.413,13.947-1.855,25.142-4.734,45.23-7.037,59.049-2.751,16.506-4.99,25.654-6.014,40.816a212.784,212.784,0,0,0,1.791,44.847,152.309,152.309,0,0,1-95.579-1.791,223.1,223.1,0,0,0,.512-53.419c-1.6-13.755-3.775-20.472-6.4-37.106A364.946,364.946,0,0,1,631.7,524.545Z" transform="translate(-631.7 -508.109)"/><path class="o" d="M712.7,517.794a140.9,140.9,0,0,1,3.9,19.64c.7,5.438,3.583,30.068-5.374,62.568-5.5,20.024-11.323,41.2-30.388,58.6A83.654,83.654,0,0,1,664.4,670.374a153.471,153.471,0,0,0,84-1.791c-.64-4.8-1.471-12.027-1.791-20.728-.256-7.613-.256-19.768,4.99-54,4.158-26.933,7.1-38.513,8.573-62.888.192-2.815.256-5.182.384-6.781A91.657,91.657,0,0,0,742.322,516a87.8,87.8,0,0,0-18.233-3.9Z" transform="translate(-643.48 -509.547)"/><path class="p" d="M763.635,547.3a352.444,352.444,0,0,1-12.027,48.045c-10.876,33.267-18.489,55.658-39.025,72.036A87.738,87.738,0,0,1,678.1,683.887a121.909,121.909,0,0,0,35.634,4.478,125.368,125.368,0,0,0,39.793-7.485,185.479,185.479,0,0,1-2.239-33.779c.448-18.489,3.455-29.62,6.781-49.9C759.924,585.3,762.291,568.284,763.635,547.3Z" transform="translate(-648.416 -522.227)"/></g><g transform="translate(438.359 355.833)"><path class="f" d="M603.912,533.3a112.13,112.13,0,0,0-28.341,28.341c-21.048,30.58-20.472,63.016-19.64,74.979a120.486,120.486,0,0,0,21.943,37.042c6.717,7.741,16.57,18.873,33.4,26.038a75.773,75.773,0,0,0,14.139,4.542c3.071-2.751,6.078-5.5,9.148-8.253-9.852-11.516-19.768-23.607-29.684-36.082q-11.42-14.3-21.943-28.341a79.9,79.9,0,0,1,10.492-37.042,78.663,78.663,0,0,1,15.1-18.745Q606.216,554.572,603.912,533.3Z" transform="translate(-555.631 -533.3)"/><path class="q" d="M611.951,555.6c-18.425,20.792-27.189,40.5-31.54,52.907-7.613,21.5-6.014,32.755-4.862,38.129.96,4.222,3.071,11.452,10.812,22.455,6.717,9.532,20.856,26.614,47.789,40.688,2.367-2.3,4.734-4.542,7.1-6.845q-11.42-12.859-23.031-27-15.258-18.521-28.4-36.4a81.147,81.147,0,0,1,25.334-56.042C614,574.217,612.974,564.94,611.951,555.6Z" transform="translate(-562.454 -541.333)"/><path class="r" d="M598.3,688.1a96.07,96.07,0,0,0,8.509,27.317c11,22.391,28.213,34.738,36.978,40.112,1.727-1.535,3.391-3.007,5.118-4.542Q623.57,719.512,598.3,688.1Z" transform="translate(-571.003 -589.067)"/></g><g transform="translate(570.384 354.681)"><path class="f" d="M797.019,531.5a119.568,119.568,0,0,1,31.8,27.829c23.671,30,22.967,61.864,22.071,73.635a117.382,117.382,0,0,1-24.63,36.4c-7.549,7.549-18.617,18.489-37.489,25.59a98.341,98.341,0,0,1-15.93,4.478c-3.391-2.687-6.845-5.374-10.236-8.061,11-11.324,22.2-23.159,33.331-35.442q12.763-14.106,24.63-27.829a71.378,71.378,0,0,0-11.771-36.4,80.77,80.77,0,0,0-16.953-18.425C793.628,559.329,795.355,545.447,797.019,531.5Z" transform="translate(-762.216 -531.5)"/><path class="r" d="M796.607,555.8a149.015,149.015,0,0,1,27.829,41.136c4.094,9.02,10.748,23.671,10.876,37.489.448,42.032-59.049,70.948-62.5,72.612-3.391-2.175-6.717-4.286-10.108-6.461q28.885-31.668,57.706-63.335a77.229,77.229,0,0,0-9.66-33.459A75.849,75.849,0,0,0,791.361,581.2C793.152,572.753,794.88,564.309,796.607,555.8Z" transform="translate(-762.252 -540.254)"/><path class="s" d="M820.793,683.4a89.819,89.819,0,0,1-5.054,17.913c-11.26,28.4-34.035,43.951-45.55,50.6-2.751-1.791-5.438-3.583-8.189-5.374Q791.365,714.972,820.793,683.4Z" transform="translate(-762 -586.222)"/></g><g transform="translate(462.586 456.018)"><rect class="f" width="157.315" height="99.609" transform="translate(0 0.576)"/><g transform="translate(63.656 34.114)"><path class="g" d="M705.732,768.99c-8.317,1.024-12.347-9.084-10.172-15.8,2.111-6.654,9.98-9.788,16.378-7.485,6.334,2.3,9.4,10.044,7.165,16.25-2.495,6.909-11.2,9.724-17.593,6.653-1.088-.512-2.111,1.151-.96,1.663a15.2,15.2,0,0,0,17.209-2.751c4.414-4.414,5.054-11.387,2.3-16.825-6.27-12.411-25.654-8.445-27,5.182-.7,7.293,4.542,16.058,12.667,15.1,1.216-.192,1.216-2.111,0-1.983Z" transform="translate(-693.001 -743.223)"/></g><path class="o" d="M677.947,690.256c21.3,7.421,35.826,26.422,36.274,46.83.576,25.59-20.92,49.645-50.221,52.076l111.957.96q-.192-50.093-.32-100.121Q726.792,690,677.947,690.256Z" transform="translate(-618.898 -689.936)"/><path class="j" d="M801.822,689.9a164.938,164.938,0,0,1-8,46.638c-4.99,15.162-8.573,26.23-18.873,36.018-14.011,13.435-31.476,15.93-39.153,16.57q32.723.288,65.447.64.1-28.5.32-57.066C801.566,718.433,801.694,704.166,801.822,689.9Z" transform="translate(-644.763 -689.9)"/></g><g transform="translate(483.978 214.063)"><path class="f" d="M707.435,450.681c-3.519,4.286-.128,9.532-.768,23.543A87.3,87.3,0,0,1,704.3,490.6a38.494,38.494,0,0,0,15.162,3.583,38.945,38.945,0,0,0,17.977-3.966,51.8,51.8,0,0,1-4.414-12.8c-2.879-14.33,2.239-21.048-1.983-26.358C726.116,444.923,712.169,444.859,707.435,450.681Z" transform="translate(-654.808 -360.22)"/><path class="f" d="M667.529,342.584a41.09,41.09,0,0,0-1.6,23.735c-.384.064-7.869,1.663-9.916,7.421-2.047,5.822,2.175,14.075,11,16.761,3.2,7.8,10.94,22.9,27.253,31.156a50.815,50.815,0,0,0,8,3.2,63.162,63.162,0,0,0,9.212-4.414,64.806,64.806,0,0,0,19.193-16.762,58.889,58.889,0,0,0,8.893-17.273,10.313,10.313,0,0,0,6.334-.832c5.5-2.815,8.253-11.579,4.414-17.273-3.2-4.734-9.4-4.926-10.172-4.926.832-3.327,3.391-15.29-3.071-27.125-7.421-13.627-23.351-20.792-38.321-18.745C676.613,320.385,667.913,341.56,667.529,342.584Z" transform="translate(-637.23 -313.667)"/><g transform="translate(51.356 105.608)"><path class="g" d="M707.653,478.582c3.9,2.3,8.189,5.886,12.987,5.5,3.966-.32,8.381-2.623,11.388-5.054.96-.768-.384-2.111-1.343-1.343-2.815,2.239-7.357,4.606-11.068,4.542-3.9-.064-7.869-3.327-11.068-5.31-.96-.64-1.919,1.024-.9,1.663Z" transform="translate(-707.213 -476.775)"/></g><g transform="translate(51.244 105.84)"><path class="g" d="M707.334,479.545c3.647,3.135,7.8,6.653,12.923,6.4,4.99-.256,9.66-3.583,12.923-7.165.832-.9-.512-2.239-1.343-1.343-2.815,3.071-6.781,6.078-11.132,6.525-4.8.448-8.637-2.815-12.027-5.758-.9-.832-2.239.512-1.343,1.344Z" transform="translate(-707.038 -477.138)"/></g><g transform="translate(52.083 106.908)"><path class="g" d="M710.237,480.53h0a.982.982,0,0,0-1.535-.256l-.064.064a.928.928,0,0,0,0,1.343c7.037,6.717,19.96,8.893,25.014-1.407.512-1.088-1.088-2.111-1.663-.96-4.478,9.212-15.8,6.973-21.944,1.024v1.343l.064-.064-1.535-.192v.064c.64,1.024,2.3.064,1.663-.96Z" transform="translate(-708.35 -478.808)"/></g><g transform="translate(61.24 48.486)"><path class="g" d="M723.07,388.455a128.089,128.089,0,0,0,1.28,30.9.872.872,0,0,0,1.151.64,9.933,9.933,0,0,0,5.63-4.542.96.96,0,0,0-1.663-.96,7.7,7.7,0,0,1-4.478,3.647c.384.192.768.448,1.152.64a123.881,123.881,0,0,1-1.216-30.388c.192-1.216-1.727-1.216-1.855.064Z" transform="translate(-722.663 -387.487)"/></g><path class="t" d="M702.43,401.5c.128.576,1.088,4.158,0,4.734s-4.158-1.727-5.118-4.734c-.768-2.559-.128-5.758,1.088-6.014C699.679,395.169,701.663,398.687,702.43,401.5Z" transform="translate(-652.171 -341.877)"/><path class="t" d="M754.03,401.5c.128.576,1.088,4.158,0,4.734s-4.158-1.727-5.118-4.734c-.768-2.559-.128-5.758,1.088-6.014C751.279,395.169,753.263,398.687,754.03,401.5Z" transform="translate(-670.759 -341.877)"/><g transform="translate(58.826 80.795)"><path class="g" d="M719.408,445.994c7.805,3.327,14.906-1.343,20.664-6.4.96-.832-.448-2.175-1.344-1.344-4.99,4.35-11.388,9.02-18.3,6.078-1.216-.448-2.175,1.216-1.024,1.663Z" transform="translate(-718.891 -437.991)"/></g><g transform="translate(80.952 67.878)"><path class="g" d="M754.387,419.719a.961.961,0,0,0,0-1.919.961.961,0,0,0,0,1.919Z" transform="translate(-753.475 -417.8)"/></g><g transform="translate(87.333 64.392)"><path class="g" d="M765.081,414.173l.192-.192a.95.95,0,1,0-1.343-1.343l-.192.192a.95.95,0,0,0,1.344,1.344Z" transform="translate(-763.45 -412.35)"/></g><g transform="translate(85.894 68.966)"><path class="g" d="M762.16,421.419h.192a.96.96,0,0,0,0-1.919h-.192a.984.984,0,0,0-.96.96.942.942,0,0,0,.96.96Z" transform="translate(-761.2 -419.5)"/></g><g transform="translate(41.016 44.703)"><path class="g" d="M692.746,385.045a6.655,6.655,0,0,1,8.445-.128c.96.768,2.3-.576,1.343-1.343a8.626,8.626,0,0,0-11.2.128c-.9.768.512,2.111,1.407,1.344Z" transform="translate(-691.052 -381.575)"/></g><g transform="translate(72.257 43.349)"><path class="g" d="M741.557,383.579a8.714,8.714,0,0,1,9.916-1.152c1.088.576,2.047-1.088.96-1.663a10.545,10.545,0,0,0-12.219,1.471c-.96.832.384,2.175,1.343,1.344Z" transform="translate(-739.884 -379.458)"/></g><g transform="translate(42.311 67.686)"><path class="g" d="M693.987,419.419a.961.961,0,0,0,0-1.919.961.961,0,0,0,0,1.919Z" transform="translate(-693.075 -417.5)"/></g><g transform="translate(49.092 66.791)"><path class="g" d="M704.587,418.019a.961.961,0,0,0,0-1.919.961.961,0,0,0,0,1.919Z" transform="translate(-703.675 -416.1)"/></g><g transform="translate(46.133 69.893)"><path class="g" d="M699.53,421.238l-.192.192a.95.95,0,0,0,1.343,1.343l.192-.192a.95.95,0,1,0-1.343-1.344Z" transform="translate(-699.05 -420.95)"/></g><path class="b" d="M667.666,319.825a47.267,47.267,0,0,0-17.913,18.169,46.547,46.547,0,0,0-5.374,24.822,145.571,145.571,0,0,0-15.61,41.776c-3.327,16.058-1.535,21.943.768,25.846,5.63,9.6,16.953,11.963,19.7,12.539,14.138,3.007,25.4-4.222,27.957-5.886a41.28,41.28,0,0,0,1.791-7.677,39.514,39.514,0,0,0-.256-12.539,66.008,66.008,0,0,1-20.728-29.684c-5.63-.576-9.852-4.414-10.236-8.7-.384-4.03,2.431-9.212,6.142-9.212,2.751,0,4.734,2.815,5.118,3.327a27.077,27.077,0,0,0,7.677-6.653c3.775-4.8,4.414-9.084,6.142-13.563a43,43,0,0,1,11.771-16.634c6.654,2.367,11.963,4.67,15.61,6.4,11.707,5.438,18.361,8.637,23.543,15.61a34.169,34.169,0,0,1,5.118,9.98c5.95-4.542,8.381-3.327,8.893-3.071,3.775,2.111,3.647,13.691-2.239,16.889a9.119,9.119,0,0,1-6.4.512,60.665,60.665,0,0,1-15.354,26.358,55.739,55.739,0,0,1-9.212,7.421,34.632,34.632,0,0,0,.256,9.468,32.445,32.445,0,0,0,2.559,8.445c15.546,10.236,34.866,8.381,45.358-2.623,9.34-9.852,9.34-24.758,5.822-34.93A38.032,38.032,0,0,0,746.1,378.938c.832-3.583,5.438-24.822-7.933-44.335-3.455-5.054-13.115-17.273-30.516-21.5C689.226,308.629,674.064,315.922,667.666,319.825Z" transform="translate(-626.939 -311.699)"/><path class="p" d="M745.1,365.5a45.352,45.352,0,0,1,9.788,21.816c2.623,18.3-8,33.139-13.371,40.752a78.99,78.99,0,0,1-12.219,13.5c2.815,7.549,5.566,15.034,8.381,22.583l8.637-2.879a43.5,43.5,0,0,1-3.839-8.893,45.535,45.535,0,0,1-1.919-15.866,68.057,68.057,0,0,0,11.579-10.364,69.562,69.562,0,0,0,13.947-24.375,9.808,9.808,0,0,0,6.653-.9c5.5-3.135,4.606-10.94,4.542-11.452-.192-1.663-.576-4.35-2.5-5.438-2.239-1.216-5.95-.064-8.893,3.391a32.847,32.847,0,0,0-10.364-16.122A32.108,32.108,0,0,0,745.1,365.5Z" transform="translate(-663.814 -331.081)"/><path class="u" d="M721.566,389.9c-.384-.064-1.663,5.5-5.566,30.068h6.717c-.448-3.263-.96-8-1.216-13.755C721.182,396.361,721.95,389.964,721.566,389.9Z" transform="translate(-659.023 -339.871)"/><path class="v" d="M789.056,417.761c-1.088.64,3.007,6.142,2.431,14.33-.192,2.559-.576,8.381-5.182,12.283-.32.256-7.165,5.886-13.947,2.3a12.412,12.412,0,0,1-6.334-11.452,50.254,50.254,0,0,1-9.98,12.923,52.787,52.787,0,0,1-8.7,6.589,36.791,36.791,0,0,0,.832,11,39.926,39.926,0,0,0,1.983,6.078,41.031,41.031,0,0,0,8.765,4.35c2.431.832,15.8,5.5,28.853-.96a27.51,27.51,0,0,0,11.132-9.4,26.86,26.86,0,0,0,3.327-7.421c4.35-14.458-2.047-27.509-2.623-28.6C796.094,422.687,790.4,416.993,789.056,417.761Z" transform="translate(-670.279 -349.883)"/><path class="w" d="M657.969,430.1c-.576.064.7,5.31-.7,10.492-1.024,3.839-4.286,10.108-9.852,11.388-5.822,1.279-13.051-3.007-16.378-11a45.6,45.6,0,0,0-3.9,16.314c-.192,4.67-.448,9.66,1.855,14.586,5.182,11,20.408,15.29,31.732,14.266a36.682,36.682,0,0,0,16.314-5.63,47.2,47.2,0,0,0,2.047-7.8,45.065,45.065,0,0,0,.192-13.051,53.512,53.512,0,0,1-10.684-10.172c-3.071-3.9-7.229-9.148-9.34-16.442C658.928,432.21,658.353,430.035,657.969,430.1Z" transform="translate(-626.966 -354.352)"/></g></g></svg>