<svg xmlns="http://www.w3.org/2000/svg" width="60" height="96.183" viewBox="0 0 60 96.183"><defs><style>.a{fill:#f23d59;}.b{fill:#fa4d68;}.c{fill:#f2617c;}</style></defs><g transform="translate(-94 -15)"><path class="a" d="M166.9,243.6v25.752a11.451,11.451,0,0,1-10.36,11.4,33.5,33.5,0,0,1-5.086-.666A11.463,11.463,0,0,1,144,269.351V235h4.122C156.563,235,163.807,238.545,166.9,243.6Z" transform="translate(-38.55 -169.618)"/><path class="b" d="M166.9,26.45A11.45,11.45,0,1,1,155.45,15,11.45,11.45,0,0,1,166.9,26.45Z" transform="translate(-38.55)"/><path class="b" d="M181.636,135.053a33.5,33.5,0,0,0-5.086.666,11.4,11.4,0,0,1,4-.719C180.915,135,181.277,135.018,181.636,135.053Z" transform="translate(-63.645 -92.519)"/><path class="c" d="M166.9,243.6v25.752a11.451,11.451,0,0,1-10.36,11.4c-.36.034-.721.053-1.09.053A11.455,11.455,0,0,1,144,269.351V235h4.122C156.563,235,163.807,238.545,166.9,243.6Z" transform="translate(-38.55 -169.618)"/><path class="b" d="M154,169.351A34.238,34.238,0,0,1,119.878,203.7q-.948,0-1.887-.053a11.451,11.451,0,0,0,10.36-11.4V166.5c-3.094-5.054-10.337-8.6-18.779-8.6H105.45a11.45,11.45,0,0,1-11.439-10.953c-.007-.165-.011-.33-.011-.5A11.452,11.452,0,0,1,105.45,135H116.9a11.4,11.4,0,0,0-4,.719,33.5,33.5,0,0,1,5.086-.666q.938-.052,1.887-.053A34.238,34.238,0,0,1,154,169.351Z" transform="translate(0 -92.519)"/><path class="a" d="M181.636,135.053a33.5,33.5,0,0,0-5.086.666,11.4,11.4,0,0,1,4-.719C180.915,135,181.277,135.018,181.636,135.053Z" transform="translate(-63.645 -92.519)"/><path class="a" d="M148.122,235a29.165,29.165,0,0,0-4.122.289V235Z" transform="translate(-38.55 -169.618)"/><path class="a" d="M181.636,135.053a33.5,33.5,0,0,0-5.086.666,11.4,11.4,0,0,1,4-.719C180.915,135,181.277,135.018,181.636,135.053Z" transform="translate(-63.645 -92.519)"/></g></svg>