<svg xmlns="http://www.w3.org/2000/svg" width="927.75" height="470.877" viewBox="0 0 927.75 470.877"><defs><style>.a{fill:#dde0e4;opacity:0.5;}</style></defs><path class="a" d="M239.673.006c-.6.035-1.012.15-1.117.31-.279.426-1.415.532-2.562.248a7.448,7.448,0,0,0-3.942.248A7.357,7.357,0,0,1,229,1.4c-1.128-.165-2.717,2.164-2.956,4.344-.06.546-2.105.857-4.566.683-3.278-.233-4.415.032-4.2.993.189.862-.857,1.326-3.088,1.365-1.865.032-3.707.368-4.106.745s-2.428.735-4.5.807l-3.777.124,3.679.621c2.023.338,3.442.935,3.153,1.334s.547,1.45,1.872,2.327c1.854,1.227,2.749,1.348,3.876.465a2.962,2.962,0,0,1,3.383-.217,16.693,16.693,0,0,0,15.471-.31c3.613-1.815,5.491-2.259,6.274-1.52,1.689,1.6-1.042,3.458-8.277,5.709-4.624,1.438-6.916,1.705-8.606.993-2.455-1.035-5.584-.388-5.584,1.148,0,1.572,7.486,5.193,9.493,4.592,2.464-.739,3.53.92,1.577,2.451-2.162,1.7-12.646.077-12.646-1.955a4.206,4.206,0,0,0-1.807-2.761,2.592,2.592,0,0,1-1.183-2.761c.336-.826.209-1.412-.3-1.3-1.081.234-4.471-.86-6.7-2.172-3.128-1.84-4.231-2.134-6.011-1.489-1.55.562-1.588.791-.263,1.582,1.537.918,1.253,1.089-2.4,1.365a4.489,4.489,0,0,0-2.529,1.551c-1.521,1.841,1.035,3.9,4.894,3.971a10.152,10.152,0,0,1,4.2,1.024c1.233.741.826,1.087-1.938,1.613-2.84.54-3.219.853-1.839,1.582.944.5,1.452,1.318,1.117,1.83s1.193.931,3.482.931c2.766,0,4.731-.649,6.011-1.986,1.457-1.521,2.221-1.728,3.317-.869a36.156,36.156,0,0,0,4.6,2.73c1.745.884,3.264,2.06,3.35,2.606.267,1.676-3.274,1.717-5.026.062-.909-.859-1.176-1.551-.591-1.551a2.326,2.326,0,0,1,1.708.993,3.161,3.161,0,0,0,2.4.993c1.35,0,1.187-.372-.69-1.613-2.007-1.328-2.9-1.389-5.19-.4-2.486,1.07-2.6,1.3-.953,2.172,1.927,1.018,1.525,2.849-.624,2.823-.752-.009-.619-.415.328-.993.867-.529,1.1-.962.526-.962-1.725,0-4.2,1.8-3.449,2.513.383.361,4.813.813,9.854,1.024s9.43.623,9.723.9c.75.708,1.165.658,5.091-.683,3.617-1.236,4.907-2.955,1.609-2.141-2.609.644-7.86-1.411-7-2.73.387-.592,1.842-.8,3.252-.465a9.967,9.967,0,0,0,5.945-1.055c1.853-.913,4.029-1.956,4.861-2.327a4.089,4.089,0,0,0,1.971-1.986c.335-.95-.244-1.131-2.135-.683-1.435.34-2.915.318-3.285-.031-1.193-1.127,1.6-3.289,4.237-3.289,1.409,0,2.271-.422,1.938-.931-1.073-1.64,1.155-2,4.6-.776,2.762.985,3.508.948,4.27-.217.509-.779,4.641-3.127,9.164-5.181s7.672-3.728,7-3.754a15.972,15.972,0,0,1-3.153-.652c-1.43-.438-1.576-.338-.526.372,1.081.73.661,1.2-1.807,2.017-3.382,1.114-5.26.131-3.022-1.582a29.714,29.714,0,0,1,6.044-2.482c6.28-2,10.511-3.861,10.511-4.623,0-.341-1.3-1.342-2.891-2.2a7.35,7.35,0,0,0-6.044-.714c-3.477.937-6.259.409-5.321-1.024C265.695,1,260.35.187,254.159.751A46.686,46.686,0,0,1,243.911.378a23.649,23.649,0,0,0-3.58-.372C240.089,0,239.874-.006,239.673.006Zm99.953,0c-2.811.028-4.819.533-4.336,1.272,1.21,1.849-2.39,2.138-5.814.465C326.92.495,325.5.329,323.729,1.092c-1.619.7-2.719.69-3.482-.031-1.461-1.38-4.4-.257-4.4,1.675,0,2,1.708,1.959,2.529-.062.554-1.364,1-1.276,3.186.714,1.719,1.563,2.221,2.7,1.544,3.475-.865.984-6.176,1.127-11.463.31-3.965-.613-7.283.105-6.733,1.458.819,2.015-1.2,2.822-2.726,1.086-1.57-1.786-3.254-1.954-2.891-.279.189.872-1.506,1.142-6.044.931-6-.279-12.986,1.633-11.4,3.134,1.049.991-1.93,3.808-3.449,3.258a1.745,1.745,0,0,0-1.971.4,1.684,1.684,0,0,1-1.905.434c-1.721-.624-9.733,3.055-8.376,3.847.575.336,2.527.211,4.336-.279,4.331-1.173,5.07.159,2.135,3.909-1.624,2.074-3.255,3.009-5.255,3.009-1.591,0-3.184.469-3.547,1.024a1.273,1.273,0,0,1-1.675.4c-1.314-.767-8.31,1.426-8.31,2.606,0,.922,1.273,1.139,8.836,1.334,2.267.058,4.324.651,4.566,1.334.485,1.37-.384,1.732-6.569,2.792-3.777.647-3.937.788-1.577,1.365,1.445.353,2.391,1.023,2.1,1.489-.784,1.266,3.368,2.381,5.781,1.551,1.156-.4,5.856-.793,10.445-.9s8.72-.423,9.164-.683,1.467.775,2.3,2.3a19.919,19.919,0,0,0,3.745,4.654c1.215,1.039,2.2,2.422,2.2,3.071a5.533,5.533,0,0,0,2,2.885,4.491,4.491,0,0,1,1.511,4.623c-.559,3.349,1.209,4,2.1.776.483-1.743.872-1.926,2.1-.962,3.588,2.813,2.672,6.283-1.938,7.353-1.442.335-1.082.51,1.15.589a8.333,8.333,0,0,1,4.993,1.955c1.636,1.708,1.638,1.949-.328,3.63s-2.02,1.844-.3,3.04c1.678,1.164,1.6,1.371-1.051,2.327-1.59.573-2.89,1.545-2.89,2.172,0,.829.43.811,1.544-.062,2.442-1.914,4.168-.177,2.036,2.048-.994,1.038-1.377,1.906-.854,1.924s.094.647-.953,1.4c-1.225.878-1.484,1.591-.755,2.017a1.294,1.294,0,0,1,.394,1.83c-.476.75-.158.7.92-.124,1.908-1.46,3.243-.288,1.938,1.706-.545.833.207,2.823,2.069,5.429,4.078,5.708,6.968,7.982,10.281,8.036,1.558.025,2.884.589,2.956,1.272s.191,1.5.263,1.8c.279,1.174,6.459-3.058,6.569-4.5a28.542,28.542,0,0,0-.066-3.661,3.214,3.214,0,0,1,.92-2.792,3.115,3.115,0,0,0,1.117-2.482c0-2.137,9.241-10.194,10.708-9.339.542.317,2.349.028,4.007-.621,2.973-1.163,4.433-3.045,4.631-5.957a1.233,1.233,0,0,1,1.412-1.241c.723.137,2.248-.634,3.383-1.706,1.646-1.555,3.417-1.916,8.7-1.83,4.076.066,7.831-.5,9.755-1.427a36.246,36.246,0,0,1,6.8-2.3l3.679-.776-3.679-.776a17.229,17.229,0,0,0-5.912-.217c-2.656.611-4.423-1.388-2-2.265a2.132,2.132,0,0,0,1.38-2.234c-.2-1.127.634-1.7,2.693-1.924,2.28-.247,3.077.157,3.515,1.737.7,2.517,3.482,2.738,3.482.279,0-2.314-5.706-5.495-8.409-4.685-2.864.859-4.634-.294-3.12-2.017.9-1.022.637-1.567-1.051-2.42-3-1.517-1.561-3.266,2.069-2.513,2.4.5,2.919.292,2.792-1.148-.222-2.519,3.416-2.315,7.029.4,1.634,1.23,3.746,2.234,4.7,2.234,1.341,0,1.2-.344-.624-1.551-2.987-1.976-2.1-3.413,2.135-3.413,3.12,0,3.182-.077,1.248-1.458-1.122-.8-1.564-1.531-.985-1.613s-.335-.431-2.036-.776c-4.023-.816-4.059-2.42-.066-3.227l3.153-.621-3.35-.124c-1.845-.065-3.635-.536-3.974-1.055-1.03-1.575,3.247-3.072,6.865-2.389,2.538.479,3.22.347,2.628-.558-.437-.668-1.039-.973-1.347-.683-1.027.97-4.671-1.544-4.139-2.854A2.335,2.335,0,0,0,386,29.232c-.819-.774-.336-1.356,1.675-2.079,1.539-.553,2.792-1.677,2.792-2.482a3.652,3.652,0,0,1,1.839-2.544c1.556-.935,1.426-1.047-.887-.589-3.275.648-4.531-.218-2.923-2.048.653-.743,3.214-1.334,5.781-1.334,3.076,0,4.511-.4,4.336-1.21-.145-.67.819-1.393,2.135-1.582a20.829,20.829,0,0,0,5.091-1.644l2.661-1.3-4.2-.683c-2.316-.37-5.055-.252-6.109.279-2.667,1.344-6.922,1.77-8.507.838-.733-.431-2.738-.132-4.467.683-3.072,1.448-5.017.73-3.646-1.365.456-.7-1.85-.948-7.029-.714a37.178,37.178,0,0,0-14.255,3.165c-3.752,1.605-7.282,2.513-8.31,2.141-2.592-.939-.981-2.035,8.179-5.491,5.2-1.963,9.932-3.04,13.3-3.04a26.638,26.638,0,0,0,8.737-1.52l3.547-1.52-5.945.589c-6.221.623-8.7-.54-5.387-2.513,2.1-1.251-7.908-.756-19.084.931-3.435.519-6.676.674-7.193.372-1.565-.914.974-2.534,5.223-3.351,3.65-.7,3.463-.773-2.3-.807C347.587.389,343.8.28,342.647.161a27.285,27.285,0,0,0-3.022-.155Zm-29.069,1.52c-1.11.042-2.094.908-1.511,1.8a2.151,2.151,0,0,0,1.544.931c1.472,0,2.259-1.8,1.084-2.482A2.046,2.046,0,0,0,310.557,1.526ZM305.7,2.674a1.332,1.332,0,0,0-.46.155,1.067,1.067,0,0,0-.361,1.52,1.208,1.208,0,0,0,1.609.341,1.067,1.067,0,0,0,.361-1.52A1.151,1.151,0,0,0,305.7,2.674Zm88.948,5.8c-1.11.042-2.094.908-1.511,1.8a2.15,2.15,0,0,0,1.544.931c1.472,0,2.259-1.8,1.084-2.482A2.046,2.046,0,0,0,394.644,8.476ZM591.661,9.531c-.563.014-.748.729-.493,2.048.092.477-.513.613-1.347.31-2.116-.767-3.013.351-1.577,1.986,1.13,1.286,3.229,1.464,2.726.248a.382.382,0,0,0,.263-.341c0-.06-.063-.13-.164-.217a5.556,5.556,0,0,1,1.018-1.613c.917-1.044,1-1.77.263-2.2A1.346,1.346,0,0,0,591.661,9.531Zm10.051.931c-1.11.042-2.094.908-1.511,1.8a2.15,2.15,0,0,0,1.544.931c1.472,0,2.259-1.8,1.084-2.482A2.047,2.047,0,0,0,601.712,10.462Zm-314.967.9c1.432.009,2.9.916,2.3,1.83a2.8,2.8,0,0,1-4.172.062,1.153,1.153,0,0,1,.526-1.582A2.655,2.655,0,0,1,286.745,11.361Zm284.878.248a1.332,1.332,0,0,0-.46.155,1.067,1.067,0,0,0-.361,1.52,1.208,1.208,0,0,0,1.61.341,1.067,1.067,0,0,0,.361-1.52A1.151,1.151,0,0,0,571.622,11.61Zm101.561.838c-1.11.042-2.094.908-1.511,1.8a2.15,2.15,0,0,0,1.544.931c1.472,0,2.259-1.8,1.084-2.482A2.046,2.046,0,0,0,673.183,12.447Zm-89.442.124a6.294,6.294,0,0,0-2.693.9,1.417,1.417,0,0,1-1.905-.279,1.278,1.278,0,0,0-1.675-.434,1.067,1.067,0,0,0-.361,1.52,1.146,1.146,0,0,0,1.511.4,1.155,1.155,0,0,1,1.511.4,2.078,2.078,0,0,0,1.905.714c2.168-.311,4.031-1.685,3.449-2.575A1.858,1.858,0,0,0,583.742,12.571Zm11,.031a1.332,1.332,0,0,0-.46.155,1.067,1.067,0,0,0-.361,1.52,1.208,1.208,0,0,0,1.609.341,1.067,1.067,0,0,0,.361-1.52A1.151,1.151,0,0,0,594.745,12.6Zm-356.286.714c-.721.119-2.217.884-5.321,2.482-4.9,2.521-3.171,2.734,3.317.4,1.471-.528,2.661-1.426,2.661-1.986,0-.534-.04-.86-.394-.9A.91.91,0,0,0,238.46,13.316Zm26.475,0a2.914,2.914,0,0,0-1.872.714c-.78.737-.369.866,1.38.434,1.421-.351,1.871-.807,1.084-1.055A1.841,1.841,0,0,0,264.934,13.316Zm419.453.621c-.838.051-1.8.546-3.547,1.52-3.329,1.855-3.5,2.167-1.872,3.289,2.021,1.4,9.044.733,10.215-.962.4-.58-.458-1.813-1.938-2.73C685.969,14.262,685.226,13.886,684.388,13.937Zm-78.5.558a2.876,2.876,0,0,0-1.248.372,5.705,5.705,0,0,1-2.1.807.775.775,0,0,0-.788.745v1.427c0,.382.534.209,1.182-.4a2.741,2.741,0,0,1,2.529-.621c1.66.6,3.047-1.282,1.577-2.141A2.08,2.08,0,0,0,605.885,14.495Zm-43.062.217c-1.9-.013-4.834,1.03-5.682,2.327-.576.881,2.923,3.472,4.828,3.568a2.887,2.887,0,0,1,1.478.745c1.042.984,2.734-.137,1.971-1.3a1.134,1.134,0,0,0-1.478-.434c-.478.279-1.132-.129-1.445-.9a1.574,1.574,0,0,1,1.117-1.986c1.129-.409,1.364-.946.657-1.613A2.162,2.162,0,0,0,562.823,14.712Zm6.7,0a3.509,3.509,0,0,0-1.971.869c-1.767,1.221-1.825,1.549-.46,3.1.845.962,1.426,2.032,1.281,2.358s.16.589.69.589a2.97,2.97,0,0,1,1.741.714c1.042.984,2.734-.137,1.971-1.3a1.146,1.146,0,0,0-1.511-.4,1.115,1.115,0,0,1-1.478-.372c-.323-.493.447-1.138,1.741-1.458,3.2-.789,3.416-.8,3.416.248,0,1.749,1.558,2.352,3.055,1.179,1.031-.808,1.7-.838,2.168-.124s1.329.694,2.825-.062c1.522-.769,1.843-1.393,1.051-2.141s-1.568-.707-2.628.124c-1.185.929-1.636.814-2.168-.5-.37-.911-.98-1.37-1.347-1.024s-1.246.164-1.971-.4c-.918-.72-1.532-.678-2.036.093s-1.269.612-2.529-.465A3.3,3.3,0,0,0,569.523,14.712Zm28.971.031c-1.541.033-5.168,2.616-4.566,3.537a1.971,1.971,0,0,0,1.412.869c1.3,0,4.4-3.571,3.679-4.25A.737.737,0,0,0,598.495,14.743Zm-12.153.838a1.23,1.23,0,0,0-.46.155,1.191,1.191,0,0,0-.2,1.737,7.167,7.167,0,0,1,.953,1.924c.081.41.19,1.038.263,1.4s1.058-.14,2.2-1.117c1.958-1.673,1.986-4.15.033-3.009a1.224,1.224,0,0,1-1.577-.5A1.294,1.294,0,0,0,586.342,15.581Zm-87.437,3.1c-1.09-.019-1.215.3-1.215.931a4.354,4.354,0,0,1-1.774,2.637c-1.013.776-1.442.854-1.018.186.929-1.462-.771-2.5-4.829-2.947-2.716-.3-2.944-.122-1.774,1.21,1.112,1.266,1,1.833-.493,3.227-1.649,1.535-1.918,1.527-3.055.093-1.981-2.5-4.208-2.7-6.044-.558-1.18,1.376-2.319,1.751-3.712,1.241-1.963-.718-1.967-.751.033-2.141,2.243-1.559,1.478-1.744-3.482-.807-1.807.341-3.285,1.041-3.285,1.551s.473.648,1.051.31c2.172-1.268,3.319.657,1.511,2.544-.982,1.025-2.311,1.575-2.956,1.21s-.525.106.263,1.024c1.56,1.817,3.771,1.286,2.595-.62-.4-.645.321-.327,1.577.714,2.08,1.723,2.43,1.757,4.106.341,2.406-2.032,5.7-2.552,6.274-.993.252.679-.741,1.667-2.233,2.2-3.086,1.108-3.65,2.238-.887,1.8,2.884-.457,2.172,2.511-.788,3.289-1.445.38-1.861.752-.92.807a5.113,5.113,0,0,1,3.022,1.582c1.9,2.162,2.751,1.868,4.237-1.52a27.489,27.489,0,0,1,3.317-5.46c1.868-2.243,2.227-2.3,4.434-.931,1.312.812,2.753,1.125,3.219.714s.289.281-.394,1.52c-1.172,2.127-1.061,2.24,2.036,2.017,1.8-.13,3.469-.517,3.679-.838.383-.585-4.676-3.248-8.245-4.344-1.048-.322-1.633-.97-1.314-1.458s-.49-1.141-1.774-1.458c-1.815-.448-2.031-.843-1.051-1.768s2.539-.918,7.029.031c5.476,1.158,5.977,1.089,9.558-1.21l3.777-2.42-3.482-.652A57.942,57.942,0,0,0,498.9,18.683Zm24.34.621a2.655,2.655,0,0,0-1.347.31,1.153,1.153,0,0,0-.526,1.582,2.8,2.8,0,0,0,4.172-.062C526.141,20.22,524.676,19.313,523.244,19.3Zm11.6.248a1.332,1.332,0,0,0-.46.155,1.067,1.067,0,0,0-.361,1.52,1.208,1.208,0,0,0,1.609.341,1.067,1.067,0,0,0,.361-1.52A1.151,1.151,0,0,0,534.839,19.552Zm57.81,0a1.331,1.331,0,0,0-.46.155,1.067,1.067,0,0,0-.361,1.52,1.208,1.208,0,0,0,1.609.341,1.067,1.067,0,0,0,.361-1.52A1.151,1.151,0,0,0,592.648,19.552Zm85.172.186a7.755,7.755,0,0,0-1.807.217c-1.5.368-1.617.65-.526,1.3,1.847,1.106,3.762,1.1,4.5-.031C680.56,20.354,679.467,19.738,677.82,19.738Zm7.883.434a14.679,14.679,0,0,0-5.551,1.768l-3.547,1.8,5.945,1.272a45.748,45.748,0,0,1,8.54,2.575c3.275,1.663,3.7,1.377,4.007-2.482.368-4.56-.807-5.632-3.088-2.854l-1.938,2.358-.657-2.234C688.956,20.811,687.632,20.069,685.7,20.173Zm-503.272.465a.859.859,0,0,0-.23.093c-.581.339-.492,1.164.23,1.986.672.764,1.66,1.122,2.2.807.581-.339.492-1.133-.23-1.955A2.327,2.327,0,0,0,182.432,20.638ZM396.1,22.53a1.332,1.332,0,0,0-.46.155,1.067,1.067,0,0,0-.361,1.52,1.208,1.208,0,0,0,1.609.341,1.067,1.067,0,0,0,.361-1.52A1.151,1.151,0,0,0,396.1,22.53ZM169,23.74c-1.418.05-1.674.6.131,1.551.954.5,1.434,1.358,1.084,1.892-.381.583.336.749,1.807.4,1.764-.414,3.5.23,6.142,2.327,4.423,3.507,6.123,3.089,3.186-.807-1.255-1.665-4.123-3.45-7-4.375a19.926,19.926,0,0,0-4.664-.993C169.447,23.727,169.207,23.733,169,23.74Zm534.542.9c-1.609-.017-3,.916-4.566,2.854a18.862,18.862,0,0,0-2.628,3.785c0,.294,1.774-.045,3.942-.776a27.427,27.427,0,0,1,6.142-1.4c3.249-.065,3.846-1.164,1.478-2.73A8.454,8.454,0,0,0,703.546,24.64Zm-190.112.714c-1.11.042-2.094.908-1.511,1.8a2.151,2.151,0,0,0,1.544.931c1.472,0,2.259-1.8,1.084-2.482A2.046,2.046,0,0,0,513.434,25.354ZM507.521,26.5a1.332,1.332,0,0,0-.46.155,1.067,1.067,0,0,0-.361,1.52,1.208,1.208,0,0,0,1.609.341,1.067,1.067,0,0,0,.361-1.52A1.151,1.151,0,0,0,507.521,26.5ZM679.9,28.487a1.333,1.333,0,0,0-.46.155,1.067,1.067,0,0,0-.361,1.52,1.208,1.208,0,0,0,1.609.341,1.067,1.067,0,0,0,.361-1.52A1.151,1.151,0,0,0,679.9,28.487Zm33.634,0a1.333,1.333,0,0,0-.46.155,1.067,1.067,0,0,0-.361,1.52,1.208,1.208,0,0,0,1.609.341,1.067,1.067,0,0,0,.361-1.52A1.151,1.151,0,0,0,713.534,28.487Zm-557.8.341a21.312,21.312,0,0,1-3.909.248c-1.768,0-2.958.383-2.661.838s2.1.687,4.007.527,2.5-.061,1.347.217c-3.657.881-6.78,2.663-6.208,3.537.793,1.213,1.353,1.064,5.354-1.272,1.974-1.152,3.406-2.6,3.186-3.227S156.12,28.692,155.735,28.829Zm32.058.217c-.319.018-.038.412.755,1.334,1.64,1.9,2.867,2.125,3.81.683.357-.546.2-.993-.361-.993a11.87,11.87,0,0,1-2.956-.683A4.671,4.671,0,0,0,187.793,29.046ZM394,30.473a1.332,1.332,0,0,0-.46.155,1.067,1.067,0,0,0-.361,1.52,1.208,1.208,0,0,0,1.61.341,1.067,1.067,0,0,0,.361-1.52A1.151,1.151,0,0,0,394,30.473Zm282.743,0a1.333,1.333,0,0,0-.46.155,1.067,1.067,0,0,0-.361,1.52,1.208,1.208,0,0,0,1.609.341,1.067,1.067,0,0,0,.361-1.52A1.151,1.151,0,0,0,676.746,30.473Zm-532.807.589c-.255,0-.46.447-.46.993a1.065,1.065,0,0,0,1.117.993c.612,0,.817-.447.46-.993S144.195,31.062,143.94,31.062Zm24.077,1.4a1.333,1.333,0,0,0-.46.155,1.067,1.067,0,0,0-.361,1.52,1.208,1.208,0,0,0,1.609.341,1.067,1.067,0,0,0,.361-1.52A1.151,1.151,0,0,0,168.017,32.458Zm503.471,0a1.332,1.332,0,0,0-.46.155,1.067,1.067,0,0,0-.361,1.52,1.208,1.208,0,0,0,1.609.341,1.067,1.067,0,0,0,.361-1.52A1.151,1.151,0,0,0,671.488,32.458Zm35.212.093c-1.378.029-2.411.665-3.81,2.141-1.726,1.821-2.091,2.87-1.314,3.754,1.5,1.713.2,2.624-2.759,1.924-1.417-.336-4.136.16-6.339,1.148-2.81,1.259-4.321,1.427-5.584.683-1.221-.72-3.4-.606-7.39.372a49.043,49.043,0,0,1-9,1.4c-3.343,0-9.216,1.885-9.985,3.2-.227.386.477,1.319,1.577,2.079,1.94,1.34,1.477,4.283-.493,3.134-.533-.311-4.054-.706-7.818-.869-6.571-.284-6.832-.194-6.832,2.048,0,1.331.646,2.327,1.478,2.327,2.581,0,5.8,3.378,6.109,6.422.247,2.392-.106,2.981-1.807,2.978-1.613,0-2.045-.612-1.905-2.606.156-2.22-.5-2.87-4.5-4.312-3.389-1.222-5.062-1.39-6.044-.621a1.7,1.7,0,0,1-2.595-.093c-.83-.784-1.248-.816-1.248-.093,0,.592,1.252,1.829,2.759,2.761,3.916,2.424,1.717,4.185-2.595,2.079a8,8,0,0,1-4.237-4.778c-.541-1.768-1.032-2.5-1.084-1.613a4.71,4.71,0,0,1-1.708,2.885,2.47,2.47,0,0,0-.92,2.854,22.659,22.659,0,0,1,1.38,6.3c.048.41,1.371.745,2.923.745,3.229,0,7.686,3.489,7.686,6.019a2.754,2.754,0,0,0,1.741,2.358c1.234.447,1.442.934.657,1.675-1.546,1.46-5.551-.667-5.551-2.947a4.333,4.333,0,0,0-3.909-4.126c-.756,0-2.1,1.715-2.989,3.816a16.525,16.525,0,0,1-4.8,6.05c-3.053,2.132-3.309,2.154-6.8.589-2-.9-3.359-2.061-3.022-2.575.81-1.239,4.4-1.194,5.223.062,3.285,5.021,6.948-12.339,3.744-17.747a4.6,4.6,0,0,1,.263-3.847c1.311-2.717-.207-4.162-4.336-4.188-1.738-.011-2.709.792-3.482,2.885a10.375,10.375,0,0,1-3.613,4.5c-2.243,1.388-2.4,1.814-1.248,3.754a13.694,13.694,0,0,0,3.153,3.506,4.3,4.3,0,0,1,1.839,2.792c0,2.428-3.114,2.766-5.584.621-1.352-1.174-4.575-2.3-7.785-2.7-5.115-.642-5.658-.473-7.982,2.079-1.732,1.9-3.043,2.516-4.336,2.048-1.6-.58-1.658-.908-.427-2.327,1.137-1.311.792-1.269-1.675.248a37.613,37.613,0,0,1-6.7,3.071c-3.206,1.041-3.641.966-4.106-.714-.479-1.732-.759-1.749-3.514-.4a14.852,14.852,0,0,1-5.255,1.458c-1.253,0-3.9,1.34-5.88,2.978-4.013,3.328-5.807,3.666-7.719,1.489-1.071-1.219-.89-1.61.985-2.265,2.129-.744,2.048-.909-1.445-2.482-4.074-1.835-4.324-1.551-2.595,3.134,1.4,3.807-.259,6.628-3.055,5.15-1.848-.977-8.021,2.413-7.062,3.878.289.442-.133,1.312-.953,1.955-1.156.906-2.224.821-4.73-.4-3.493-1.706-4.364-1.059-1.38,1.024,1.375.96,1.549,1.6.657,2.451-1.842,1.766-7.567-1.457-8.442-4.747a9.533,9.533,0,0,0-2.89-4.375c-1.951-1.5-2.013-1.755-.46-2.327.96-.353,3.2.072,4.96.931C535.751,83.873,545,82.4,545,78.779c0-1.59-12.133-8-15.142-8a4.434,4.434,0,0,1-2.726-1.52c-1-1.141-2.534-1.341-6.307-.869-5.532.693-8.15-.944-4.007-2.513,2.4-.911,2.4-.931-.394-.993-1.556-.035-3.125-.509-3.482-1.055a2.339,2.339,0,0,0-1.708-.993c-.578,0-.7.558-.263,1.241.626.985.476,1-.788.031-1.125-.86-1.937-.9-2.726-.155s-1.335.685-1.905-.186c-.554-.847-.386-.986.558-.434.911.532,1.122.42.624-.341-.514-.786-1.361-.843-2.66-.186-1.045.528-2.269.639-2.726.248s-.492-.184-.1.465c1.1,1.82-2.494,3.246-5.485,2.172-2.361-.848-2.465-.784-1.15.838.79.973,1.031,1.429.526,1.024a2.091,2.091,0,0,0-2.332.372c-.776.608-1.412.779-1.412.372s-.687-.212-1.511.434a4.653,4.653,0,0,1-2.89.993c-3.232-.413-4.292.038-3.153,1.334,1.449,1.649-.156,4.177-2.66,4.188a1.774,1.774,0,0,0-1.872,1.986c0,1.092-.3,1.762-.69,1.489s-1.862.5-3.252,1.737-2.9,1.9-3.383,1.489-.6.048-.23,1.024c.394,1.035.165,1.929-.591,2.141-5.14,1.442-5.46,1.658-3.942,2.544a4.728,4.728,0,0,1,1.642,3.475c.167,2.951-2.513,4.816-4.861,3.413-2.05-1.225-3.143-1.159-2.825.155.145.6-.635,1.6-1.741,2.234-5.241,3-6.19,4.811-4.467,8.594a11.312,11.312,0,0,1,.427,4.468c-.22,2.547.15,3.031,2.5,3.289,1.764.193,3.89-.636,5.978-2.3l3.252-2.575L468.6,111.2a52.978,52.978,0,0,1,2.825,6.732c1.883,5.625,2.024,5.749,4.8,4.033a11,11,0,0,1,4.763-1.551c1.783,0,2.132-.43,1.675-2.079-.789-2.849.952-6.857,2.989-6.857.916,0,1.384-.422,1.051-.931a1.157,1.157,0,0,1,.559-1.582c.753-.439.393-1.433-1.051-2.885-1.836-1.846-2.049-2.86-1.347-6.05.786-3.575,2.589-5.3,8.376-8a3.119,3.119,0,0,0,1.314-2.668c0-4.619,6.539-7.513,9.459-4.188,1.469,1.671,1.139,2.227-5.288,8.563-3.245,3.2-3.673,4.173-3.317,7.694.546,5.41,1.872,6.234,7.029,4.437,5.009-1.746,10.7-1.845,12.777-.217,3,2.351.314,3.156-12.515,3.754-1.985.092-2.577,3.517-.788,4.561,1.434.837,1.324,4.188-.164,5.057-.666.389-1.834-.1-2.595-1.086-2.02-2.609-4.91-.185-4.073,3.413.491,2.111-.031,3.066-2.661,4.9-2.607,1.821-3.535,2.017-4.763,1.055s-2.589-.668-6.865,1.427c-5.089,2.494-5.378,2.527-5.88.714-.455-1.644-.932-1.783-3.613-.9-2.531.833-3.483.714-5.19-.745-1.228-1.05-1.829-2.439-1.445-3.351,1.546-3.672,1.436-5.149-.361-4.809-1.817.344-2.078,2.143-1.182,8.222.408,2.769.192,2.979-2.989,3.071a10.1,10.1,0,0,0-5.354,1.737c-1.055.9-2.208,1.358-2.595.993s-.723.2-.723,1.272a4.318,4.318,0,0,1-4.369,4.344,4,4,0,0,0-2.989,1.986c-1.266,2.234-6.94,5.329-8.31,4.53-.5-.289-1.171.381-1.478,1.489-.444,1.6-1.088,1.878-3.252,1.365-3.518-.834-3.655,1.259-.164,2.513,2.722.978,5.537,5.888,5.682,9.928.118,3.285-2.689,6.075-5.485,5.46-3.44-.755-12.541-1.285-13.861-.807-.75.272-1,2.194-.69,5.212.267,2.624-.033,5.662-.657,6.763-1.6,2.831.67,7.219,3.745,7.229a4.219,4.219,0,0,1,3.318,1.706c.835,1.41,1.415,1.494,3.449.558a27.905,27.905,0,0,1,5.091-1.644c3.912-.79,6.59-3,6.9-5.678.151-1.31.313-2.7.361-3.1s1.99-1.647,4.3-2.761c3.109-1.5,4.2-2.644,4.2-4.375,0-3.152,2.521-4.913,6.044-4.25a7.07,7.07,0,0,0,4.927-.869c3.028-2.1,5.535-1.75,7.653,1.117,2.852,3.861,8.553,8.748,10.577,9.028,2.736.379,5.628,4.265,4.861,6.546-.467,1.39-.271,1.764.624,1.241.752-.439,1.034-1.851.69-3.475-.687-3.246.145-4.389,2.1-2.854.946.742,1.412.763,1.412.062,0-.575-2.173-2.067-4.829-3.32a15.477,15.477,0,0,1-6.832-5.771c-1.108-1.925-2.611-4.267-3.318-5.212-1.046-1.4-.959-2.041.493-3.413,1.662-1.57,1.835-1.578,2.463-.031.371.913,1.057,1.444,1.511,1.179s1.585.61,2.5,1.924a30.176,30.176,0,0,0,6.339,5.585c3.186,2.161,4.972,4.17,5.453,6.236.828,3.562,5.59,9.587,7.588,9.587.757,0,1.086-.469.723-1.024a1.358,1.358,0,0,0-1.807-.341c-.7.407-.839.2-.361-.527.6-.91,1.145-.91,2.266-.031,1.688,1.323,1.015,2.916-1.215,2.916a1.5,1.5,0,0,0-1.511,1.489c0,1.883.51,1.857,3.712-.124,3.182-1.969,3.254-3.037.329-5.274-2.073-1.585-1.955-4.786.131-3.568.478.279,1.15-.155,1.478-.962.424-1.042,1.745-1.349,4.631-1.086,3.171.289,4.347-.059,5.354-1.582.852-1.288.972-2.364.3-3.134-1.5-1.708,3.326-10.7,7.193-13.4,2.579-1.8,3.564-2.005,5.321-1.117,1.595.806,1.9,1.431,1.084,2.358s-.485,1.6,1.38,2.544c3.223,1.629,5.754.394,3.055-1.489-1.245-.868-1.542-1.629-.854-2.234,1.5-1.323,7.975-3.247,8.967-2.668,1.123.656.7,2.915-.887,4.716-1.073,1.221-.416,2.1,3.942,5.243,6.059,4.365,7.029,6.049,4.828,8.346-2.005,2.093-8.119,1.967-13.4-.279-4.714-2-6.822-2.054-10.281-.186A12.9,12.9,0,0,1,517.012,173a3.331,3.331,0,0,0-2.891,1.582,2.074,2.074,0,0,1-1.938,1.365c-3.106-.384-3.706.186-3.383,3.289a21.323,21.323,0,0,0,.526,3.475,3.372,3.372,0,0,1,.328,1.148,3.881,3.881,0,0,0,2.595,2.668,15.3,15.3,0,0,1,2.595.869,3.023,3.023,0,0,0,2.989-.217c.721-.681,2.209-.671,4.631.031a8.5,8.5,0,0,0,6.274-.124c3.8-1.636,4.075-.093,1.609,8.78-2.472,8.894-4.968,11.487-9.1,9.462a6.244,6.244,0,0,0-5.518-.279c-2.31.824-4.37.5-10.708-1.675-11.6-3.987-11.512-4-14.682,2.42-1.314,2.661-3.983,2.184-10.675-1.924-3.615-2.218-7.4-4.033-8.442-4.033a7.4,7.4,0,0,1-4.04-2.017c-1.679-1.586-1.887-2.406-1.018-3.94,1.333-2.352.36-6.615-1.675-7.353-.812-.294-4.118-.069-7.358.5s-6.545.791-7.358.5-5.449.8-10.314,2.42c-9.329,3.11-12.7,3.585-13.763,1.955-1.113-1.7-2.117-1.1-3.35,1.986a11.09,11.09,0,0,1-4.434,4.716c-2.957,1.589-4.029,4.045-3.317,7.6.431,2.15-2.57,6.755-5.255,8.067-1.6.784-4.374,3.853-6.175,6.826s-3.813,5.565-4.467,5.771c-1.83.576-2.295,3.486-2.036,12.844.159,5.767-.281,9.765-1.314,12.1-1.423,3.216-1.367,3.591.493,5.181a5.71,5.71,0,0,1,2,2.73c0,.542,1.693,2.909,3.745,5.274s3.589,4.982,3.416,5.8c-.5,2.386,3.3,6.921,8.277,9.9,4.315,2.579,4.92,2.693,9.46,1.613a22.561,22.561,0,0,1,7.588-.59c1.57.32,5.21-.283,8.507-1.427a36.651,36.651,0,0,1,8.146-2.017c2.321,0,5.909,2.6,6.7,4.84.273.775,1.432.844,3.744.217,4.929-1.335,6.578.853,5.912,7.849-.932,9.795-.613,12.014,2.168,14.768,2.442,2.418,4.783,6.741,4.467,8.222-.075.352.646,1.469,1.609,2.482a7.275,7.275,0,0,1,1.774,4.313,24.454,24.454,0,0,0,.723,5.212,8.84,8.84,0,0,1-.953,6.081,48.042,48.042,0,0,0-2.89,8.315c-1.074,4.394-.97,5.475.92,9.307a35.964,35.964,0,0,1,4.04,13.279c.931,6.938,2.615,11.706,6.832,19.391,4.5,8.2,4.881,9.689,2.6,10.517-2.513.911,3.52,5.614,6.208,4.84a90.412,90.412,0,0,1,9.23-1.427c7.66-.884,10.818-2.353,14.387-6.7,5.436-6.621,7.71-10.878,7.982-14.954.239-3.584.851-4.635,3.81-6.546,3.193-2.062,3.488-2.676,3.219-6.546a18.845,18.845,0,0,0-1.314-6.081c-.8-1.405-.3-2.45,2.266-4.871a31.337,31.337,0,0,1,6.274-4.53c2.623-1.281,5.25-4.325,5.781-6.67.093-.41.273-1.08.394-1.489.747-2.516-.361-11.875-1.61-13.558a9.522,9.522,0,0,1-1.511-4.84,11.212,11.212,0,0,0-.92-4.5c-1.841-3.3,6.62-16.775,13.533-21.531a37.874,37.874,0,0,0,6.668-6.236c3.944-4.915,10.178-17.07,10.577-20.6a4.579,4.579,0,0,1,2.3-3.63c2.427-1,.075-.662-10.084,1.489-6.458,1.368-6.979,1.345-9.723-.5-1.6-1.071-2.67-2.326-2.365-2.792a1.1,1.1,0,0,0-.558-1.489,22.6,22.6,0,0,1-3.712-4.592,42.454,42.454,0,0,0-4.7-5.864,6.408,6.408,0,0,1-2.069-3.413,3.629,3.629,0,0,0-2.1-2.513c-1.649-.833-2.1-2.079-2.1-5.771,0-2.59-.632-5.593-1.412-6.67a15.888,15.888,0,0,1-2.069-4.437c-.357-1.365-2.327-4.873-4.369-7.787s-3.712-5.9-3.712-6.639c0-2.387,2.1-2.648,2.989-.372.815,2.08.919,2.091,1.642.31s.883-1.737,2.825.589c2.6,3.113,5.157,8.6,5.157,11.045a1.731,1.731,0,0,0,1.544,1.861c1.994,0,3.712,3.094,3.712,6.67,0,2.982,1.746,5.949,6.142,10.455a9.718,9.718,0,0,1,2.858,6.453c.363,8.219,2.138,10.479,6.536,8.284,1-.5,5.354-2.545,9.69-4.53s9.389-4.42,11.234-5.4c3.844-2.04,11.32-8.017,10.084-8.067-.454-.018.235-.855,1.511-1.861s2.032-2.114,1.675-2.451.17-1.487,1.182-2.544c1.779-1.856,1.7-2-2.431-4.468-2.5-1.488-4.568-3.612-4.96-5.088l-.69-2.513-1.577,2.141c-1.777,2.4-8.208,5.278-9.755,4.375a2.406,2.406,0,0,1-1.018-1.893,4.039,4.039,0,0,0-1.577-2.544,4.314,4.314,0,0,1-1.577-2.854c-.01-.889-1.466-3.606-3.219-6.05-2.843-3.964-3.008-4.581-1.511-5.616,2.394-1.654,5.624-.551,7.292,2.482,2.474,4.5,7.572,7.356,11.792,6.608,3.09-.548,3.78-.349,4.237,1.3.7,2.526,4.136,3.411,14.42,3.63,7.575.161,8.512.384,10.511,2.73a11.384,11.384,0,0,0,5.091,3.258c3.539.827,4.651,2.255,2.4,3.072-1.292.468-1.393.923-.46,1.986,1.76,2,3.772,1.678,4.434-.714,1.042-3.762,2.856-.893,2.759,4.375a34.559,34.559,0,0,0,.361,6.639c.245.819,1.035,3.633,1.774,6.236s1.759,4.947,2.266,5.243a2.971,2.971,0,0,1,.92,2.327c0,.982,1.641,4.774,3.646,8.408l3.646,6.608,1.642-2.389c2.413-3.478,3.679-8.371,3.679-14.24,0-4.361.375-5.358,2.365-6.36,3.108-1.565,14.918-12.791,15.8-15.016.459-1.158,1.83-1.737,4.073-1.737a9.35,9.35,0,0,0,5.223-1.582c1.742-1.489,2-1.371,3.975,1.737a48.294,48.294,0,0,0,4.369,5.74c1.71,1.848,2.149,3.42,1.872,6.7-.3,3.523-.039,4.281,1.445,4.281a6.738,6.738,0,0,0,3.81-2.048c2.411-2.445,2.815-1.992,3.81,4.53.417,2.73,1.2,5.461,1.741,6.081s.766,4.056.493,7.632c-.413,5.4-.154,6.927,1.544,8.967a8.567,8.567,0,0,1,2.036,3.94c0,4.553,6.989,14.291,8.934,12.441.19-.181-.218-2.738-.92-5.678-.854-3.578-2.19-6.04-4.007-7.446a11.719,11.719,0,0,1-3.515-4.592,7.8,7.8,0,0,0-2.3-3.506c-1.321-.912-1.34-1.709,0-5.988,1.421-4.538,1.775-4.884,4.566-4.623,4.587.43,5.65.974,5.65,2.916a4.253,4.253,0,0,0,2.1,3.04,4.625,4.625,0,0,1,2.1,3.785c0,2.513.092,2.493,5.288-1.737l5.288-4.312-.361-5.616c-.268-4.3-1.088-6.609-3.449-9.742-1.7-2.257-3.712-4.963-4.5-6.019-1.286-1.723-1.07-2.309,2.365-5.553,3.619-3.418,3.945-3.524,5.781-1.955,1.724,1.473,2.01,1.484,2.562.124a2.913,2.913,0,0,1,2.562-1.52,4.934,4.934,0,0,0,2.956-.993c.579-.547,3.072-1.259,5.518-1.582,3.513-.464,5.41-1.561,9.1-5.212,2.569-2.543,4.684-5.207,4.7-5.926s1.215-2.771,2.661-4.561c3.107-3.848,3.271-5.11.788-6.019-1.714-.628-1.7-.757.2-2.079,1.707-1.186,1.764-1.427.329-1.427-2.614,0-3.377-2.047-.986-2.637,2.011-.5,1.955-.725-1.051-4.933-3.04-4.254-3.072-4.51-1.38-6.95a14.075,14.075,0,0,1,5.091-3.971l3.318-1.458-4.631.465c-4.86.495-9.558-1.419-9.558-3.878,0-2.127,9.777-8.4,11.266-7.229.994.779.91,1.532-.394,3.413-.924,1.332-1.437,2.676-1.117,2.978s1.128-.381,1.774-1.52c1.276-2.252,4.265-2.685,7.489-1.055,1.6.808,1.8,1.447.985,2.885-.83,1.465-.545,2.17,1.412,3.382,1.988,1.23,2.424,2.268,2.234,5.46-.233,3.907-.184,3.939,2.529,2.854,4.521-1.808,4.606-2.218,1.839-8.687l-2.661-6.236,2.464-2.575c1.364-1.42,4.146-4.336,6.175-6.484,3.011-3.187,3.981-3.672,5.223-2.7,2.185,1.713,4.3.59,8.836-4.623,8.582-9.87,11.892-17.374,12.087-27.3.068-3.453-2.659-6.41-4.631-5-1.67,1.2-5.584,1.18-5.584-.031,0-.483-1.094-1.27-2.431-1.737-2.217-.775-2.3-1.023-.92-2.885.833-1.123,5.424-5.17,10.182-8.966,8.265-6.594,12.766-8.418,15.142-6.174,1.029.971,8.209.334,9.755-.869.824-.641,2.07-.549,3.679.279,3.125,1.609,10.612,1.908,9.263.372-1.488-1.693,8.2-8.984,12.285-9.245,3.387-.217,5.476,1.151,3.514,2.3a2.758,2.758,0,0,0-1.084,2.2c0,1.317.433,1.245,2.431-.527,1.338-1.187,2.994-2.172,3.679-2.172a1.314,1.314,0,0,0,1.248-1.365c0-1.806,2.767-3.946,4.106-3.165,1.464.854-2.229,6.911-4.467,7.322-.971.178-4.2,2.747-7.161,5.709s-5.943,5.4-6.6,5.4-2,1.3-2.989,2.885c-2.09,3.342-2.242,10.584-.361,16.474L842,138.78l2.529-3.227c1.39-1.775,3.182-3.227,3.974-3.227s1.128-.454.755-1.024c-1.076-1.645,2.574-6.166,4.434-5.491,1.156.419,1.443.132.985-.993-.784-1.93,1.186-5.674,2.562-4.871.549.321.985.143.985-.4a2.156,2.156,0,0,0-1.051-1.613,1.163,1.163,0,0,1-.46-1.613,2.022,2.022,0,0,0-.46-2.2c-1.475-1.679,2.5-8.007,4.566-7.26a2.777,2.777,0,0,0,2.726-.9,3.378,3.378,0,0,1,2.431-1.272,15.241,15.241,0,0,0,4.172-.62c2.163-.571,3.436-.353,4.631.776,1.494,1.411,1.954,1.328,4.96-.838,5.587-4.025,14.582-7.352,16.752-6.205a2.541,2.541,0,0,0,2.858.062c1.247-1.178-1.888-7.229-3.744-7.229-1.9,0-4.106-2.634-2.825-3.382.557-.326,2.223-.162,3.712.372,3.613,1.3,5.879.317,5.879-2.513,0-3.06,2.089-4.178,2.825-1.52.659,2.381.821,2.429,3.416,1.117,1.433-.725,2.366-.48,3.777.993a6.142,6.142,0,0,0,3.153,1.955,4.327,4.327,0,0,1,2.595,1.489c1.483,1.688,3.653,2.051,2.595.434-.787-1.2,2.386-4.9,4.2-4.9a4.355,4.355,0,0,0,2.431-1.179c.943-.89.226-1.591-3.055-2.978-5.406-2.286-5.8-2.262-6.5.279-.677,2.447-2.825,1.621-2.825-1.086,0-4.438-13.762-10.652-25.554-11.542-4.735-.357-9.475-1.062-10.544-1.582-1.738-.846-1.866-.64-1.248,2.017.906,3.894-.6,4.619-4.894,2.358-2.578-1.359-5.395-1.8-10.839-1.675-8.724.192-12.088-.743-12.088-3.351,0-2.718-2.3-3.219-11.693-2.544-6.843.492-8.361.349-8.869-.9a1.651,1.651,0,0,0-2-1.024c-1.374.5-3.122-1.227-3.153-3.1-.031-1.851-3.724-1.641-7.226.4-3.889,2.27-5.81,1.709-3.252-.962,1.543-1.611,1.261-1.73-4.467-1.737a60.891,60.891,0,0,1-7.588-.341c-1.027-.233-1.52.59-1.577,2.637-.065,2.366-.562,2.978-2.365,2.978a5.608,5.608,0,0,0-2.956.652c-.382.357-1.9.043-3.383-.683-2.083-1.021-3.146-1.05-4.664-.155a3.29,3.29,0,0,1-3.974-.031c-1.678-.99-2.081-.845-2.529.776-1.008,3.643-3.645,3.276-9-1.21-5.271-4.415-5.788-5.8-2.168-5.8,1.718,0,1.856-.284.854-1.8-.915-1.383-2.448-1.791-6.569-1.737-3.1.04-5.846.615-6.471,1.365-1.449,1.74-12.7,1.23-12.317-.558.337-1.591-9.338-1.729-11-.155-.851.8-1.524.471-2.529-1.241a12.613,12.613,0,0,1-1.412-2.978c-.08-1.427-1.237-1.651-4.763-.869-3,.667-3.2.853-1.051.962,2.575.131,7.857,3.04,5.518,3.04a2.459,2.459,0,0,1-1.839-.993c-.357-.546-1.894-.993-3.416-.993-2.649,0-2.676.069-.723,1.427,2.015,1.4,2.01,1.416-.066,2.048a33.051,33.051,0,0,0-3.679,1.4c-2.257,1.064-7.883.773-7.883-.4,0-.546,1.563-1.732,3.482-2.637a29.759,29.759,0,0,0,5.354-3.227,7.3,7.3,0,0,1,3.876-1.613c3.081-.054,7.277-2.508,5.781-3.382-.945-.552-.905-1.109.131-2.3,1.142-1.308,1.09-1.466-.23-1.024a4,4,0,0,1-3.285-.869c-1.35-1.107-2.7-1.192-6.569-.372-3.064.649-5.548.706-6.7.124a29.98,29.98,0,0,0-3.942-1.582c-1.991-.606-2-.694-.23-1.924,1.717-1.194,1.633-1.366-1.051-1.892a7.036,7.036,0,0,0-1.511-.155Zm-499.792.9a1.332,1.332,0,0,0-.46.155,1.067,1.067,0,0,0-.361,1.52,1.208,1.208,0,0,0,1.609.341,1.067,1.067,0,0,0,.361-1.52A1.151,1.151,0,0,0,206.908,33.451Zm480.35,0a1.332,1.332,0,0,0-.46.155,1.067,1.067,0,0,0-.361,1.52,1.208,1.208,0,0,0,1.609.341,1.067,1.067,0,0,0,.361-1.52A1.151,1.151,0,0,0,687.258,33.451Zm-547.852.558a2.572,2.572,0,0,0-1.412.838,6.4,6.4,0,0,1-3.777,1.179c-1.4,0-4.246,1.429-6.339,3.165-3.054,2.533-3.366,3.041-1.478,2.575,1.294-.32,2.658-.121,3.022.434s1.61-.4,2.759-2.11c1.584-2.363,2.417-2.857,3.449-2.048s1.79.482,3.022-1.179C139.893,35.188,140.065,34,139.406,34.01Zm91.413.155a1.351,1.351,0,0,0-.854.279c-.349.33.272.54,1.38.5,1.224-.048,1.463-.273.624-.589A2.976,2.976,0,0,0,230.819,34.165Zm437.515.279a1.333,1.333,0,0,0-.46.155,1.067,1.067,0,0,0-.361,1.52,1.208,1.208,0,0,0,1.61.341,1.067,1.067,0,0,0,.361-1.52A1.151,1.151,0,0,0,668.334,34.444Zm47.3,0a1.333,1.333,0,0,0-.46.155,1.067,1.067,0,0,0-.361,1.52,1.208,1.208,0,0,0,1.609.341,1.067,1.067,0,0,0,.361-1.52A1.151,1.151,0,0,0,715.633,34.444Zm-569.692.993a1.333,1.333,0,0,0-.46.155,1.067,1.067,0,0,0-.361,1.52,1.208,1.208,0,0,0,1.61.341,1.067,1.067,0,0,0,.361-1.52A1.151,1.151,0,0,0,145.941,35.437Zm108.266,0a1.332,1.332,0,0,0-.46.155,1.067,1.067,0,0,0-.361,1.52,1.208,1.208,0,0,0,1.609.341,1.067,1.067,0,0,0,.361-1.52A1.151,1.151,0,0,0,254.207,35.437Zm251.209.993a1.332,1.332,0,0,0-.46.155,1.067,1.067,0,0,0-.361,1.52,1.208,1.208,0,0,0,1.609.341,1.067,1.067,0,0,0,.361-1.52A1.151,1.151,0,0,0,505.416,36.43Zm317.429,0a1.331,1.331,0,0,0-.46.155,1.067,1.067,0,0,0-.361,1.52,1.208,1.208,0,0,0,1.609.341,1.067,1.067,0,0,0,.361-1.52A1.151,1.151,0,0,0,822.845,36.43ZM191.6,37.143c-.708,0-.857.294-.624.962.275.789,2.473,1.609,5.124,1.893,3.918.419,4.742.884,5.19,2.978.512,2.4,1.5,2.859,7,3.289a6.279,6.279,0,0,1,3.153,1.024c.482.46,4.2.586,8.244.279s8.926-.573,10.839-.589c2.142-.019,3.21-.417,2.792-1.055-.373-.57-.05-1.8.723-2.73,1.214-1.464,1.2-1.555-.164-.558a8.221,8.221,0,0,1-4.2,1.117c-1.445-.017-6.649.2-11.562.465-9.166.488-13.664-.737-13.664-3.723,0-.714-1.727-1.507-3.942-1.8-2.168-.286-5.3-.847-6.963-1.241a9.2,9.2,0,0,0-1.938-.31Zm497.757.279a1.331,1.331,0,0,0-.46.155,1.067,1.067,0,0,0-.361,1.52,1.208,1.208,0,0,0,1.609.341,1.067,1.067,0,0,0,.361-1.52A1.151,1.151,0,0,0,689.359,37.423Zm-73.872.248a16.88,16.88,0,0,0-5.847,1.427c-3.011,1.258-6.251,1.921-8.245,1.644a17.99,17.99,0,0,0-7.85,1.365,26.242,26.242,0,0,1-7.85,1.862c-2.551,0-2.987.25-2,1.179s.541,1.835-1.971,4q-3.225,2.782-1.839,3.2c3.643,1.085,4.275,1.529,1.708,1.21-3.35-.417-3.985-.058-6.537,3.723-1.6,2.371-1.636,2.782-.3,2.3,1.753-.635,4.41,1.641,3.515,3.009-.3.456,1.663.876,4.369.931s4.217-.127,3.35-.4c-2.1-.67-4.2-3.258-4.2-5.181,0-2.088,8.2-10.632,11.956-12.472a14.557,14.557,0,0,1,4.861-1.489c2.086,0,13.9-3.458,16.457-4.809C616.919,38.178,616.725,37.685,615.487,37.671Zm-456.139.434c-.574.06-.953.944-.821,2.637.17,2.169-.306,2.782-2.234,3.04a8.367,8.367,0,0,1-4.73-1.086,21.9,21.9,0,0,0-6.569-2.141c-4.026-.642-4.237-.55-4.237,1.862,0,2.456,1.981,3.487,3.186,1.644.744-1.138,5.769.054,5.88,1.4.045.546-1,1.289-2.332,1.644-2.093.557-1.967.659.92.745a19.408,19.408,0,0,0,6.307-1.055,40.316,40.316,0,0,1,7.095-1.737c2.265-.329,4.3-1.141,4.533-1.8.265-.756-.406-1.031-1.807-.776-1.6.292-2.478-.289-3.186-2.048C160.693,38.794,159.922,38.045,159.349,38.105Zm20.463.186a5.227,5.227,0,0,0-1.872.4c-1.744.739-1.688,1.017.788,3.537,3.483,3.543,6.8,3.646,6.8.217C185.527,40.1,182.6,38.2,179.812,38.291Zm-7.588.124a1.333,1.333,0,0,0-.46.155,1.067,1.067,0,0,0-.361,1.52,1.208,1.208,0,0,0,1.609.341,1.067,1.067,0,0,0,.361-1.52A1.151,1.151,0,0,0,172.224,38.415Zm659.033,0a1.333,1.333,0,0,0-.46.155,1.067,1.067,0,0,0-.361,1.52,1.208,1.208,0,0,0,1.61.341,1.067,1.067,0,0,0,.361-1.52A1.151,1.151,0,0,0,831.258,38.415ZM179.283,39.5a2.327,2.327,0,0,1,1.971.931c.722.822.811,1.615.23,1.955-.541.316-1.529-.042-2.2-.807-.722-.822-.811-1.646-.23-1.986A.859.859,0,0,1,179.283,39.5Zm616.661.807a1.264,1.264,0,0,0-.328.093c-1.531.555-2.072,3.72-.821,4.9,1.047.989,4.344.781,5.058-.31.4-.611,1.582-.611,3.285,0,3.6,1.293,4.053,1.2,2.562-.5a2.342,2.342,0,0,1-.591-2.482c.373-.57.217-1.024-.361-1.024a2.422,2.422,0,0,0-1.741,1.055c-.453.692-1.555.481-3.285-.589A7.1,7.1,0,0,0,795.944,40.308Zm-6.734.155c-.973.03-1.641,1.353-.821,2.606.509.777,1.017.777,1.84,0a1.264,1.264,0,0,0,0-2.172A1.393,1.393,0,0,0,789.211,40.463Zm19.938.527c-2.276,0-2.485.231-1.38,1.489,1.5,1.708,1.391,1.693,3.58.9C813.725,42.518,812.321,40.99,809.149,40.99Zm-674.769.4a1.333,1.333,0,0,0-.46.155,1.067,1.067,0,0,0-.361,1.52,1.208,1.208,0,0,0,1.609.341,1.067,1.067,0,0,0,.361-1.52A1.151,1.151,0,0,0,134.38,41.394Zm54.657,0a1.332,1.332,0,0,0-.46.155,1.067,1.067,0,0,0-.361,1.52,1.208,1.208,0,0,0,1.609.341,1.067,1.067,0,0,0,.361-1.52A1.151,1.151,0,0,0,189.037,41.394Zm-15.011.093a.859.859,0,0,0-.23.093c-.581.339-.492,1.164.23,1.986.672.764,1.66,1.122,2.2.807.581-.339.492-1.133-.23-1.955A2.327,2.327,0,0,0,174.026,41.487Zm218.921.9a1.332,1.332,0,0,0-.46.155,1.067,1.067,0,0,0-.361,1.52,1.208,1.208,0,0,0,1.609.341,1.067,1.067,0,0,0,.361-1.52A1.151,1.151,0,0,0,392.947,42.387Zm424.541.683c-.526.036-.263.258.788.9a9.1,9.1,0,0,0,4.2.869l2.628-.062-2.628-.807a22.85,22.85,0,0,0-4.2-.869C817.926,43.082,817.663,43.057,817.488,43.069Zm-647.377.31a1.332,1.332,0,0,0-.46.155,1.067,1.067,0,0,0-.361,1.52,1.208,1.208,0,0,0,1.609.341,1.067,1.067,0,0,0,.361-1.52A1.151,1.151,0,0,0,170.11,43.379Zm480.35,0a1.331,1.331,0,0,0-.46.155,1.067,1.067,0,0,0-.361,1.52,1.208,1.208,0,0,0,1.609.341,1.067,1.067,0,0,0,.361-1.52A1.151,1.151,0,0,0,650.46,43.379Zm-456.111.031a3.761,3.761,0,0,0-.591.031,2.224,2.224,0,0,0-1.314.527c-.805.76-.691,1.35.427,2.017,1.816,1.084,3.376.8,3.909-.714C197.13,44.279,195.735,43.478,194.349,43.41Zm201.741.962a1.333,1.333,0,0,0-.46.155,1.067,1.067,0,0,0-.361,1.52,1.208,1.208,0,0,0,1.61.341,1.067,1.067,0,0,0,.361-1.52A1.151,1.151,0,0,0,396.09,44.372Zm93.548.993a1.333,1.333,0,0,0-.46.155,1.067,1.067,0,0,0-.361,1.52,1.208,1.208,0,0,0,1.609.341,1.067,1.067,0,0,0,.361-1.52A1.15,1.15,0,0,0,489.638,45.365Zm298.514,1.986a1.332,1.332,0,0,0-.46.155,1.067,1.067,0,0,0-.361,1.52,1.208,1.208,0,0,0,1.609.341,1.067,1.067,0,0,0,.361-1.52A1.151,1.151,0,0,0,788.152,47.351ZM802.769,48c-.464.029-.824.859-.92,2.42-.134,2.2.238,2.482,3.449,2.482,2.152,0,3.374-.4,2.989-.993a2.892,2.892,0,0,0-2.2-.993,2.514,2.514,0,0,1-2.135-1.489C803.55,48.44,803.13,47.979,802.769,48ZM127.9,48.1c-2.471-.005-5.533,1.265-5.387,2.668.391,3.767-.191,5.231-2.431,6.081-1.8.683-1.917.914-.526.962a4.479,4.479,0,0,1,3.055,1.924c1.334,2.017,4.249,1.8,6.241-.465a4.231,4.231,0,0,1,2.661-1.4c.8,0,1.445-.43,1.445-.962s1.415-1.649,3.12-2.482c3.911-1.91,5.664-1.937,2.135-.031-1.445.78-2.155,1.416-1.577,1.427,1.811.034,4.047-1.7,4.3-3.351.315-2.03-3.109-3.741-6.734-3.382a8.627,8.627,0,0,1-4.172-.527A4.342,4.342,0,0,0,127.9,48.1Zm493.124,1.241a1.332,1.332,0,0,0-.46.155,1.067,1.067,0,0,0-.361,1.52,1.208,1.208,0,0,0,1.609.341,1.067,1.067,0,0,0,.361-1.52A1.151,1.151,0,0,0,621.024,49.336Zm-418.99.062c-2.411.1-5.563.694-6.372,1.458-.522.493-.626,2.538-.23,4.53.6,3,.99,3.426,2.234,2.451.827-.648,1.239-1.591.92-2.079s.266-1.168,1.314-1.52c2.75-.924,5.612-3.459,4.993-4.406C204.645,49.455,203.48,49.339,202.034,49.4Zm-13.96.248a6.99,6.99,0,0,0-2.365.869,13.546,13.546,0,0,1-4.27,1.4c-1.123,0-1.155.306-.2,1.4,1.749,1.991-.353,2.961-3.317,1.52-3.14-1.527-1.414.155,3.909,3.816,2.312,1.591,4.373,2.512,4.566,2.048s1.207-.838,2.266-.838c2.743,0,3.108-2.029.755-4.25-1.369-1.293-1.684-2.226-.953-2.916a2.27,2.27,0,0,0,.558-2.3C188.819,49.881,188.573,49.629,188.074,49.646Zm446.618.683a1.331,1.331,0,0,0-.46.155A1.067,1.067,0,0,0,633.87,52a1.208,1.208,0,0,0,1.609.341,1.067,1.067,0,0,0,.361-1.52A1.151,1.151,0,0,0,634.692,50.329Zm-467.05.589c-.578,0-.933.54-.788,1.21s-.8,1.364-2.1,1.551a2.354,2.354,0,0,0-2.365,2.7c0,2.816-1.85,4.235-2.726,2.079-.341-.84-1.973-2.174-3.613-2.947-2.606-1.228-3.05-1.211-3.58.093-.506,1.246-.876,1.276-2.266.186s-1.841-1.035-2.693.4c-1.311,2.213-3.266,1.089-2.431-1.4.352-1.046.306-1.892-.1-1.892-.558,0-6.131,2.9-8.639,4.5-.161.1.213,1.437.821,2.947,1.041,2.585,1.406,2.7,6.077,2.2,5.087-.542,9.179.647,8.08,2.327-.339.519-3.785.967-7.653,1.024-6.594.1-6.8.177-3.186,1.086a13.945,13.945,0,0,1,5.584,2.761c2.052,2.142,8.058,1.777,14.749-.9,3.64-1.456,4.836-1.5,8.8-.4a26.2,26.2,0,0,1,6.307,2.513c1.368,1,1.316.838-.164-.807-1.945-2.162-1.339-3.316,2.4-4.623.867-.3.126-.577-1.642-.621a11.038,11.038,0,0,1-5.026-1.334c-2.363-1.632-5.034-8.859-3.744-10.114S168.959,50.918,167.642,50.918Zm66.547.093c-1.422-.032-2.431.378-2.431,1.241,0,2.025,1.3,2.8,3.646,2.2a23,23,0,0,1,4.237-.589c1.873-.043,1.816-.194-.526-1.458A11.463,11.463,0,0,0,234.189,51.012Zm-18.755.9c-3.156,0-7.85,3.651-7.85,6.112,0,2.823,3.294,7.776,5.223,7.849.887.034,6.339.208,12.12.372,7.305.207,11.793.835,14.715,2.079a28.986,28.986,0,0,0,6.077,1.955c3.2.29,4.439,2.168,2.759,4.188-1.335,1.606-1.3,1.643.3.465,1.506-1.113,1.932-1.01,2.891.683A8.642,8.642,0,0,1,252.781,79c0,.957.8,1.3,2.5.993,3.067-.554,4.357,1.04,2.2,2.73-1.286,1.008-1.925.931-3.449-.372-1.711-1.463-2.092-1.451-4.237-.031-1.868,1.236-2.092,1.838-1.117,2.947.676.77.8,1.416.3,1.458s-3.026.154-5.617.248c-3.56.13-4.82.611-5.091,1.924-.259,1.256.336,1.748,2.1,1.737a9.123,9.123,0,0,0,3.843-.869c1.521-.911,9.624,2.248,9.624,3.754,0,.474,1.265,1.182,2.825,1.551,2.157.511,2.505.863,1.38,1.52-1.027.6-.5.836,1.741.776a19.353,19.353,0,0,1,7.325,1.924c5.308,2.6,5.254,2.612,2.989.248-1.895-1.978-1.908-2.063.164-2.575,3.364-.831,2.316-4.222-2.825-9.028-4.471-4.18-4.59-4.418-2.628-5.8,2.753-1.941,3.032-1.858,6.931,1.582,2.64,2.33,3.714,2.735,4.828,1.862.788-.618,1.162-1.558.821-2.079s.372-1.184,1.609-1.489c2.1-.518,2.127-.686.526-2.358-.945-.986-2.284-1.59-2.989-1.334s-2.154-.44-3.219-1.551a7.709,7.709,0,0,0-4.894-2.017c-3.534,0-6.124-3.358-3.613-4.685.845-.447,1.228-1.25.821-1.8-.943-1.271-6.766-3.862-8.015-3.568a5.939,5.939,0,0,1-2.628-.4c-1.476-.541-1.428-.773.361-2.017,1.707-1.186,1.763-1.427.328-1.427a3.111,3.111,0,0,0-2.365.993c-.4.618-1.327.651-2.431.093a10.441,10.441,0,0,0-2.825-.993A1.2,1.2,0,0,1,247,59.761c0-1.939-3.525-3.552-6.766-3.1-1.75.243-2.948.845-2.628,1.334.945,1.444-2.586,2.194-4.237.9a2.634,2.634,0,0,0-2.529-.589c-1.425.832-2.764-1.478-2.4-4.157.241-1.765-.207-2.228-2.135-2.2a7.862,7.862,0,0,0-4.007,1.241c-1.824,1.394-2.375,6.615-.887,8.315.661.755.564,1.41-.263,1.892-1.923,1.123-4.11-2.46-3.942-6.453l.131-3.537L218,57.372c.563,3.413.743,3.65,1.347,1.644.995-3.307-1.09-7.1-3.909-7.1Zm159.932,1.4c-.4-.032-.657.032-.657.217,0,.24,1.064.84,2.365,1.334,3.083,1.171,3.132,1.177,2.464.155C379.083,54.319,376.577,53.4,375.366,53.307Zm-5.551,5.957a1.151,1.151,0,0,1,1.15.5,1.067,1.067,0,0,1-.361,1.52,1.208,1.208,0,0,1-1.609-.341,1.067,1.067,0,0,1,.361-1.52A1.332,1.332,0,0,1,369.815,59.264Zm543.418.993a1.333,1.333,0,0,0-.46.155,1.067,1.067,0,0,0-.361,1.52,1.208,1.208,0,0,0,1.609.341,1.067,1.067,0,0,0,.361-1.52A1.15,1.15,0,0,0,913.233,60.257ZM196.092,60.6a2.223,2.223,0,0,0-1.084.248c-3.841,1.942-3.936,6.95-.131,6.95,2.858,0,3.179.844,1.511,4-1.99,3.768-2.992,4.282-5.518,2.792a4.129,4.129,0,0,0-4.5-.124c-4.362,2-11.133,2.381-15.044.838-2.022-.8-3.679-1.908-3.679-2.482,0-1.147-5.114-1.438-7.883-.434-1.4.506-1.48.82-.361,1.489a6.45,6.45,0,0,0,2.989.776c1.04-.036.861-.337-.526-.9-1.714-.7-1.777-.874-.328-.931,2.715-.107,3.481,1.982.953,2.606-1.639.4-2.146,1.228-1.938,3.071.382,3.384-2.111,4-3.383.838q-1.783-4.429-10.577-3.32c-4.734.6-7.737-1.412-4.6-3.071,1.639-.866,1.6-1.036-.526-2.11-1.745-.882-2.707-.9-3.777-.062-1.087.852-2.281.713-4.927-.589-4.623-2.276-11.571-3.46-13.139-2.234-.826.646-2.278.448-4.4-.589-2.963-1.447-3.447-1.424-6.668.4-8.485,4.814-11.622,6.117-12.58,5.212-.621-.586.709-1.89,3.547-3.506,2.493-1.419,3.96-2.616,3.252-2.637a14.311,14.311,0,0,0-4.664,1.924c-2.717,1.56-3.716,1.708-5.026.745-1.367-1.006-1.437-.968-.46.279,1.438,1.837,2.646,7.491,1.774,8.315-1.154,1.09-3.482-1.558-3.482-3.971,0-1.3-.355-2.378-.788-2.42-1.764-.17-4.173-.831-8.54-2.327A29.181,29.181,0,0,0,74.56,67.8c-1.338,0-2.7-.412-3.022-.9s-3.411-.915-6.9-.962-7.3-.539-8.442-1.117a4.206,4.206,0,0,0-4.073-.062c-1.479.748-2.294.625-3.252-.465a6.531,6.531,0,0,0-4.27-1.458c-1.629,0-3.271-.482-3.646-1.055-.471-.72-1.108-.691-2.069.062s-1.609.766-2.069.062c-.438-.67-1.579-.477-3.252.558-1.415.876-2.553,1.217-2.562.745s-.459-.228-.985.558a6.148,6.148,0,0,1-3.81,1.8,8.973,8.973,0,0,0-4.927,2.823c-1.136,1.364-2.331,2.266-2.628,1.986s-1.884.149-3.547.962l-3.022,1.489L15.5,75.583c3.243,2.64,6.443,4.34,8.573,4.53,1.888.168,1.757,2.456-.2,3.444-1.426.721-2.77.605-4.828-.4-1.876-.919-3.5-1.08-4.664-.5a32.165,32.165,0,0,1-3.876,1.551c-2.035.647-2.01.692.263,1.52,1.407.512,2.113,1.4,1.774,2.234-.872,2.146,9.03,3.013,10.642.931,1.561-2.016,3.309-.949,3.088,1.892-.169,2.162-5.442,6.015-7.062,5.15-.412-.22-1.717.5-2.923,1.644-1.532,1.447-2,2.757-1.511,4.282,1.081,3.354,3.857,5.821,5.945,5.305a2.669,2.669,0,0,1,2.792,1.055c1.236,2.086,7.923,4.175,9.953,3.1,2.192-1.159,3.048.442,1.839,3.444-1.132,2.812-5.131,5.71-11.036,8.036-2.257.889-3.864,1.842-3.58,2.11.5.469,5.982-1.655,9.263-3.568.867-.506,3.267-1.769,5.321-2.823,4.29-2.2,10.593-7.98,9.887-9.059-.262-.4.223-1.28,1.084-1.955a4.024,4.024,0,0,0,1.577-2.482c0-1.974,2.963-3.753,4.993-3.009,1.763.646,1.751.737,0,1.955-1.6,1.115-2.643,4.53-1.38,4.53,2.33,0,5.955-2.256,5.485-3.413-1.018-2.505,3.691-4.3,5.387-2.048,1.32,1.75,5.871,3.306,11.4,3.909a38.871,38.871,0,0,1,10.445,3.009c3.447,1.649,5.464,2.118,6.307,1.458.866-.679,1.763-.231,2.956,1.489a11.558,11.558,0,0,1,1.708,3.1c0,1.012,4.625,4.339,6.077,4.375,2.226.055,4.676,6.648,3.186,8.563-.522.67.207,1.534,1.905,2.265,2.709,1.166,2.734,1.215.821,3.382-1.068,1.21-1.289,1.681-.493,1.024,2-1.654,5.952.239,4.336,2.079-1.314,1.5-.427,2.575,2.1,2.575,2.642,0,11.5,8.242,11.5,10.7,0,2.357-1.634,3.752-2.628,2.234-1.463-2.236-2.091-.722-2.2,5.181-.063,3.413-.3,8.886-.493,12.162-.372,6.221,2.206,13.565,4.6,13.124.642-.119,1.228.748,1.314,1.924.24,3.266,4.621,9.3,7.489,10.332,1.411.507,2.255,1.4,1.872,1.986-.417.638.079.934,1.248.745,1.526-.247,2.343.866,3.843,5.15,1.051,3,2.829,6.385,3.942,7.508,1.465,1.479,1.72,2.346.887,3.133s-.259,1.829,2.1,3.816c1.793,1.509,3.285,3.671,3.317,4.809.063,2.226,5.858,7.218,7.062,6.081.4-.378-.077-1.112-1.084-1.644s-1.839-1.44-1.839-2.017-1.419-3.033-3.153-5.46a26.565,26.565,0,0,1-3.153-5.119,26.017,26.017,0,0,0-2.332-4.871c-1.815-3.236-2.083-4.455-1.117-5.367,1.438-1.359,4.5.409,4.5,2.606,0,.692,2.128,4.015,4.73,7.353s4.73,6.41,4.73,6.857,1.581,2.57,3.515,4.716c4.659,5.17,5.96,7.625,5.288,10.052-.722,2.608,2.669,5.14,14.091,10.486,7.267,3.4,9.133,3.927,10.741,2.978,1.59-.938,2.625-.7,5.748,1.3,4.95,3.173,11.683,6.391,13.336,6.391,2.6,0,7.193,5.269,7.193,8.253,0,2.456.237,2.731,1.544,1.706,1.274-1,1.753-.8,2.693,1.148a4.612,4.612,0,0,0,3.876,2.575,8.9,8.9,0,0,1,3.909,1.148c.8.631,1.618.316,2.463-.962,2.818-4.262,7.583,2.11,7.423,9.928-.071,3.488-.823,5.329-3.547,8.47A26.491,26.491,0,0,0,231.7,298.5c-1.162,4.36-1.117,4.93.591,5.833,1.788.945,1.76,1.089-.328,2.606l-2.2,1.613L233.242,316c1.919,4.1,4.633,10.77,6.011,14.83,2.119,6.245,3.124,7.773,6.5,9.928a83.83,83.83,0,0,1,7.785,5.771l3.777,3.258L256,366.879c-.713,9.413-1.421,19.583-1.577,22.587a25.974,25.974,0,0,1-3.153,10.828c-2.082,3.871-2.723,6.191-2.266,8.346a13.177,13.177,0,0,1-.624,6.267c-.982,2.564-.978,3.77.033,5.553,1.544,2.726,1.086,13.214-.657,14.861-.906.856-1.374.718-1.905-.589-.558-1.375-.907-1.481-1.609-.434-1.135,1.691-1.17,3.1-.066,2.451,1.207-.7,6.774,5.1,6.011,6.267a1.788,1.788,0,0,1-2.036.465c-1.1-.4-1.347.536-1.084,4.219.187,2.616-.2,5.368-.854,6.112-.916,1.042-.843,1.291.328,1.055,2.247-.452,7.5,3.181,6.865,4.747-.985,2.424,1.106,1.393,2.332-1.148.658-1.365,1.676-2.482,2.266-2.482s1.084-1.046,1.084-2.327a6.346,6.346,0,0,1,2.1-4.126c1.16-.991,1.889-2.032,1.61-2.3s.964-2.04,2.759-3.971c3.174-3.415,3.2-3.532,1.051-4.281-4.24-1.481-3.829-8.811.493-8.811.918,0,1.445-1.125,1.445-3.072,0-2.248.578-3.214,2.135-3.6,1.8-.445,1.886-.7.591-1.644a5.568,5.568,0,0,1-1.872-3.1c-.27-1.6.249-1.986,2.693-1.986,2.916,0,4.066-1.029,5.255-4.685.384-1.18,2.209-1.89,5.945-2.358,8.591-1.076,10.636-4.664,5.781-10.114-3.158-3.545-2.493-4.577,1.544-2.389,2.768,1.5,3.262,1.488,6.635-.031,3.656-1.647,6.269-5.059,11.825-15.512,2.248-4.23,2.6-5.76,1.741-7.539-.592-1.227-.754-2.72-.361-3.32.779-1.191,8.254-6.174,9.263-6.174.344,0,1.165-.658,1.807-1.458s3.037-1.619,5.321-1.831c3.994-.369,4.238-.623,7.029-6.732,2.366-5.18,2.924-7.85,2.956-14.488.028-5.721.454-8.377,1.445-8.936.776-.437,3.141-3.215,5.256-6.143,5.072-7.023,5.345-12.247.755-14.488a14.525,14.525,0,0,1-4.467-3.351c-1.013-1.364-3.077-1.973-7.817-2.3-5.529-.377-6.941-.909-9.821-3.63-4.06-3.835-5.894-3.956-8.672-.621-1.495,1.795-2.935,2.448-4.894,2.234-3.34-.366-3.3-2.074.066-2.823a3.662,3.662,0,0,0,2.759-2.234c.512-2.509-1.376-2.086-5.387,1.241-1.96,1.626-3.855,2.688-4.2,2.358-1.106-1.045,5.614-9.368,6.963-8.625.687.378.3-.339-.854-1.582s-1.992-2.533-1.872-2.885c1.236-3.651-5.607-9.09-11.431-9.09-2.9,0-4.546-.813-7.555-3.723-2.117-2.048-5.005-4.78-6.438-6.081s-2.3-2.827-1.938-3.382c.435-.664-1.182-.782-4.7-.341-3.354.42-5.582.284-6.011-.372a2.111,2.111,0,0,0-1.905-.869c-2.1.315-7.025-1.984-7.095-3.32-.037-.7-.5-.267-1.018.962s-1.4,2.234-1.938,2.234-.745.831-.46,1.862c.748,2.7-1.464,3.545-2.858,1.086-.924-1.63-.788-2.605.526-4.5,2.162-3.116.568-3.114-2.529,0-1.318,1.326-3.045,2.151-3.843,1.862-1.334-.483-1.826.3-4.171,6.546-.4,1.069-1.131.833-3.153-.962-2.374-2.106-3.006-2.228-6.8-1.272-4,1.009-4.333.93-6.931-1.986-2.5-2.806-2.679-3.564-2.069-9.184.657-6.057.64-6.149-2.234-6.919a33.9,33.9,0,0,0-6.6-.838c-3.445-.073-3.638-.293-3.317-3.071a10.024,10.024,0,0,1,1.15-3.971,16.416,16.416,0,0,0,1.511-5.212c.6-3.74.467-4.219-1.347-4.219-4.619,0-7.311,1.808-7.653,5.15-.308,3.009-.666,3.31-4.993,4-5.841.935-8.65-.6-11.6-6.36-2.069-4.046-2.917-12.633-1.38-14.085.416-.393.625-2.218.46-4.033-.263-2.881.193-3.581,3.679-5.616,4.728-2.76,5.9-2.992,9.624-1.893a64.332,64.332,0,0,0,6.372,1.4c3.167.519,3.388.433,2.135-.993-1.193-1.358-1.1-1.828.657-3.04a5.6,5.6,0,0,1,4.7-.714,21.323,21.323,0,0,0,5.42.589c3.2-.141,5.972,3.016,6.5,7.446.408,3.4,2.855,7.229,4.631,7.229s1.669-1.314-.788-9.432a61.889,61.889,0,0,1-2.1-8.284c0-.732,2.523-3.725,5.617-6.67s5.41-5.594,5.124-5.864.236-.774,1.182-1.117,1.478-.976,1.183-1.427a1.1,1.1,0,0,1,.558-1.458c.723-.422.689-1.274-.066-2.606-1.3-2.3-.911-7.322.558-7.322.552,0,1.306,1.117,1.708,2.482.6,2.03.768,2.1.854.465.16-3.052,5.179-9.4,7.423-9.4,3.936,0,5.3-1.023,4.007-2.978-.931-1.408-.809-2.356.591-4.375.984-1.419,2.51-2.575,3.383-2.575s3.81-1.064,6.536-2.358c3.391-1.609,5.624-2.094,7.062-1.551,1.213.458,1.486.828.624.869-2.091.1-5.354,3.063-5.354,4.871,0,1.2.477,1.1,2.365-.5a23.146,23.146,0,0,1,5.715-3.258c1.837-.684,3.615-1.9,3.942-2.7s1.06-1.178,1.642-.838,1.051.208,1.051-.279c0-2.019-1.321-1.855-3.777.465-2.1,1.983-2.915,2.231-4.139,1.272a1.937,1.937,0,0,1-.788-2.327c.534-.842.31-.842-.821,0-1.2.89-2.1.556-4.336-1.613-2.964-2.875-2.881-3.971.361-3.971a1.78,1.78,0,0,0,1.938-1.613c0-2.512-7.046-1.019-10.675,2.265-2.1,1.9-3.329,2.409-4.106,1.675-1.536-1.451,7.462-8.837,11.759-9.649a57.308,57.308,0,0,1,8.474-.621c2.856,0,6.226-.538,7.489-1.179a25.235,25.235,0,0,1,5.453-1.768c2.734-.531,3.153-1.043,3.153-3.878,0-4.364-1.318-5.168-6.044-3.63-2.677.871-4.175.977-4.631.279-.854-1.3,2.5-3.713,5.354-3.816,1.53-.055,1.706-.225.591-.62a27.264,27.264,0,0,1-4.3-2.389c-1.51-1-2.995-1.577-3.285-1.3s-1.308-.634-2.266-2.017-1.421-2.513-1.018-2.513-.329-1.04-1.609-2.327a11.923,11.923,0,0,1-2.858-5.15c-.858-4.472-1.444-4.679-4.6-1.489-1.779,1.8-3.627,2.791-4.566,2.451a2.017,2.017,0,0,0-2.3.558c-.5.771-1.447.413-2.956-1.117-2.479-2.514-3.118-4.556-1.675-5.4,1.479-.864,1.137-3.413-.46-3.413-.783,0-2.793-1.207-4.467-2.7-2.367-2.11-4.16-2.772-8.08-2.885-4.712-.136-5.147.075-6.438,2.978-.915,2.058-1.042,3.709-.394,4.9a2.617,2.617,0,0,1-.3,3.227c-.689.784-.89,1.427-.46,1.427s.258.592-.394,1.334c-.9,1.03-.689,1.977.92,3.909,2.592,3.113,2.674,6.447.263,9.68-1.184,1.588-1.876,4.54-1.971,8.346-.108,4.348-.61,6.2-1.971,7.136-1.592,1.1-2.422.793-6.011-2.389-3.791-3.361-4.109-4.039-3.679-7.787l.46-4.126-4.664-.5a24.553,24.553,0,0,1-10.314-4.157c-3.108-2.022-6.1-3.4-6.668-3.071-1.274.744-2.674-1.259-2.726-3.909-.029-1.483-.632-1.907-2.4-1.675-1.731.227-2.636-.378-3.383-2.234-1.467-3.644-.256-6.022,6.536-12.752,1.594-1.579,2.641-3.25,2.332-3.723-.768-1.174,3.225-3.054,5.058-2.389.814.295,2.611-.352,4.007-1.427,2.759-2.125,2.9-1.959-3.153-3.723-2.777-.808.536-2.506,4.237-2.172,3.273.3,3.575.593,3.876,4.033.237,2.706-.126,3.9-1.347,4.344-1.341.486-1.088.925,1.248,2.079,2.763,1.364,3.053,1.293,4.927-1.055,1.858-2.328,2.131-2.4,4.4-.993,1.337.828,2.916,1.23,3.482.9,1.666-.973-3.5-5.471-7.062-6.143a8.749,8.749,0,0,1-4.894-2.978c-1.712-2.469-1.506-2.7,2.266-2.42,2.491.187,8.737-2.5,8.737-3.754a7.276,7.276,0,0,0-1.478-2.7c-1.073-1.386-1.168-2.278-.361-3.2,1.5-1.71-1.869-4.115-5.814-4.157-2.5-.027-2.771.241-1.905,1.768.773,1.364.343,2.573-1.741,5.088-2.561,3.091-2.8,3.18-4.106,1.489a7.631,7.631,0,0,1-1.412-3.971,4.779,4.779,0,0,0-1.511-3.351c-1.214-.952-1.832-.682-3.252,1.365-1.9,2.736-3.646,2.554-3.646-.372a2.8,2.8,0,0,0-2.266-2.389c-1.775-.438-2.006-.844-1.084-1.893,1.63-1.855-2.218-5.887-4.993-5.957Zm23.518.248c-.255,0-.46.447-.46.993a1.065,1.065,0,0,0,1.117.993c.612,0,.817-.447.46-.993S219.865,60.847,219.611,60.847Zm684.917.4c-2.069.1-4.793.812-5.847,1.768-.827.751,4.568.668,8.737-.124.179-.034.017-.539-.361-1.117C906.769,61.338,905.769,61.189,904.527,61.25Zm-795.381.993a1.333,1.333,0,0,0-.46.155,1.067,1.067,0,0,0-.361,1.52,1.208,1.208,0,0,0,1.609.341,1.067,1.067,0,0,0,.361-1.52A1.151,1.151,0,0,0,109.146,62.243Zm311.124,0a1.332,1.332,0,0,0-.46.155,1.067,1.067,0,0,0-.361,1.52,1.208,1.208,0,0,0,1.609.341,1.067,1.067,0,0,0,.361-1.52A1.151,1.151,0,0,0,420.27,62.243Zm-3.153,1.986a1.332,1.332,0,0,0-.46.155,1.067,1.067,0,0,0-.361,1.52,1.208,1.208,0,0,0,1.609.341,1.067,1.067,0,0,0,.361-1.52A1.151,1.151,0,0,0,417.117,64.228Zm174.677.341a1.427,1.427,0,0,0-1.051.31c-.761.731-.467,1.493.953,2.482,2.378,1.658,3.4,1.776,4.237.5C596.711,66.669,593.662,64.62,591.794,64.569Zm-104.259.651a1.331,1.331,0,0,0-.46.155,1.067,1.067,0,0,0-.361,1.52,1.208,1.208,0,0,0,1.609.341,1.067,1.067,0,0,0,.361-1.52A1.151,1.151,0,0,0,487.535,65.221Zm-300.649,2.11c-.489.05-.969.494-1.774,1.334-1.628,1.7-1.632,1.926-.1,2.482.929.337,1.421,1.036,1.084,1.551-.382.584.629.6,2.726.031,1.849-.5,3.739-1.479,4.2-2.172.681-1.013.874-1.024.887,0a2.287,2.287,0,0,1-1.577,1.83c-.864.313-1.305.969-.985,1.458,1.071,1.636,2.39.921,4.04-2.2l1.642-3.1-3.317.621c-2.249.425-3.861.154-5.058-.869C187.869,67.617,187.375,67.28,186.886,67.331Zm380.5.745c-1.58-.013-3.834,2.358-3.022,3.6.5.767,1.325.787,2.759.062,2.279-1.152,2.618-2.5.887-3.506A1.233,1.233,0,0,0,567.383,68.075Zm-265.79.714c-.9,0-1.343.447-.985.993a2.278,2.278,0,0,0,1.642.993.991.991,0,0,0,.985-.993C303.235,69.236,302.494,68.789,301.593,68.789Zm-67.369.4a1.332,1.332,0,0,0-.46.155,1.067,1.067,0,0,0-.361,1.52,1.208,1.208,0,0,0,1.61.341,1.067,1.067,0,0,0,.361-1.52A1.151,1.151,0,0,0,234.224,69.192ZM99.848,70.805a6.542,6.542,0,0,0-2.628.962c-.867.529-1.1.962-.526.962a6.542,6.542,0,0,0,2.628-.962C100.189,71.238,100.426,70.805,99.848,70.805Zm378.226.372a1.332,1.332,0,0,0-.46.155,1.067,1.067,0,0,0-.361,1.52,1.208,1.208,0,0,0,1.609.341,1.067,1.067,0,0,0,.361-1.52A1.151,1.151,0,0,0,478.074,71.178ZM235.269,73.163a1.332,1.332,0,0,0-.46.155,1.067,1.067,0,0,0-.361,1.52,1.208,1.208,0,0,0,1.61.341,1.067,1.067,0,0,0,.361-1.52A1.151,1.151,0,0,0,235.269,73.163Zm238.6,0a1.332,1.332,0,0,0-.46.155,1.067,1.067,0,0,0-.361,1.52,1.208,1.208,0,0,0,1.609.341,1.067,1.067,0,0,0,.361-1.52A1.15,1.15,0,0,0,473.867,73.163ZM242.991,74.87a2.351,2.351,0,0,0-.361.062c-2.637.483-3.021,2.792-.46,2.792,1.291,0,2.2-.63,2.2-1.551A1.244,1.244,0,0,0,242.991,74.87ZM255.932,80.7c-1.224,0-1.934.447-1.577.993a1.748,1.748,0,0,0,3.153,0C257.866,81.149,257.157,80.7,255.932,80.7Zm143.443,1.272a25.5,25.5,0,0,0-3.383.341,48.775,48.775,0,0,1-6.865.589c-1.024-.061-1.611.26-1.314.714.813,1.243-4.228,4.024-7.555,4.157l-2.923.124,3.153.62c1.734.35,2.917,1.035,2.628,1.52-.607,1.019,2.661,2.411,5.912,2.513,1.224.038,4.771-.907,7.883-2.11,6.318-2.441,7.886-3.858,5.617-5.057a3.019,3.019,0,0,1-1.544-2.327C400.985,82.291,400.638,81.977,399.375,81.975Zm-17.014.745a7.139,7.139,0,0,0-3.449.962c-1.233.753-.964.981,1.248.993,1.556.008,3.124-.447,3.482-.993C384.057,83.047,383.387,82.719,382.361,82.719Zm82.051,7.322a1.332,1.332,0,0,0-.46.155,1.067,1.067,0,0,0-.361,1.52,1.208,1.208,0,0,0,1.609.341,1.067,1.067,0,0,0,.361-1.52A1.151,1.151,0,0,0,464.412,90.041Zm-202.5,2.823c1.432-.048,5.37,1.589,6.077,2.668.379.58.3,1.046-.164,1.024-1.462-.068-6.837-3.067-6.339-3.537A.631.631,0,0,1,261.917,92.864ZM1.741,93.019a4.723,4.723,0,0,0-.788.031,1.755,1.755,0,0,0-.657.186c-.511.3-.34,1.188.361,1.986,1.393,1.585,6.9,1.482,6.438-.124C6.832,94.175,3.751,93.118,1.741,93.019Zm239.843,0a1.333,1.333,0,0,0-.46.155,1.067,1.067,0,0,0-.361,1.52,1.208,1.208,0,0,0,1.609.341,1.067,1.067,0,0,0,.361-1.52A1.151,1.151,0,0,0,241.584,93.019Zm-4.2.993a1.333,1.333,0,0,0-.46.155,1.067,1.067,0,0,0-.361,1.52,1.208,1.208,0,0,0,1.609.341,1.067,1.067,0,0,0,.361-1.52A1.151,1.151,0,0,0,237.38,94.012Zm-3.909,2.854a1.546,1.546,0,0,0-.821.5,2.7,2.7,0,0,0-.46,2.792c.509,1.252,1,1.446,1.839.652a2.76,2.76,0,0,0,.46-2.823C234.172,97.2,233.87,96.833,233.471,96.867Zm-8.08.093c-1.465.146-3.211,1.638-2.5,2.73.325.5,1.517.394,2.726-.217,1.522-.769,1.843-1.393,1.051-2.141A1.6,1.6,0,0,0,225.391,96.96Zm196,1.024a1.509,1.509,0,0,0-1.051,2.141,1.609,1.609,0,0,1-.493,1.955,1.1,1.1,0,0,0-.394,1.551,1.219,1.219,0,0,0,1.642.31c.577-.337.815-.843.493-1.148s-.1-1.153.526-1.862a2.121,2.121,0,0,0,.46-2.327,1.318,1.318,0,0,0-.854-.62A1,1,0,0,0,421.39,97.984Zm97.491,3.537a3.776,3.776,0,0,1,.591,0,4.406,4.406,0,0,1,3.416,1.955c1.47,2.594,1.368,3.357-.361,2.73a2.526,2.526,0,0,0-2.365.341c-.521.492-1.425-.165-2.1-1.52-.655-1.311-.942-2.616-.624-2.916A2.391,2.391,0,0,1,518.881,101.52ZM436.043,104c-.973.03-1.641,1.353-.821,2.606.509.777,1.017.777,1.839,0a1.264,1.264,0,0,0,0-2.172A1.393,1.393,0,0,0,436.043,104Zm-172.378.931a1.332,1.332,0,0,0-.46.155,1.067,1.067,0,0,0-.361,1.52,1.208,1.208,0,0,0,1.609.341,1.067,1.067,0,0,0,.361-1.52A1.151,1.151,0,0,0,263.664,104.933Zm227.034,0a1.333,1.333,0,0,0-.46.155,1.067,1.067,0,0,0-.361,1.52,1.208,1.208,0,0,0,1.609.341,1.067,1.067,0,0,0,.361-1.52A1.151,1.151,0,0,0,490.7,104.933Zm-479.3.993a1.333,1.333,0,0,0-.46.155,1.067,1.067,0,0,0-.361,1.52,1.208,1.208,0,0,0,1.609.341,1.067,1.067,0,0,0,.361-1.52A1.151,1.151,0,0,0,11.4,105.926ZM431.9,109.9a10.635,10.635,0,0,0-3.252,2.3c-3.32,2.943-4.971,6.853-3.317,7.818.593.346.617,1.056.066,1.737-1.069,1.32,1.571,4.126,3.876,4.126.824,0,1.6,1.22,1.774,2.792.237,2.1-.273,3-2,3.661-1.265.481-1.884.9-1.38.931s.326.732-.394,1.551c-1.091,1.242-.955,1.489.854,1.489,3.595,0,3.781,2.015.3,3.258-4.435,1.581-4.114,2.767.427,1.582a20.412,20.412,0,0,1,4.993-.807c4.891.6,7.539-.555,8.606-3.785.541-1.637.308-2.234-.854-2.234-1.823,0-2.7-1.091-3.317-4.126-.433-2.125-4.018-6.539-6.536-8.066-1.009-.612-.874-1.4.525-3.413,1.782-2.568,1.779-2.617-.525-2.048-3.329.822-3.928-.787-1.38-3.847C432.048,110.782,432.512,109.786,431.9,109.9ZM22.958,111.883a1.332,1.332,0,0,0-.46.155,1.067,1.067,0,0,0-.361,1.52,1.208,1.208,0,0,0,1.609.341,1.067,1.067,0,0,0,.361-1.52A1.151,1.151,0,0,0,22.958,111.883Zm398.367,0a1.332,1.332,0,0,0-.46.155,1.067,1.067,0,0,0-.361,1.52,1.208,1.208,0,0,0,1.61.341,1.067,1.067,0,0,0,.361-1.52A1.151,1.151,0,0,0,421.325,111.883Zm75.679,0a1.333,1.333,0,0,0-.46.155,1.067,1.067,0,0,0-.361,1.52,1.208,1.208,0,0,0,1.609.341,1.067,1.067,0,0,0,.361-1.52A1.151,1.151,0,0,0,497,111.883ZM48.842,113.155c-1.574.108-6.274,3.07-6.274,4.188a2.354,2.354,0,0,0,.723,1.427c.95.9,6.734-4.356,6.011-5.46l.1-.124-.164.093A.494.494,0,0,0,48.842,113.155Zm40.335,1.706a1.332,1.332,0,0,0-.46.155,1.067,1.067,0,0,0-.361,1.52,1.208,1.208,0,0,0,1.609.341,1.067,1.067,0,0,0,.361-1.52A1.151,1.151,0,0,0,89.177,114.861Zm332.147.993a1.332,1.332,0,0,0-.46.155,1.067,1.067,0,0,0-.361,1.52,1.208,1.208,0,0,0,1.609.341,1.067,1.067,0,0,0,.361-1.52A1.151,1.151,0,0,0,421.324,115.854Zm65.167.062c-.973.03-1.641,1.353-.821,2.606.509.777,1.017.777,1.839,0a1.264,1.264,0,0,0,0-2.172A1.393,1.393,0,0,0,486.492,115.916Zm-483.5,2.916a1.332,1.332,0,0,0-.46.155,1.067,1.067,0,0,0-.361,1.52,1.208,1.208,0,0,0,1.609.341,1.067,1.067,0,0,0,.361-1.52A1.151,1.151,0,0,0,2.989,118.832Zm38.89.993a1.332,1.332,0,0,0-.46.155,1.067,1.067,0,0,0-.361,1.52,1.208,1.208,0,0,0,1.609.341,1.067,1.067,0,0,0,.361-1.52A1.151,1.151,0,0,0,41.879,119.825Zm191.3.993a1.332,1.332,0,0,0-.46.155,1.067,1.067,0,0,0-.361,1.52,1.208,1.208,0,0,0,1.609.341,1.067,1.067,0,0,0,.361-1.52A1.151,1.151,0,0,0,233.181,120.818Zm-136.347,1.3a.686.686,0,0,0-.23.031c-1,.26-1.38,2.2-.69,3.506a.9.9,0,0,0,1.281.217C98.29,125.236,97.9,122.231,96.834,122.121ZM39.78,122.8a1.332,1.332,0,0,0-.46.155,1.067,1.067,0,0,0-.361,1.52,1.208,1.208,0,0,0,1.609.341,1.067,1.067,0,0,0,.361-1.52A1.151,1.151,0,0,0,39.78,122.8Zm825.107,0a1.333,1.333,0,0,0-.46.155,1.067,1.067,0,0,0-.361,1.52,1.208,1.208,0,0,0,1.609.341,1.067,1.067,0,0,0,.361-1.52A1.151,1.151,0,0,0,864.886,122.8Zm-396.26,1.055c-.973.03-1.641,1.353-.821,2.606.509.777,1.017.777,1.839,0a1.264,1.264,0,0,0,0-2.172A1.393,1.393,0,0,0,468.627,123.859Zm8.409.931a1.333,1.333,0,0,0-.46.155,1.067,1.067,0,0,0-.361,1.52,1.208,1.208,0,0,0,1.61.341,1.067,1.067,0,0,0,.361-1.52A1.151,1.151,0,0,0,477.036,124.789Zm-57.744.217a1.994,1.994,0,0,0-1.38.776c-.617.7-.8,1.574-.394,1.955s-.322.954-1.61,1.272c-1.768.437-2.064.9-1.215,1.862.781.889.8,1.476.033,1.924-.965.563-1.656,4.5-.788,4.5.18,0,2.243-.88,4.6-1.955,3.586-1.637,4.374-2.517,4.73-5.4.347-2.8-.007-3.62-1.905-4.437A4.587,4.587,0,0,0,419.291,125.006Zm-401.583.776a1.332,1.332,0,0,0-.46.155,1.067,1.067,0,0,0-.361,1.52,1.208,1.208,0,0,0,1.609.341,1.067,1.067,0,0,0,.361-1.52A1.151,1.151,0,0,0,17.708,125.782Zm789.076.589c-.676,0-.971.389-.657.869s-.2,2.3-1.117,4.033c-1.408,2.665-1.438,3.632-.3,6.236.792,1.807,1.257,6.23,1.117,10.7-.2,6.306.039,7.6,1.38,7.6a1.452,1.452,0,0,0,1.609-1.241,2.426,2.426,0,0,0-1.051-1.893c-1.171-.683-1.442-5.743-.361-6.764.38-.359,1.326-.174,2.1.434,1.525,1.2,1.967-.129.558-1.675-1.709-1.876-3.456-11.229-2.759-14.737.488-2.455.318-3.568-.526-3.568Zm63.361.4a1.332,1.332,0,0,0-.46.155,1.067,1.067,0,0,0-.361,1.52,1.208,1.208,0,0,0,1.61.341,1.067,1.067,0,0,0,.361-1.52A1.151,1.151,0,0,0,870.145,126.775Zm-859.139.838c-1.11.042-2.094.908-1.511,1.8a2.151,2.151,0,0,0,1.544.931c1.472,0,2.259-1.8,1.084-2.482A2.046,2.046,0,0,0,11.006,127.613Zm85.532.217c-.973.03-1.641,1.353-.821,2.606.509.777,1.017.777,1.839,0a1.264,1.264,0,0,0,0-2.172A1.393,1.393,0,0,0,96.538,127.83ZM6.145,130.746a1.332,1.332,0,0,0-.46.155,1.067,1.067,0,0,0-.361,1.52,1.208,1.208,0,0,0,1.609.341,1.067,1.067,0,0,0,.361-1.52A1.151,1.151,0,0,0,6.145,130.746Zm876.61.993a1.332,1.332,0,0,0-.46.155,1.067,1.067,0,0,0-.361,1.52,1.208,1.208,0,0,0,1.609.341,1.067,1.067,0,0,0,.361-1.52A1.151,1.151,0,0,0,882.754,131.739Zm-654.6.031a1.181,1.181,0,0,0-.854.4c-.792.748-.715,1.5.23,2.575,1.866,2.124,3.443.9,2.036-1.582C229.058,132.268,228.614,131.8,228.154,131.77ZM97.849,133.476a.1.1,0,0,0-.1.031c-.263.248.084,1.9.788,3.661s1.438,2.783,1.61,2.3a8.329,8.329,0,0,0-.821-3.661C98.79,134.47,98.17,133.531,97.849,133.476ZM838.6,139.743c-.973.03-1.641,1.353-.821,2.606.508.777,1.017.777,1.839,0a1.264,1.264,0,0,0,0-2.172A1.393,1.393,0,0,0,838.6,139.743Zm-727.752,2.11c-.422.045-.609.218-.427.5a3.536,3.536,0,0,0,2.595.9,4.079,4.079,0,0,1,3.12,1.986c.619,1.092,1.62,1.986,2.2,1.986,1.827,0-3.659-4.682-6.142-5.243a5.583,5.583,0,0,0-.854-.124A2.818,2.818,0,0,0,110.849,141.853Zm184.007.093c-.993.126-2.981,1.2-5.19,3.1-3.891,3.359-4.172,3.929-2.89,5.585,1.409,1.821,3.406,1.8,8.639-.093,1.295-.469,1.639-.32,1.084.527a3.583,3.583,0,0,0-.1,2.916c.644,1.57.768,1.545,2.069-.124.9-1.155,1.653-1.4,2.1-.714a1.309,1.309,0,0,0,1.708.465,1.067,1.067,0,0,0,.361-1.52,1.278,1.278,0,0,0-1.708-.279c-.683.4-.836-.117-.427-1.334.929-2.766-2.679-5.657-5.88-4.716-2.387.7-2.391.671-.526-1.3C295.848,142.611,295.849,141.82,294.856,141.946Zm-84.12,1.3a.994.994,0,1,1-1.051.993A1.026,1.026,0,0,1,210.737,143.249Zm65.167,1.3a2.871,2.871,0,0,0-.854.186c-1.589.582-1.583.765.263,2.048,2.359,1.64,4.406,1.845,5.288.5C281.366,146.114,278.134,144.431,275.9,144.552Zm560.589.093a1.332,1.332,0,0,0-.46.155,1.067,1.067,0,0,0-.361,1.52,1.208,1.208,0,0,0,1.609.341,1.067,1.067,0,0,0,.361-1.52A1.15,1.15,0,0,0,836.493,144.645Zm-3.153,2.978a1.332,1.332,0,0,0-.46.155,1.067,1.067,0,0,0-.361,1.52,1.208,1.208,0,0,0,1.609.341,1.067,1.067,0,0,0,.361-1.52A1.151,1.151,0,0,0,833.34,147.624ZM213.2,148.679a6.51,6.51,0,0,1,2.069.62A10.6,10.6,0,0,1,219.6,153.7c1.358,2.7,2.426,3.382,6.536,4.1,2.7.469,5.108,1.41,5.354,2.11s-.142,1.146-.887.993c-.775-.16-1.612,1-1.971,2.7-.627,2.975-.649,2.972-1.971.714-.728-1.244-1.706-2.026-2.2-1.737s-.684-.319-.394-1.365a2.477,2.477,0,0,0-1.577-2.978c-1.756-.888-2.374-.6-3.974,1.675a19.054,19.054,0,0,0-2.5,7.167c-.361,2.832-.867,4-1.412,3.2a7.236,7.236,0,0,1-.558-3.971,7.341,7.341,0,0,0-.361-3.692c-.916-1.4,1.417-4.17,3.909-4.623,5.978-1.087-3.3-4.853-10.314-4.188-3.9.37-4.126.3-1.807-.652a20.557,20.557,0,0,0,4.861-3.04C211.522,149.057,212.252,148.617,213.2,148.679Zm27.985,2.761a2.046,2.046,0,0,1,1.117.248c1.176.686.388,2.482-1.084,2.482a2.151,2.151,0,0,1-1.544-.931C239.09,152.349,240.074,151.482,241.184,151.44Zm589.006.155a1.332,1.332,0,0,0-.46.155,1.067,1.067,0,0,0-.361,1.52,1.208,1.208,0,0,0,1.609.341,1.067,1.067,0,0,0,.361-1.52A1.151,1.151,0,0,0,830.191,151.6Zm-537.1.993a1.332,1.332,0,0,0-.46.155,1.067,1.067,0,0,0-.361,1.52,1.208,1.208,0,0,0,1.609.341,1.067,1.067,0,0,0,.361-1.52A1.151,1.151,0,0,0,293.087,152.588ZM573.4,154.636c1.709,0,2.069.52,2.069,2.3,0,1.7-.464,2.241-1.511,1.861a2.755,2.755,0,0,0-2.726.9c-.691.787-.923,1.427-.493,1.427s.255.6-.394,1.334c-.907,1.032-.587,1.938,1.347,3.909,1.385,1.412,2.271,2.819,1.971,3.1s-.237,1.317.164,2.3c.679,1.655.831,1.639,2.037.093s1.392-1.521,2.562.248c1.086,1.642.971,1.924-.788,1.924-2.842,0-3.654,1.653-1.412,2.885,1.024.563,1.571,1.038,1.215,1.055s-.283,1.8.131,3.94c.664,3.43.467,3.943-1.478,4.437-4.074,1.033-6.591.61-8.573-1.458-1.864-1.945-1.874-2.284-.263-6.515,1.411-3.707,1.452-4.564.263-5-1.954-.708-5.94-11.041-5.157-13.372.758-2.255,6.207-5.1,10.215-5.336C572.884,154.649,573.16,154.635,573.4,154.636Zm-340.223.931a1.151,1.151,0,0,1,1.15.5,1.067,1.067,0,0,1-.361,1.52,1.208,1.208,0,0,1-1.61-.341,1.067,1.067,0,0,1,.361-1.52A1.332,1.332,0,0,1,233.18,155.566Zm590.714,0a1.333,1.333,0,0,0-.46.155,1.067,1.067,0,0,0-.361,1.52,1.208,1.208,0,0,0,1.609.341,1.067,1.067,0,0,0,.361-1.52A1.151,1.151,0,0,0,823.895,155.566Zm-229.332,1.582c1.347,0,1.073,4.415-.361,5.771-1.709,1.614-2.6,1.474-3.383-.465C590.168,160.854,592.783,157.149,594.563,157.149Zm225.789,1.241c-1.11.042-2.094.909-1.511,1.8a2.151,2.151,0,0,0,1.544.931c1.472,0,2.259-1.8,1.084-2.482A2.047,2.047,0,0,0,820.352,158.39Zm-16.785.372v.062q-1.048.366-1.051,3.351c0,1.88-.536,2.916-1.511,2.916-2.272,0-2.83,1.516-1.642,4.468,1.02,2.534,3.982,3.025,3.383.558-.182-.751.46-.995,1.708-.621a3.3,3.3,0,0,0,3.318-.9,4.449,4.449,0,0,1,2.726-1.52c1.776,0,3.945-3.637,2.628-4.406a3.363,3.363,0,0,0-2.431-.031c-.8.291-2.552-.59-3.909-1.955-1.423-1.431-2.454-2.046-3.153-1.862Zm12.974,1.768a1.333,1.333,0,0,0-.46.155,1.067,1.067,0,0,0-.361,1.52,1.208,1.208,0,0,0,1.609.341,1.067,1.067,0,0,0,.361-1.52A1.151,1.151,0,0,0,816.541,160.531Zm-574.389,2.73a1.1,1.1,0,0,1,.3,0c.218.036.287.182.2.4-.312.768-2.142,1.792-4.073,2.3a26.092,26.092,0,0,0-7.095,3.506c-1.969,1.418-4.181,2.575-4.927,2.575-2.034,0,2.813-3.182,10.15-6.67A23.492,23.492,0,0,1,242.153,163.261ZM815.487,164.5a1.332,1.332,0,0,0-.46.155,1.067,1.067,0,0,0-.361,1.52,1.208,1.208,0,0,0,1.609.341,1.067,1.067,0,0,0,.361-1.52A1.151,1.151,0,0,0,815.487,164.5Zm-353.169,3.041c-.973.03-1.641,1.353-.821,2.606.508.777,1.017.777,1.839,0a1.264,1.264,0,0,0,0-2.172A1.393,1.393,0,0,0,462.318,167.542Zm338.552,5.926c-1.219.046-2.142.943-2.332,2.544-.7,5.866-1.291,7.165-2.792,5.988-.911-.714-1.7-.771-2.1-.155a1.188,1.188,0,0,0,.493,1.644c.777.454.731,1.066-.131,2.048-.933,1.062-1.594,1.146-2.661.31-1.108-.869-1.628-.577-2.4,1.334s-1.945,2.569-5.42,3.009a11.707,11.707,0,0,0-7.029,3.165c-1.868,1.9-2.913,2.338-3.876,1.582-2.364-1.853-2.683.135-.493,3.04,1.176,1.56,1.822,3.3,1.445,3.878a3.106,3.106,0,0,0-.1,2.513c1.03,2.536,2.885,1.543,4.533-2.42,1.165-2.8,2.1-3.737,3.416-3.413a3.529,3.529,0,0,0,3.153-1.086c1.154-1.313.991-1.716-1.117-2.513-2.458-.93-2.467-.931-.164-.993a4.168,4.168,0,0,1,3.547,2.11c1.213,2.141,1.286,2.145,2.956.248,1.154-1.311,3.018-1.943,5.879-1.955h4.2l1.577-6.112c.867-3.364,1.931-6.453,2.365-6.857,1.268-1.179.906-6.032-.526-7.043A4.051,4.051,0,0,0,800.87,173.468Zm-338.679.807c-.666.04-1.281.745-1.281,2.11,0,1.88.434,2.392,1.642,1.955a1.964,1.964,0,0,0,1.314-2.11C463.589,174.881,462.857,174.235,462.191,174.275Zm-11.2,1.21a1.544,1.544,0,0,0-.394.031,1.7,1.7,0,0,0-.526.217,5.484,5.484,0,0,1-2.036.776.775.775,0,0,0-.788.745v1.3c0,.305.591.185,1.314-.248a8.031,8.031,0,0,1,2.1-.9c.434-.077,1.056-.211,1.38-.279s.3-.593-.066-1.148A1.219,1.219,0,0,0,450.99,175.485Zm-7.588,3.909a1.333,1.333,0,0,0-.46.155,1.067,1.067,0,0,0-.361,1.52,1.208,1.208,0,0,0,1.609.341,1.067,1.067,0,0,0,.361-1.52A1.151,1.151,0,0,0,443.4,179.394Zm32.223,3.568c-3.735,0-4.093,1.256-.788,2.761,3.407,1.552,3.942,1.446,3.942-.776C478.778,183.4,478.077,182.962,475.625,182.962Zm16.128.4a1.331,1.331,0,0,0-.46.155,1.067,1.067,0,0,0-.361,1.52,1.208,1.208,0,0,0,1.609.341,1.067,1.067,0,0,0,.361-1.52A1.151,1.151,0,0,0,491.753,183.365Zm-22.073,2.978a1.331,1.331,0,0,0-.46.155,1.067,1.067,0,0,0-.361,1.52,1.208,1.208,0,0,0,1.609.341,1.067,1.067,0,0,0,.361-1.52A1.151,1.151,0,0,0,469.68,186.343Zm37.839,0a1.333,1.333,0,0,0-.46.155,1.067,1.067,0,0,0-.361,1.52,1.208,1.208,0,0,0,1.61.341,1.067,1.067,0,0,0,.361-1.52A1.151,1.151,0,0,0,507.519,186.343Zm-5.255.993a1.333,1.333,0,0,0-.46.155,1.067,1.067,0,0,0-.361,1.52,1.208,1.208,0,0,0,1.609.341,1.067,1.067,0,0,0,.361-1.52A1.151,1.151,0,0,0,502.263,187.336Zm22.04,2.73a2.655,2.655,0,0,0-1.347.31,1.153,1.153,0,0,0-.525,1.582,2.8,2.8,0,0,0,4.172-.062C527.2,190.982,525.736,190.075,524.3,190.066Zm-49.369.248a1.333,1.333,0,0,0-.46.155,1.067,1.067,0,0,0-.361,1.52,1.208,1.208,0,0,0,1.609.341,1.067,1.067,0,0,0,.361-1.52A1.151,1.151,0,0,0,474.935,190.315Zm-4.2.993a1.332,1.332,0,0,0-.46.155,1.067,1.067,0,0,0-.361,1.52,1.208,1.208,0,0,0,1.609.341,1.067,1.067,0,0,0,.361-1.52A1.151,1.151,0,0,0,470.73,191.307Zm32.321.714a1.351,1.351,0,0,0-.854.279c-.349.33.271.54,1.38.5,1.224-.048,1.462-.273.624-.589A2.976,2.976,0,0,0,503.051,192.021Zm261.983,5.243a1.333,1.333,0,0,0-.46.155,1.067,1.067,0,0,0-.361,1.52,1.208,1.208,0,0,0,1.609.341,1.067,1.067,0,0,0,.361-1.52A1.151,1.151,0,0,0,765.035,197.264ZM271.021,199.25a1.332,1.332,0,0,0-.46.155,1.067,1.067,0,0,0-.361,1.52,1.208,1.208,0,0,0,1.609.341,1.067,1.067,0,0,0,.361-1.52A1.151,1.151,0,0,0,271.021,199.25Zm124.028.993a1.332,1.332,0,0,0-.46.155,1.067,1.067,0,0,0-.361,1.52,1.208,1.208,0,0,0,1.609.341,1.067,1.067,0,0,0,.361-1.52A1.151,1.151,0,0,0,395.049,200.243Zm374.192,0a1.333,1.333,0,0,0-.46.155,1.067,1.067,0,0,0-.361,1.52,1.208,1.208,0,0,0,1.609.341,1.067,1.067,0,0,0,.361-1.52A1.151,1.151,0,0,0,769.241,200.243ZM392.95,212.157a1.332,1.332,0,0,0-.46.155,1.067,1.067,0,0,0-.361,1.52,1.208,1.208,0,0,0,1.609.341,1.067,1.067,0,0,0,.361-1.52A1.151,1.151,0,0,0,392.95,212.157Zm9.46.993a1.332,1.332,0,0,0-.46.155,1.067,1.067,0,0,0-.361,1.52,1.208,1.208,0,0,0,1.609.341,1.067,1.067,0,0,0,.361-1.52A1.151,1.151,0,0,0,402.41,213.15Zm369.986,0a1.332,1.332,0,0,0-.46.155,1.067,1.067,0,0,0-.361,1.52,1.208,1.208,0,0,0,1.609.341,1.067,1.067,0,0,0,.361-1.52A1.15,1.15,0,0,0,772.4,213.15Zm-375.237.993a1.332,1.332,0,0,0-.46.155,1.067,1.067,0,0,0-.361,1.52,1.208,1.208,0,0,0,1.609.341,1.067,1.067,0,0,0,.361-1.52A1.151,1.151,0,0,0,397.159,214.143Zm-160.813,1.986a1.333,1.333,0,0,0-.46.155,1.067,1.067,0,0,0-.361,1.52,1.208,1.208,0,0,0,1.609.341,1.067,1.067,0,0,0,.361-1.52A1.151,1.151,0,0,0,236.346,216.128Zm156.616,0a1.333,1.333,0,0,0-.46.155,1.067,1.067,0,0,0-.361,1.52,1.208,1.208,0,0,0,1.609.341,1.067,1.067,0,0,0,.361-1.52A1.151,1.151,0,0,0,392.962,216.128Zm-152.41.993a1.333,1.333,0,0,0-.46.155,1.067,1.067,0,0,0-.361,1.52,1.208,1.208,0,0,0,1.609.341,1.067,1.067,0,0,0,.361-1.52A1.151,1.151,0,0,0,240.552,217.121Zm527.846.217c-1.378.015-2.98,2.071-2.1,3.413.525.8,1.246.654,2.431-.465,1.166-1.1,1.328-1.879.558-2.606A1.229,1.229,0,0,0,768.4,217.338ZM579,220.1a1.332,1.332,0,0,0-.46.155,1.067,1.067,0,0,0-.361,1.52,1.208,1.208,0,0,0,1.61.341,1.067,1.067,0,0,0,.361-1.52A1.151,1.151,0,0,0,579,220.1Zm-342.658.993a1.332,1.332,0,0,0-.46.155,1.067,1.067,0,0,0-.361,1.52,1.208,1.208,0,0,0,1.609.341,1.067,1.067,0,0,0,.361-1.52A1.151,1.151,0,0,0,236.346,221.092Zm5.255,0a1.332,1.332,0,0,0-.46.155,1.067,1.067,0,0,0-.361,1.52,1.208,1.208,0,0,0,1.609.341,1.067,1.067,0,0,0,.361-1.52A1.151,1.151,0,0,0,241.6,221.092Zm520.288,1.986a1.333,1.333,0,0,0-.46.155,1.067,1.067,0,0,0-.361,1.52,1.208,1.208,0,0,0,1.609.341,1.067,1.067,0,0,0,.361-1.52A1.151,1.151,0,0,0,761.889,223.078Zm-523.44.993a1.332,1.332,0,0,0-.46.155,1.067,1.067,0,0,0-.361,1.52,1.208,1.208,0,0,0,1.609.341,1.067,1.067,0,0,0,.361-1.52A1.151,1.151,0,0,0,238.449,224.071Zm5.255,0a1.331,1.331,0,0,0-.46.155,1.067,1.067,0,0,0-.361,1.52,1.208,1.208,0,0,0,1.609.341,1.067,1.067,0,0,0,.361-1.52A1.151,1.151,0,0,0,243.7,224.071Zm513.983,0a1.332,1.332,0,0,0-.46.155,1.067,1.067,0,0,0-.361,1.52,1.208,1.208,0,0,0,1.61.341,1.067,1.067,0,0,0,.361-1.52A1.151,1.151,0,0,0,757.687,224.071Zm-6.536.217a2.129,2.129,0,0,0-.755.434c-1.518,1.19-2.048,6.039-.788,7.229.964.911,1.053.715,1.708-4.126C751.68,225.126,751.7,224.18,751.151,224.288ZM241.6,227.049a1.231,1.231,0,0,0-.46.155,1.067,1.067,0,0,0-.361,1.52,1.145,1.145,0,0,0,1.511.4,1.224,1.224,0,0,1,1.577.5,1.278,1.278,0,0,0,1.675.434,1.067,1.067,0,0,0,.361-1.52,1.145,1.145,0,0,0-1.511-.4,1.224,1.224,0,0,1-1.577-.5A1.294,1.294,0,0,0,241.6,227.049Zm-14.617,1.706a6.988,6.988,0,0,0-4.2,1.3c-1.983,1.381-1.962,1.426.591,2.327,1.445.51,2.509,1.235,2.365,1.582-.544,1.305-.212,1.708.854,1.086.753-.44.71-1.09-.131-2.048s-.895-1.4-.1-1.4c1.72,0,12.716,5.057,12.614,5.8a5.617,5.617,0,0,0,.033,1.4c.217,1.3,6.143.8,7.39-.62.967-1.1-.448-2.149-7.358-5.46C233.373,230.011,229.723,228.761,226.985,228.756Zm21.975,1.272a1.333,1.333,0,0,0-.46.155,1.067,1.067,0,0,0-.361,1.52,1.208,1.208,0,0,0,1.609.341,1.067,1.067,0,0,0,.361-1.52A1.151,1.151,0,0,0,248.959,230.028Zm4.206.993a1.332,1.332,0,0,0-.46.155,1.067,1.067,0,0,0-.361,1.52,1.208,1.208,0,0,0,1.609.341,1.067,1.067,0,0,0,.361-1.52A1.151,1.151,0,0,0,253.166,231.02ZM251.058,234a1.333,1.333,0,0,0-.46.155,1.067,1.067,0,0,0-.361,1.52,1.208,1.208,0,0,0,1.609.341,1.067,1.067,0,0,0,.361-1.52A1.151,1.151,0,0,0,251.058,234Zm470.193,4.592a2.662,2.662,0,0,0-2.168,1.52c-.442,1.089-.1,1.464,1.117,1.241a2.987,2.987,0,0,0,2.168-1.551C722.69,238.888,722.063,238.512,721.251,238.591ZM253.684,240.08c-1.6-.037-2.623.188-2.3.683.283.432-.364,1.1-1.412,1.489-2.935,1.094,3.658,2.083,7.456,1.117,1.672-.425,3.446-.538,3.942-.248s.887.085.887-.434-1.3-1.3-2.89-1.737A24.939,24.939,0,0,0,253.684,240.08Zm13.8,1.706c-1.11.042-2.094.908-1.511,1.8a2.151,2.151,0,0,0,1.544.931c1.472,0,2.259-1.8,1.084-2.482A2.047,2.047,0,0,0,267.479,241.786Zm-29.069.9a2.655,2.655,0,0,0-1.347.31,1.153,1.153,0,0,0-.526,1.582,2.8,2.8,0,0,0,4.171-.062C241.308,243.6,239.842,242.695,238.41,242.686Zm512.5.186c-1.575.076-1.921.974-2.463,4.84-.768,5.465.128,7.17,4.172,8.129,2.68.635,6.22,5.72,4.927,7.074-.411.43-.141.46.591.062a1.344,1.344,0,0,0,.591-1.893H758.7c-.424-.668.038-.59,1.051.186,3.677,2.817,1.578-.153-3.482-4.933-5.739-5.42-6.017-6.016-3.679-7.849,2.567-2.012,2.009-5.426-.92-5.584C751.387,242.888,751.137,242.861,750.912,242.872ZM272.07,243.927a1.332,1.332,0,0,0-.46.155,1.067,1.067,0,0,0-.361,1.52,1.208,1.208,0,0,0,1.609.341,1.067,1.067,0,0,0,.361-1.52A1.151,1.151,0,0,0,272.07,243.927Zm-52.555.993a1.331,1.331,0,0,0-.46.155,1.067,1.067,0,0,0-.361,1.52,1.208,1.208,0,0,0,1.609.341,1.067,1.067,0,0,0,.361-1.52A1.151,1.151,0,0,0,219.515,244.92Zm56.759,0a1.332,1.332,0,0,0-.46.155,1.067,1.067,0,0,0-.361,1.52,1.208,1.208,0,0,0,1.609.341,1.067,1.067,0,0,0,.361-1.52A1.151,1.151,0,0,0,276.274,244.92Zm4.2.993a1.331,1.331,0,0,0-.46.155,1.067,1.067,0,0,0-.361,1.52,1.208,1.208,0,0,0,1.61.341,1.067,1.067,0,0,0,.361-1.52A1.151,1.151,0,0,0,280.479,245.912Zm93.548,1.986a1.333,1.333,0,0,0-.46.155,1.067,1.067,0,0,0-.361,1.52,1.208,1.208,0,0,0,1.609.341,1.067,1.067,0,0,0,.361-1.52A1.151,1.151,0,0,0,374.027,247.9Zm6.307.993a1.332,1.332,0,0,0-.46.155,1.067,1.067,0,0,0-.361,1.52,1.208,1.208,0,0,0,1.609.341,1.067,1.067,0,0,0,.361-1.52A1.151,1.151,0,0,0,380.333,248.891Zm-99.853.993a1.331,1.331,0,0,0-.46.155,1.067,1.067,0,0,0-.361,1.52,1.208,1.208,0,0,0,1.609.341,1.067,1.067,0,0,0,.361-1.52A1.151,1.151,0,0,0,280.48,249.884Zm95.646,2.979a1.333,1.333,0,0,0-.46.155,1.067,1.067,0,0,0-.361,1.52,1.208,1.208,0,0,0,1.61.341,1.067,1.067,0,0,0,.361-1.52A1.151,1.151,0,0,0,376.126,252.862Zm4.2,0a1.333,1.333,0,0,0-.46.155,1.067,1.067,0,0,0-.361,1.52,1.208,1.208,0,0,0,1.609.341,1.067,1.067,0,0,0,.361-1.52A1.151,1.151,0,0,0,380.33,252.862Zm-98.8.993a1.332,1.332,0,0,0-.46.155,1.018,1.018,0,0,0-.427,1.427,1.092,1.092,0,0,1-.526,1.489,1.133,1.133,0,0,0-.46,1.582,1.208,1.208,0,0,0,1.609.341,1.017,1.017,0,0,0,.427-1.427,1.093,1.093,0,0,1,.526-1.489,1.133,1.133,0,0,0,.46-1.582A1.151,1.151,0,0,0,281.531,253.855Zm478.242,0a1.332,1.332,0,0,0-.46.155,1.067,1.067,0,0,0-.361,1.52,1.208,1.208,0,0,0,1.61.341,1.067,1.067,0,0,0,.361-1.52A1.151,1.151,0,0,0,759.774,253.855Zm-474.044,3.971a1.333,1.333,0,0,0-.46.155,1.067,1.067,0,0,0-.361,1.52,1.208,1.208,0,0,0,1.609.341,1.067,1.067,0,0,0,.361-1.52A1.151,1.151,0,0,0,285.729,257.826Zm464.579.062c-.972.03-1.641,1.353-.821,2.606.508.777,1.017.777,1.839,0a1.264,1.264,0,0,0,0-2.172A1.393,1.393,0,0,0,750.308,257.888Zm-487.709.931a1.332,1.332,0,0,0-.46.155,1.067,1.067,0,0,0-.361,1.52,1.208,1.208,0,0,0,1.61.341,1.067,1.067,0,0,0,.361-1.52A1.151,1.151,0,0,0,262.6,258.819Zm414.13,0a1.333,1.333,0,0,0-.46.155,1.067,1.067,0,0,0-.361,1.52,1.208,1.208,0,0,0,1.609.341,1.067,1.067,0,0,0,.361-1.52A1.151,1.151,0,0,0,676.729,258.819Zm-409.923.993a1.331,1.331,0,0,0-.46.155,1.067,1.067,0,0,0-.361,1.52,1.208,1.208,0,0,0,1.61.341,1.067,1.067,0,0,0,.361-1.52A1.151,1.151,0,0,0,266.805,259.812Zm310.07,0a1.331,1.331,0,0,0-.46.155,1.067,1.067,0,0,0-.361,1.52,1.208,1.208,0,0,0,1.609.341,1.067,1.067,0,0,0,.361-1.52A1.151,1.151,0,0,0,576.876,259.812Zm-297.46.993a1.333,1.333,0,0,0-.46.155,1.067,1.067,0,0,0-.361,1.52,1.208,1.208,0,0,0,1.61.341,1.067,1.067,0,0,0,.361-1.52A1.151,1.151,0,0,0,279.415,260.8Zm467.731,0a1.332,1.332,0,0,0-.46.155,1.067,1.067,0,0,0-.361,1.52,1.208,1.208,0,0,0,1.609.341,1.067,1.067,0,0,0,.361-1.52A1.151,1.151,0,0,0,747.146,260.8Zm-70.423,1.986a1.333,1.333,0,0,0-.46.155,1.067,1.067,0,0,0-.361,1.52,1.208,1.208,0,0,0,1.61.341,1.067,1.067,0,0,0,.361-1.52A1.151,1.151,0,0,0,676.723,262.791Zm76.73,0a1.333,1.333,0,0,0-.46.155,1.067,1.067,0,0,0-.361,1.52,1.208,1.208,0,0,0,1.609.341,1.067,1.067,0,0,0,.361-1.52A1.151,1.151,0,0,0,753.453,262.791Zm-470.893.993a1.332,1.332,0,0,0-.46.155,1.067,1.067,0,0,0-.361,1.52,1.208,1.208,0,0,0,1.609.341,1.067,1.067,0,0,0,.361-1.52A1.151,1.151,0,0,0,282.56,263.783Zm-29.2.745a.19.19,0,0,0-.1.062c-.289.273-.243,1.251.131,2.172s.926,1.452,1.215,1.179.21-1.251-.164-2.172C254.116,264.963,253.662,264.459,253.36,264.528Zm491.516.838c-.784,0-3.35,4.233-3.35,5.523,0,1.257,1.173.113,2.628-2.544C745.049,266.706,745.375,265.366,744.875,265.366Zm18.033.4a1.332,1.332,0,0,0-.46.155,1.067,1.067,0,0,0-.361,1.52,1.208,1.208,0,0,0,1.609.341,1.067,1.067,0,0,0,.361-1.52A1.151,1.151,0,0,0,762.908,265.769Zm-57.81.993a1.332,1.332,0,0,0-.46.155,1.067,1.067,0,0,0-.361,1.52,1.208,1.208,0,0,0,1.609.341,1.067,1.067,0,0,0,.361-1.52A1.151,1.151,0,0,0,705.1,266.762Zm57.383,3.723a9.561,9.561,0,0,0-3.35,1.272c-2.1,1.034-2.9,1.106-2.923.248-.039-1.358-3.12,2.2-3.12,3.6,0,.509.7.381,1.544-.279,1.732-1.358,3.712-.595,3.712,1.427s2.28,2.346,4.172.589a5.031,5.031,0,0,0,1.248-4.282C763.5,271.291,763.3,270.5,762.481,270.485Zm-116.869.217c-.749-.045-1.375.791-1.642,2.513-.648,4.174.931,5.926,3.777,4.219,1.028-.617,1.049-1.517.131-4C647.222,271.655,646.36,270.747,645.612,270.7Zm-19.346,1.024a1.333,1.333,0,0,0-.46.155,1.067,1.067,0,0,0-.361,1.52,1.208,1.208,0,0,0,1.609.341,1.067,1.067,0,0,0,.361-1.52A1.151,1.151,0,0,0,626.265,271.726Zm159.011,3.847a1.547,1.547,0,0,0-.821.5,2.7,2.7,0,0,0-.46,2.792c.509,1.252,1,1.446,1.839.652a2.76,2.76,0,0,0,.46-2.823C785.977,275.907,785.675,275.54,785.277,275.573Zm-159.014.124a1.332,1.332,0,0,0-.46.155,1.067,1.067,0,0,0-.361,1.52,1.208,1.208,0,0,0,1.609.341,1.067,1.067,0,0,0,.361-1.52A1.151,1.151,0,0,0,626.262,275.7Zm53.606.993a1.333,1.333,0,0,0-.46.155,1.067,1.067,0,0,0-.361,1.52,1.208,1.208,0,0,0,1.609.341,1.067,1.067,0,0,0,.361-1.52A1.151,1.151,0,0,0,679.868,276.69Zm59.652.776-5.748,5.367c-3.155,2.956-6.409,5.367-7.259,5.367a2.483,2.483,0,0,0-2.069,1.893,3.752,3.752,0,0,1-3.022,2.234c-2.069.276-2.447.82-2.168,3.258a19.372,19.372,0,0,0,3.219,6.95c2.462,3.462,3.384,4.033,6.668,4.033,2.1,0,4.136.34,4.566.745a1.7,1.7,0,0,0,2.036-.248c.684-.537,1.552-.675,1.938-.31s.419-.689.066-2.358c-.382-1.8-.171-3.316.526-3.723.645-.377,1.865-2.221,2.693-4.1s2.048-3.413,2.726-3.413c.927,0,.922-.372-.033-1.458-.7-.8-.989-1.85-.657-2.358s-.42-1.179-1.675-1.489c-2.253-.557-2.252-.6.624-3.32l2.923-2.73-2.693-2.172Zm9.723,1.21a1.333,1.333,0,0,0-.46.155,1.067,1.067,0,0,0-.361,1.52,1.208,1.208,0,0,0,1.609.341,1.067,1.067,0,0,0,.361-1.52A1.151,1.151,0,0,0,749.243,278.676Zm-121.922.993a1.332,1.332,0,0,0-.46.155,1.067,1.067,0,0,0-.361,1.52,1.208,1.208,0,0,0,1.609.341,1.067,1.067,0,0,0,.361-1.52A1.151,1.151,0,0,0,627.321,279.668Zm57.381,1.706,4.237,5.026c2.334,2.769,4.237,5.807,4.237,6.732s1.182,2.72,2.628,4,2.652,3.049,2.661,3.909c.02,1.943,8.514,11,9.953,10.611.578-.156,1.213-1.346,1.412-2.668a8.639,8.639,0,0,1,1.412-3.63c1.21-1.392.124-3.558-1.347-2.7-1.175.686-7.343-4.565-6.635-5.647.267-.407-2.062-3.118-5.157-6.019s-5.836-5.834-6.077-6.515-1.975-1.657-3.876-2.172Zm-58.435,2.265a1.332,1.332,0,0,0-.46.155,1.067,1.067,0,0,0-.361,1.52,1.208,1.208,0,0,0,1.609.341,1.067,1.067,0,0,0,.361-1.52A1.151,1.151,0,0,0,626.267,283.64Zm90.394.993a1.333,1.333,0,0,0-.46.155,1.067,1.067,0,0,0-.361,1.52,1.208,1.208,0,0,0,1.61.341,1.067,1.067,0,0,0,.361-1.52A1.151,1.151,0,0,0,716.661,284.632Zm-257.514.993a1.332,1.332,0,0,0-.46.155,1.067,1.067,0,0,0-.361,1.52,1.208,1.208,0,0,0,1.61.341,1.067,1.067,0,0,0,.361-1.52A1.151,1.151,0,0,0,459.147,285.625Zm225.989,1.986a1.332,1.332,0,0,0-.46.155,1.067,1.067,0,0,0-.361,1.52,1.208,1.208,0,0,0,1.609.341,1.067,1.067,0,0,0,.361-1.52A1.15,1.15,0,0,0,685.136,287.611Zm84.087,0a1.332,1.332,0,0,0-.46.155,1.067,1.067,0,0,0-.361,1.52,1.208,1.208,0,0,0,1.609.341,1.067,1.067,0,0,0,.361-1.52A1.151,1.151,0,0,0,769.223,287.611ZM457.045,289.6a1.332,1.332,0,0,0-.46.155,1.067,1.067,0,0,0-.361,1.52,1.208,1.208,0,0,0,1.609.341,1.067,1.067,0,0,0,.361-1.52A1.151,1.151,0,0,0,457.045,289.6Zm-252.263,1.986a1.332,1.332,0,0,0-.46.155,1.067,1.067,0,0,0-.361,1.52,1.208,1.208,0,0,0,1.609.341,1.067,1.067,0,0,0,.361-1.52A1.151,1.151,0,0,0,204.782,291.582Zm563.65.931c-1.152,0-1.541.955-1.445,3.351.146,3.658,1.341,3.24,2.4-.807C769.885,293.141,769.634,292.513,768.432,292.513Zm-79.095.062a1.331,1.331,0,0,0-.46.155,1.067,1.067,0,0,0-.361,1.52,1.208,1.208,0,0,0,1.609.341,1.067,1.067,0,0,0,.361-1.52A1.151,1.151,0,0,0,689.338,292.575Zm68.255.931c-.7-.015-1.585,0-2.693.031-3.272.093-6.4.618-6.931,1.148-1.807,1.813-3.432,11.53-2.168,12.969a2.134,2.134,0,0,1,.526,2.3c-.542.829,1.377,5.057,2.3,5.057a13.414,13.414,0,0,0-.361-3.94c-1.281-7.57,2.075-9.269,3.679-1.862.891,4.113,2.722,4.357,2.792.372a6.236,6.236,0,0,0-2.529-5.057c-3.1-2.518-2.19-4.856,1.544-3.971,1.5.357,2.5.155,2.5-.5s-1.545-.963-3.843-.776c-2.606.212-4.037-.145-4.369-1.086-.733-2.078,2.8-4.013,6.142-3.382a8.746,8.746,0,0,0,4.8-.434C760.018,293.822,759.689,293.551,757.593,293.506Zm-303.7.062a1.332,1.332,0,0,0-.46.155,1.067,1.067,0,0,0-.361,1.52,1.208,1.208,0,0,0,1.609.341,1.067,1.067,0,0,0,.361-1.52A1.151,1.151,0,0,0,453.891,293.568Zm319.528,1.986a1.332,1.332,0,0,0-.46.155,1.067,1.067,0,0,0-.361,1.52,1.208,1.208,0,0,0,1.609.341,1.067,1.067,0,0,0,.361-1.52A1.151,1.151,0,0,0,773.419,295.553Zm-568.638.993a1.333,1.333,0,0,0-.46.155,1.067,1.067,0,0,0-.361,1.52,1.208,1.208,0,0,0,1.609.341,1.067,1.067,0,0,0,.361-1.52A1.151,1.151,0,0,0,204.781,296.546Zm-4.206.062c-.973.03-1.641,1.353-.821,2.606.509.777,1.017.777,1.839,0a1.264,1.264,0,0,0,0-2.172A1.393,1.393,0,0,0,200.575,296.608Zm8.409.931a1.333,1.333,0,0,0-.46.155,1.067,1.067,0,0,0-.361,1.52,1.208,1.208,0,0,0,1.61.341,1.067,1.067,0,0,0,.361-1.52A1.151,1.151,0,0,0,208.983,297.539Zm568.411.962c-1.656.094-.437,1.542,2.858,2.73,2.513.906,2.608,1.131,1.018,2.234-1.088.755-1.44,1.717-.92,2.513.584.892,1.086.966,1.577.217.979-1.5,10.788,3.428,12.909,6.484,1.512,2.18,1.46,2.538-.361,4.5-1.661,1.788-1.684,2.05-.23,1.551.952-.327,3.438.25,5.518,1.3,4.238,2.146,8.118,2.52,7.719.745-.144-.643,1.023-1.623,2.595-2.172,2.3-.8,3.276-.63,4.993.838,1.174,1,2.135,2.415,2.135,3.133s1.537,1.721,3.416,2.234c5.453,1.487,5.748,1.216,1.938-1.862-1.974-1.594-3.7-3.931-3.843-5.181s-.313-2.542-.361-2.885c-.216-1.541-12.039-8.212-18.492-10.424l-7.128-2.42-2.464,2.172c-2.359,2.093-2.544,2.107-4.5.434-1.123-.96-1.788-2.37-1.478-3.134.577-1.42-.1-1.776-5.288-2.854A6.306,6.306,0,0,0,777.394,298.5Zm-83.854,1.024a1.333,1.333,0,0,0-.46.155,1.067,1.067,0,0,0-.361,1.52,1.208,1.208,0,0,0,1.609.341,1.067,1.067,0,0,0,.361-1.52A1.151,1.151,0,0,0,693.54,299.525Zm94.6,0a1.333,1.333,0,0,0-.46.155,1.067,1.067,0,0,0-.361,1.52,1.208,1.208,0,0,0,1.609.341,1.067,1.067,0,0,0,.361-1.52A1.151,1.151,0,0,0,788.142,299.525Zm16.817,0a1.334,1.334,0,0,0-.46.155,1.067,1.067,0,0,0-.361,1.52,1.208,1.208,0,0,0,1.609.341,1.067,1.067,0,0,0,.361-1.52A1.151,1.151,0,0,0,804.959,299.525Zm19.971,0a1.332,1.332,0,0,0-.46.155,1.067,1.067,0,0,0-.361,1.52,1.208,1.208,0,0,0,1.609.341,1.067,1.067,0,0,0,.361-1.52A1.151,1.151,0,0,0,824.93,299.525Zm-51.5.062c-.973.03-1.641,1.353-.821,2.606.508.777,1.017.777,1.84,0a1.264,1.264,0,0,0,0-2.172A1.393,1.393,0,0,0,773.426,299.587Zm-321.636.931a1.333,1.333,0,0,0-.46.155,1.067,1.067,0,0,0-.361,1.52,1.208,1.208,0,0,0,1.61.341,1.067,1.067,0,0,0,.361-1.52A1.151,1.151,0,0,0,451.79,300.517Zm265.926,0a1.333,1.333,0,0,0-.46.155,1.067,1.067,0,0,0-.361,1.52,1.208,1.208,0,0,0,1.609.341,1.067,1.067,0,0,0,.361-1.52A1.151,1.151,0,0,0,717.717,300.517Zm98.8,0a1.333,1.333,0,0,0-.46.155,1.067,1.067,0,0,0-.361,1.52,1.208,1.208,0,0,0,1.609.341,1.067,1.067,0,0,0,.361-1.52A1.151,1.151,0,0,0,816.516,300.517Zm-56.759.993a1.332,1.332,0,0,0-.46.155,1.067,1.067,0,0,0-.361,1.52,1.208,1.208,0,0,0,1.609.341,1.067,1.067,0,0,0,.361-1.52A1.151,1.151,0,0,0,759.757,301.51Zm4.2,0a1.333,1.333,0,0,0-.46.155,1.067,1.067,0,0,0-.361,1.52,1.208,1.208,0,0,0,1.61.341,1.067,1.067,0,0,0,.361-1.52A1.151,1.151,0,0,0,763.961,301.51ZM715.618,303.5a1.332,1.332,0,0,0-.46.155,1.067,1.067,0,0,0-.361,1.52,1.208,1.208,0,0,0,1.61.341,1.067,1.067,0,0,0,.361-1.52A1.151,1.151,0,0,0,715.618,303.5Zm115.615.124c-.89-.045-1,1.12.329,3.041,1.178,1.7,2.085,2.157,2.825,1.458s.448-1.619-.854-2.978A4.2,4.2,0,0,0,831.233,303.62Zm-135.557.559c-.239-.08-.159.295.2,1.179.395.979.99,1.547,1.314,1.241s0-1.126-.723-1.8A3.187,3.187,0,0,0,695.676,304.178Zm75.317,0a5.97,5.97,0,0,0-1.741.31c-.87.315-1.267,1.063-.887,1.644.846,1.293,6.274.806,6.274-.558C774.64,304.667,772.808,304.095,770.994,304.178Zm-7.029,1.3a1.333,1.333,0,0,0-.46.155,1.067,1.067,0,0,0-.361,1.52,1.208,1.208,0,0,0,1.609.341,1.067,1.067,0,0,0,.361-1.52A1.151,1.151,0,0,0,763.964,305.481Zm-181.836,1.986a1.333,1.333,0,0,0-.46.155,1.067,1.067,0,0,0-.361,1.52,1.208,1.208,0,0,0,1.609.341,1.067,1.067,0,0,0,.361-1.52A1.151,1.151,0,0,0,582.129,307.467Zm247.43.031a3.8,3.8,0,0,0-1.774.993,6.319,6.319,0,0,1-2.989,1.551,2.015,2.015,0,0,0-1.806,2.978c1.039,1.588,2.531,1.178,5.354-1.489C830.56,309.437,830.829,307.336,829.558,307.5Zm-286.322,1.955a1.332,1.332,0,0,0-.46.155,1.067,1.067,0,0,0-.361,1.52,1.208,1.208,0,0,0,1.609.341,1.067,1.067,0,0,0,.361-1.52A1.151,1.151,0,0,0,543.236,309.453Zm237.545.993a1.332,1.332,0,0,0-.46.155,1.067,1.067,0,0,0-.361,1.52,1.208,1.208,0,0,0,1.609.341,1.067,1.067,0,0,0,.361-1.52A1.151,1.151,0,0,0,780.781,310.445Zm38.89,0a1.331,1.331,0,0,0-.46.155,1.067,1.067,0,0,0-.361,1.52,1.208,1.208,0,0,0,1.609.341,1.067,1.067,0,0,0,.361-1.52A1.151,1.151,0,0,0,819.671,310.445Zm-60.963.993a1.332,1.332,0,0,0-.46.155,1.067,1.067,0,0,0-.361,1.52,1.208,1.208,0,0,0,1.609.341,1.067,1.067,0,0,0,.361-1.52A1.15,1.15,0,0,0,758.708,311.438Zm26.277,0a1.333,1.333,0,0,0-.46.155,1.067,1.067,0,0,0-.361,1.52,1.208,1.208,0,0,0,1.609.341,1.067,1.067,0,0,0,.361-1.52A1.151,1.151,0,0,0,784.985,311.438Zm52.555,0a1.333,1.333,0,0,0-.46.155,1.067,1.067,0,0,0-.361,1.52,1.208,1.208,0,0,0,1.609.341,1.067,1.067,0,0,0,.361-1.52A1.151,1.151,0,0,0,837.54,311.438Zm-260.666.993a1.333,1.333,0,0,0-.46.155,1.067,1.067,0,0,0-.361,1.52,1.208,1.208,0,0,0,1.609.341,1.067,1.067,0,0,0,.361-1.52A1.151,1.151,0,0,0,576.874,312.431Zm-34.686.993a1.331,1.331,0,0,0-.46.155,1.067,1.067,0,0,0-.361,1.52,1.208,1.208,0,0,0,1.61.341,1.067,1.067,0,0,0,.361-1.52A1.151,1.151,0,0,0,542.187,313.424Zm299.559,0a1.332,1.332,0,0,0-.46.155,1.067,1.067,0,0,0-.361,1.52,1.208,1.208,0,0,0,1.609.341,1.067,1.067,0,0,0,.361-1.52A1.151,1.151,0,0,0,841.746,313.424Zm-129.842.4a1.194,1.194,0,0,0-1.018.465c-.9,1.367,2.917,3.271,8.179,4.064,8.287,1.249,10.227,1.625,10.741,2.11.8.755,2.274.593,2.266-.248-.016-1.623-6.925-5.12-9.066-4.592-1.216.3-4.3-.121-6.832-.931A13.181,13.181,0,0,0,711.9,313.827Zm20.135.434c-1.11.042-2.094.908-1.511,1.8a2.151,2.151,0,0,0,1.544.931c1.472,0,2.259-1.8,1.084-2.482A2.046,2.046,0,0,0,732.039,314.262Zm4.6.155a1.332,1.332,0,0,0-.46.155,1.067,1.067,0,0,0-.361,1.52,1.208,1.208,0,0,0,1.609.341,1.067,1.067,0,0,0,.361-1.52A1.151,1.151,0,0,0,736.637,314.417Zm109.968.838c-1.11.042-2.094.908-1.511,1.8a2.151,2.151,0,0,0,1.544.931c1.472,0,2.259-1.8,1.084-2.482A2.046,2.046,0,0,0,846.606,315.255Zm-94.2.155a1.332,1.332,0,0,0-.46.155,1.067,1.067,0,0,0-.361,1.52,1.208,1.208,0,0,0,1.609.341,1.067,1.067,0,0,0,.361-1.52A1.151,1.151,0,0,0,752.4,315.41Zm14.715.993a1.331,1.331,0,0,0-.46.155,1.067,1.067,0,0,0-.361,1.52,1.208,1.208,0,0,0,1.609.341,1.067,1.067,0,0,0,.361-1.52A1.151,1.151,0,0,0,767.118,316.4Zm9.066.838c-1.11.042-2.094.908-1.511,1.8a2.151,2.151,0,0,0,1.544.931c1.472,0,2.259-1.8,1.084-2.482A2.046,2.046,0,0,0,776.184,317.24Zm66.613.155a1.331,1.331,0,0,0-.46.155,1.067,1.067,0,0,0-.361,1.52,1.208,1.208,0,0,0,1.609.341,1.067,1.067,0,0,0,.361-1.52A1.151,1.151,0,0,0,842.8,317.4Zm9.066.807a1.807,1.807,0,0,0-.985.248c-.882.515-.839,1.074.1,2.141.88,1,1.6,1.121,2.365.4C854.481,319.917,853.269,318.253,851.863,318.2Zm-308.626.186a1.333,1.333,0,0,0-.46.155,1.067,1.067,0,0,0-.361,1.52,1.208,1.208,0,0,0,1.609.341,1.067,1.067,0,0,0,.361-1.52A1.151,1.151,0,0,0,543.237,318.388Zm228.088,0a1.332,1.332,0,0,0-.46.155,1.067,1.067,0,0,0-.361,1.52,1.208,1.208,0,0,0,1.609.341,1.067,1.067,0,0,0,.361-1.52A1.151,1.151,0,0,0,771.325,318.388Zm-6.766.651c-2.66.348-8.84,5.24-7.883,6.7.471.72,1.847.432,4.237-.9,4.925-2.745,6.235-4.348,4.566-5.647A1.265,1.265,0,0,0,764.558,319.04Zm-28.971.341a1.331,1.331,0,0,0-.46.155,1.067,1.067,0,0,0-.361,1.52,1.208,1.208,0,0,0,1.609.341,1.067,1.067,0,0,0,.361-1.52A1.151,1.151,0,0,0,735.587,319.381Zm21.022,0a1.333,1.333,0,0,0-.46.155,1.067,1.067,0,0,0-.361,1.52,1.208,1.208,0,0,0,1.609.341,1.067,1.067,0,0,0,.361-1.52A1.151,1.151,0,0,0,756.609,319.381Zm-7.391.745a2.654,2.654,0,0,0-1.347.31,1.153,1.153,0,0,0-.526,1.582,2.8,2.8,0,0,0,4.172-.062C752.116,321.041,750.651,320.134,749.218,320.125Zm-8.639.248a3.956,3.956,0,0,0-1.412.341.79.79,0,0,0-.3,1.179c.758,1.158,5.382.736,4.763-.434a3.127,3.127,0,0,0-2.562-1.086A4.745,4.745,0,0,0,740.58,320.374Zm108.529.993a1.331,1.331,0,0,0-.46.155,1.067,1.067,0,0,0-.361,1.52,1.208,1.208,0,0,0,1.609.341,1.067,1.067,0,0,0,.361-1.52A1.151,1.151,0,0,0,849.109,321.367ZM746.1,323.352a1.332,1.332,0,0,0-.46.155,1.067,1.067,0,0,0-.361,1.52,1.208,1.208,0,0,0,1.61.341,1.067,1.067,0,0,0,.361-1.52A1.151,1.151,0,0,0,746.1,323.352Zm6.307.993a1.333,1.333,0,0,0-.46.155,1.067,1.067,0,0,0-.361,1.52,1.208,1.208,0,0,0,1.609.341,1.067,1.067,0,0,0,.361-1.52A1.151,1.151,0,0,0,752.41,324.345Zm101.952,0a1.333,1.333,0,0,0-.46.155,1.067,1.067,0,0,0-.361,1.52,1.208,1.208,0,0,0,1.609.341,1.067,1.067,0,0,0,.361-1.52A1.151,1.151,0,0,0,854.361,324.345Zm-23.124,1.986a1.332,1.332,0,0,0-.46.155,1.067,1.067,0,0,0-.361,1.52,1.208,1.208,0,0,0,1.609.341,1.067,1.067,0,0,0,.361-1.52A1.151,1.151,0,0,0,831.237,326.331Zm18.919.993a1.331,1.331,0,0,0-.46.155,1.067,1.067,0,0,0-.361,1.52,1.208,1.208,0,0,0,1.609.341,1.067,1.067,0,0,0,.361-1.52A1.151,1.151,0,0,0,850.157,327.323Zm-71.31.838c-.3.047-.33.236-.1.589.38.581-.512,1.8-1.971,2.7s-2.413,2-2.135,2.42-.216,1.336-1.084,2.017c-1.142.9-1.267,1.564-.46,2.482.613.7.757,1.5.3,1.768-1.668.972-8.1-.086-8.672-1.427-.823-1.92-3.219-2.169-3.219-.341,0,.831-1.13,2-2.529,2.606-1.442.621-2.34,1.642-2.036,2.389a3.059,3.059,0,0,1-.23,2.513c-.563.86-1.177.7-2.2-.62-1.367-1.766-1.423-1.767-1.544.093a20.233,20.233,0,0,0,.033,3.1c.161,1.227-6.205,6.267-7.916,6.267-1.034,0-5.851,2.29-11.693,5.553-3.843,2.147-4.522,5.532-1.708,8.47a3.459,3.459,0,0,1,.985,3.568c-.687,1.675-.816,1.665-2.234-.155-.868-1.114-1.511-1.39-1.511-.652,0,.7.985,2.607,2.2,4.219,2.454,3.255,5.6,15.783,4.861,19.422-.365,1.8.228,2.676,2.562,3.816,2.831,1.383,3.267,1.327,6.931-1.024a16.307,16.307,0,0,1,7.292-2.513,9.64,9.64,0,0,0,6.208-2.482,10.283,10.283,0,0,1,5.518-2.482,23.361,23.361,0,0,0,5.88-1.055c4.854-1.569,13.029,1.532,15.241,5.771.914,1.752,1.907,3.183,2.234,3.2s1.425-1.608,2.431-3.6c1.348-2.671,2.121-3.333,2.989-2.513s.877,1.807-.033,3.692c-1.615,3.348-1.576,3.929.23,2.513,1.082-.848,1.672-.839,2.2-.031.4.609.462,1.363.131,1.675s.575,1.871,2,3.475,2.595,3.551,2.595,4.313c0,2.164,6.47,3.444,8.606,1.706,1.543-1.255,1.986-1.186,3.679.558,2.478,2.554,2.3,2.565,4.7-.31a5.545,5.545,0,0,1,4.237-2.234c1.5.155,2.28-.408,2.464-1.768.338-2.5,2.282-7.774,4.763-12.906s5.108-25.552,3.219-25.037c-.994.271-6.438-3.377-6.438-4.312,0-.455-1.16-2.013-2.595-3.475s-2.389-3.037-2.1-3.475-.435-1.075-1.61-1.427c-2.888-.866-6.306-7.493-6.306-12.224,0-2.559-.681-4.426-2.036-5.585a10.5,10.5,0,0,1-2.759-4.871,19.432,19.432,0,0,0-1.281-4.064c-.793-1.259-3.188,5.141-3.317,8.873-.1,3-3.642,11.417-4.8,11.417a45.63,45.63,0,0,1-6.405-4.033c-5.422-3.784-5.78-4.254-5.124-7.2a11.054,11.054,0,0,1,1.642-4.1c1.245-1.249,1.219-3.8-.033-3.072a1.181,1.181,0,0,1-1.577-.372,3.067,3.067,0,0,0-2.464-.838,15.071,15.071,0,0,1-4.3-.683A4.63,4.63,0,0,0,778.847,328.161Zm-229.3,1.148a1.332,1.332,0,0,0-.46.155,1.067,1.067,0,0,0-.361,1.52,1.208,1.208,0,0,0,1.609.341,1.067,1.067,0,0,0,.361-1.52A1.151,1.151,0,0,0,549.542,329.309Zm3.153,1.986a1.332,1.332,0,0,0-.46.155,1.067,1.067,0,0,0-.361,1.52,1.208,1.208,0,0,0,1.609.341,1.067,1.067,0,0,0,.361-1.52A1.151,1.151,0,0,0,552.7,331.295Zm12.81.931c-.326.051-.558.464-.558,1.117,0,2.688-3.217,6.42-7.029,8.129-4.212,1.888-5.908,5.2-4.993,9.8a7.064,7.064,0,0,1-1.117,5.8c-1.824,2.63-1.676,5.142.69,10.8.96,2.294,1.574,2.618,3.909,2.079a7.369,7.369,0,0,0,3.547-1.737c.96-1.32,2.127-5.487,4.467-15.978a66.649,66.649,0,0,1,2.661-9.556c1.019-1.873.112-9.619-1.215-10.394A.535.535,0,0,0,565.505,332.225Zm-9.657,2.048a1.332,1.332,0,0,0-.46.155,1.067,1.067,0,0,0-.361,1.52,1.208,1.208,0,0,0,1.609.341,1.067,1.067,0,0,0,.361-1.52A1.151,1.151,0,0,0,555.848,334.273Zm235.446,0a1.333,1.333,0,0,0-.46.155,1.067,1.067,0,0,0-.361,1.52,1.208,1.208,0,0,0,1.609.341,1.067,1.067,0,0,0,.361-1.52A1.151,1.151,0,0,0,791.294,334.273Zm-212.323,7.943a1.331,1.331,0,0,0-.46.155,1.067,1.067,0,0,0-.361,1.52,1.208,1.208,0,0,0,1.609.341,1.067,1.067,0,0,0,.361-1.52A1.151,1.151,0,0,0,578.971,342.216Zm7.36,12.907a1.331,1.331,0,0,0-.46.155,1.067,1.067,0,0,0-.361,1.52,1.208,1.208,0,0,0,1.609.341,1.067,1.067,0,0,0,.361-1.52A1.151,1.151,0,0,0,586.331,355.122Zm-4.206.993a1.331,1.331,0,0,0-.46.155,1.067,1.067,0,0,0-.361,1.52,1.208,1.208,0,0,0,1.609.341,1.067,1.067,0,0,0,.361-1.52A1.151,1.151,0,0,0,582.124,356.115ZM234.218,394.834a1.332,1.332,0,0,0-.46.155,1.067,1.067,0,0,0-.361,1.52,1.208,1.208,0,0,0,1.61.341,1.067,1.067,0,0,0,.361-1.52A1.151,1.151,0,0,0,234.218,394.834Zm648.622,3.909a.221.221,0,0,0-.164.031c-.289.273.4,1.756,1.544,3.289,3.232,4.334,3.791,7.055,1.971,9.68-1.5,2.159-1.444,2.384.46,2.854a2.639,2.639,0,0,1,2.036,2.575c0,3.206,1.95,2.459,2.989-1.148.511-1.775,1.473-3.115,2.135-2.978s1.183-.15,1.183-.652a9.767,9.767,0,0,1,.723-2.668c.557-1.37.31-1.584-1.15-1.055-1.33.482-2.032.075-2.431-1.365-.435-1.571-.849-1.748-1.971-.869s-1.618.72-2.168-.714C887.018,403.17,883.749,398.805,882.84,398.744Zm-92.594,2.048a1.332,1.332,0,0,0-.46.155,1.067,1.067,0,0,0-.361,1.52,1.208,1.208,0,0,0,1.61.341,1.067,1.067,0,0,0,.361-1.52A1.151,1.151,0,0,0,790.246,400.791Zm28.38,12.906a1.332,1.332,0,0,0-.46.155,1.067,1.067,0,0,0-.361,1.52,1.208,1.208,0,0,0,1.61.341,1.067,1.067,0,0,0,.361-1.52A1.151,1.151,0,0,0,818.625,413.7Zm-9.459.993a1.332,1.332,0,0,0-.46.155,1.067,1.067,0,0,0-.361,1.52,1.208,1.208,0,0,0,1.609.341,1.067,1.067,0,0,0,.361-1.52A1.151,1.151,0,0,0,809.166,414.69Zm3.745,3.909c-1.63.054-1.576.5-.953,1.986.493,1.175,1.128,2.923,1.445,3.878.6,1.792,5.306,1.926,5.485.155a11.588,11.588,0,0,1,.92-2.668c1.115-2.4.181-3.053-4.664-3.289C814.193,418.615,813.454,418.581,812.911,418.6Zm70.521.248c-1.669.157-4.2,2.486-4.2,4.126,0,.6-1.239,2.035-2.759,3.165-4.513,3.353-11.333,12.577-7.752,10.486a3.535,3.535,0,0,1,2.891.4c2.488,1.369,3.983,1.331,5.288-.155,1.138-1.3,1.281-1.721,1.281-4.25,0-.844,1.2-2.689,2.661-4.064s2.373-2.9,2.036-3.413.114-1.224,1.018-1.551c2.045-.741,2.158-3.931.164-4.654a1.173,1.173,0,0,0-.3-.093A1.787,1.787,0,0,0,883.432,418.847ZM245.784,421.7c-.973.03-1.641,1.353-.821,2.606.509.777,1.017.777,1.839,0a1.264,1.264,0,0,0,0-2.172A1.393,1.393,0,0,0,245.784,421.7Zm625.4,17.809a1.334,1.334,0,0,0-.46.155,1.067,1.067,0,0,0-.361,1.52,1.208,1.208,0,0,0,1.609.341,1.067,1.067,0,0,0,.361-1.52A1.151,1.151,0,0,0,871.185,439.51Zm-627.5.993a1.332,1.332,0,0,0-.46.155,1.067,1.067,0,0,0-.361,1.52,1.208,1.208,0,0,0,1.609.341,1.067,1.067,0,0,0,.361-1.52A1.151,1.151,0,0,0,243.686,440.5Zm0,4.964a1.331,1.331,0,0,0-.46.155,1.067,1.067,0,0,0-.361,1.52,1.208,1.208,0,0,0,1.609.341,1.067,1.067,0,0,0,.361-1.52A1.151,1.151,0,0,0,243.686,445.467Zm621.195,2.978a1.333,1.333,0,0,0-.46.155,1.067,1.067,0,0,0-.361,1.52,1.208,1.208,0,0,0,1.61.341,1.067,1.067,0,0,0,.361-1.52A1.151,1.151,0,0,0,864.88,448.446Zm-621.195,1.985a1.334,1.334,0,0,0-.46.155,1.067,1.067,0,0,0-.361,1.52,1.208,1.208,0,0,0,1.609.341,1.067,1.067,0,0,0,.361-1.52A1.151,1.151,0,0,0,243.686,450.431Zm43.095,1.986a1.333,1.333,0,0,0-.46.155,1.018,1.018,0,0,0-.427,1.427,1.093,1.093,0,0,1-.526,1.489,1.133,1.133,0,0,0-.46,1.582,1.208,1.208,0,0,0,1.609.341,1.018,1.018,0,0,0,.427-1.427,1.093,1.093,0,0,1,.526-1.489,1.133,1.133,0,0,0,.46-1.582A1.151,1.151,0,0,0,286.78,452.417Zm-4.631.807a1.858,1.858,0,0,0-1.544,2.73c.545.833,1.137.823,2.266-.062,1.06-.831,1.187-1.516.427-2.234A1.488,1.488,0,0,0,282.149,453.223Zm-34.817,4.064a1.825,1.825,0,0,0-.92.217c-.966.564-.793,1.116.69,2.141,1.1.759,1.885,1.581,1.741,1.83a2.449,2.449,0,0,0-.263,1.024c0,.305.511.261,1.117-.093.753-.44.71-1.09-.131-2.048-.677-.77-.837-1.4-.361-1.4s.315-.509-.328-1.117A2.253,2.253,0,0,0,247.332,457.288Zm11.792,1.862c-.526.12-.657.989-.624,2.544.049,2.274-.344,2.687-2.365,2.482-1.4-.142-2.148.173-1.774.745.357.545,2.013.993,3.679.993s3.288.4,3.613.9c.653,1,2.566.918,4.434-.186.8-.475-.016-1.877-2.464-4.188-2.219-2.1-3.506-3.182-4.237-3.289A.759.759,0,0,0,259.124,459.149Zm11.89,5.181a1.332,1.332,0,0,0-.46.155,1.067,1.067,0,0,0-.361,1.52,1.208,1.208,0,0,0,1.609.341,1.067,1.067,0,0,0,.361-1.52A1.151,1.151,0,0,0,271.014,464.33Zm-11.956,3.816c-1.11.042-2.094.909-1.511,1.8a2.151,2.151,0,0,0,1.544.931c1.472,0,2.259-1.8,1.084-2.482A2.047,2.047,0,0,0,259.059,468.146Z"/></svg>